# Blender 4.1.1
# www.blender.org
mtllib cam_view_gaskin.mtl
o cam_view
v -0.491661 1.373096 0.900000
v -3.491932 3.813995 0.900000
v -4.271664 -0.779641 0.900000
v -4.254714 3.576686 0.900000
v -2.169779 3.695341 0.900000
v -0.491661 2.491842 0.900000
v -0.118564 -4.339286 0.900000
v -2.661168 -4.288434 0.900000
v -4.322335 -2.474710 0.900000
v -4.322335 -0.474710 0.900000
v -0.152466 -2.949330 0.900000
v 0.915428 -2.847626 0.900000
v 0.712020 0.423857 0.900000
v -2.762872 0.457759 0.900000
v 5.000362 -2.627266 0.900000
v 5.000362 -0.627266 0.900000
v -0.830675 0.067712 0.900000
v 3.169688 -0.220450 0.900000
v -0.712020 -2.949510 0.900000
v -0.491661 1.373096 -1.900000
v -4.271664 -0.779641 -1.900000
v -3.491932 3.813995 -1.900000
v -2.169779 3.695341 -1.900000
v -4.254714 3.576686 -1.900000
v -0.491661 2.491842 -1.900000
v -0.118564 -4.339286 -1.900000
v -0.152466 -2.949330 -1.900000
v -2.661168 -4.288434 -1.900000
v -4.322335 -2.474710 -1.900000
v -4.322335 -0.474710 -1.900000
v 0.915428 -2.847626 -1.900000
v 0.712020 0.423857 -1.900000
v -2.762872 0.457759 -1.900000
v 5.000362 -2.627266 -1.900000
v 5.000362 -0.627266 -1.900000
v 3.169688 -0.220450 -1.900000
v -0.830675 0.067712 -1.900000
v -0.712020 -2.949510 -1.900000
vn -0.0000 -0.0000 -1.0000
vn -0.0000 -0.0000 1.0000
vn 0.0098 1.0000 -0.0000
vn -0.5828 -0.8126 -0.0000
vn -0.5132 0.8583 -0.0000
vn 0.9997 0.0244 -0.0000
vn -1.0000 -0.0000 -0.0000
vn -0.0200 -0.9998 -0.0000
vn -0.4949 0.8690 -0.0000
vn -0.2169 -0.9762 -0.0000
vn -0.7374 -0.6754 -0.0000
vn -0.0894 -0.9960 -0.0000
vn -0.0718 -0.9974 -0.0000
vn 0.2971 -0.9549 -0.0000
vn -0.0563 0.9984 -0.0000
vn 0.0948 -0.9955 -0.0000
vn 1.0000 -0.0039 -0.0000
vn 0.9992 0.0393 -0.0000
vn 0.9981 0.0621 -0.0000
vt 0.000000 0.000000
s 0
f 3/1/1 4/1/1 2/1/1
f 9/1/2 8/1/2 11/1/2
f 19/1/1 17/1/1 18/1/1
f 22/1/2 24/1/2 21/1/2
f 32/1/1 31/1/1 27/1/1
f 36/1/2 38/1/2 34/1/2
f 13/1/3 33/1/3 14/1/3
f 5/1/4 25/1/4 6/1/4
f 14/1/5 30/1/5 10/1/5
f 7/1/6 27/1/6 11/1/6
f 16/1/7 34/1/7 15/1/7
f 8/1/8 26/1/8 7/1/8
f 1/1/9 21/1/9 3/1/9
f 18/1/10 35/1/10 16/1/10
f 9/1/11 28/1/11 8/1/11
f 2/1/12 23/1/12 5/1/12
f 17/1/13 36/1/13 18/1/13
f 10/1/7 29/1/7 9/1/7
f 4/1/14 22/1/14 2/1/14
f 15/1/15 38/1/15 19/1/15
f 11/1/16 31/1/16 12/1/16
f 3/1/17 24/1/17 4/1/17
f 17/1/18 38/1/18 37/1/18
f 12/1/19 32/1/19 13/1/19
f 6/1/7 20/1/7 1/1/7
f 6/1/1 1/1/1 5/1/1
f 1/1/1 3/1/1 5/1/1
f 5/1/1 3/1/1 2/1/1
f 8/1/2 7/1/2 11/1/2
f 11/1/2 12/1/2 13/1/2
f 13/1/2 14/1/2 11/1/2
f 14/1/2 10/1/2 9/1/2
f 11/1/2 14/1/2 9/1/2
f 18/1/1 16/1/1 15/1/1
f 15/1/1 19/1/1 18/1/1
f 21/1/2 20/1/2 23/1/2
f 20/1/2 25/1/2 23/1/2
f 21/1/2 23/1/2 22/1/2
f 27/1/1 26/1/1 28/1/1
f 28/1/1 29/1/1 27/1/1
f 29/1/1 30/1/1 33/1/1
f 27/1/1 29/1/1 33/1/1
f 33/1/1 32/1/1 27/1/1
f 34/1/2 35/1/2 36/1/2
f 36/1/2 37/1/2 38/1/2
f 13/1/3 32/1/3 33/1/3
f 5/1/4 23/1/4 25/1/4
f 14/1/5 33/1/5 30/1/5
f 7/1/6 26/1/6 27/1/6
f 16/1/7 35/1/7 34/1/7
f 8/1/8 28/1/8 26/1/8
f 1/1/9 20/1/9 21/1/9
f 18/1/10 36/1/10 35/1/10
f 9/1/11 29/1/11 28/1/11
f 2/1/12 22/1/12 23/1/12
f 17/1/13 37/1/13 36/1/13
f 10/1/7 30/1/7 29/1/7
f 4/1/14 24/1/14 22/1/14
f 15/1/15 34/1/15 38/1/15
f 11/1/16 27/1/16 31/1/16
f 3/1/17 21/1/17 24/1/17
f 17/1/18 19/1/18 38/1/18
f 12/1/19 31/1/19 32/1/19
f 6/1/7 25/1/7 20/1/7
