# Blender 4.1.1
# www.blender.org
mtllib cam_view_gaskin_no_kitchen.mtl
o cam_view
v -0.288252 0.762872 1.000000
v -0.339104 3.135787 1.000000
v -4.407269 3.779913 1.000000
v -2.169779 3.729061 1.000000
v -4.407269 -0.203499 1.000000
v -1.627357 -0.050942 1.000000
v 0.728971 -2.830674 1.000000
v -1.271211 -2.864576 1.000000
v -4.373187 -2.322154 1.000000
v -4.373187 -0.322154 1.000000
v 0.627267 0.237401 1.000000
v -0.288252 0.762872 -2.000000
v -0.339104 3.135787 -2.000000
v -4.407269 3.779913 -2.000000
v -2.169779 3.729061 -2.000000
v -4.407269 -0.203499 -2.000000
v -1.627357 -0.050943 -2.000000
v 0.728971 -2.830674 -2.000000
v -1.271211 -2.864576 -2.000000
v -4.373187 -2.322154 -2.000000
v -4.373187 -0.322154 -2.000000
v 0.627267 0.237400 -2.000000
vn -0.0000 -0.0000 1.0000
vn -0.0000 -0.0000 -1.0000
vn 0.9998 0.0214 -0.0000
vn -0.1722 -0.9851 -0.0000
vn 0.5193 -0.8546 -0.0000
vn 0.3083 0.9513 -0.0000
vn -1.0000 -0.0000 -0.0000
vn 0.9995 0.0331 -0.0000
vn 0.0227 0.9997 -0.0000
vn -0.1112 0.9938 -0.0000
vn 0.0169 -0.9999 -0.0000
vn 0.0548 -0.9985 -0.0000
vt 0.000000 0.000000
s 0
f 10/1/1 9/1/1 8/1/1
f 1/1/1 2/1/1 4/1/1
f 19/1/2 21/1/2 22/1/2
f 17/1/2 16/1/2 15/1/2
f 1/1/3 13/1/3 2/1/3
f 9/1/4 19/1/4 8/1/4
f 6/1/5 12/1/5 1/1/5
f 2/1/6 15/1/6 4/1/6
f 9/1/7 21/1/7 20/1/7
f 7/1/8 22/1/8 11/1/8
f 4/1/9 14/1/9 3/1/9
f 11/1/10 21/1/10 10/1/10
f 3/1/7 16/1/7 5/1/7
f 8/1/11 18/1/11 7/1/11
f 5/1/12 17/1/12 6/1/12
f 8/1/1 7/1/1 11/1/1
f 11/1/1 10/1/1 8/1/1
f 4/1/1 3/1/1 5/1/1
f 5/1/1 6/1/1 4/1/1
f 6/1/1 1/1/1 4/1/1
f 22/1/2 18/1/2 19/1/2
f 19/1/2 20/1/2 21/1/2
f 16/1/2 14/1/2 15/1/2
f 15/1/2 13/1/2 12/1/2
f 12/1/2 17/1/2 15/1/2
f 1/1/3 12/1/3 13/1/3
f 9/1/4 20/1/4 19/1/4
f 6/1/5 17/1/5 12/1/5
f 2/1/6 13/1/6 15/1/6
f 9/1/7 10/1/7 21/1/7
f 7/1/8 18/1/8 22/1/8
f 4/1/9 15/1/9 14/1/9
f 11/1/10 22/1/10 21/1/10
f 3/1/7 14/1/7 16/1/7
f 8/1/11 19/1/11 18/1/11
f 5/1/12 16/1/12 17/1/12
