# Blender 4.2.1 LTS
# www.blender.org
mtllib collision.mtl
o obstacles
v -5.477808 1.480757 -1.921201
v -4.677808 1.480757 -1.921201
v -5.477808 1.480757 -3.921201
v -4.677808 1.480757 -3.921201
v -5.477808 1.480757 -5.586944
v -4.677808 1.480757 -5.586944
v -5.477808 1.480757 -6.214046
v -4.677808 1.480757 -6.214046
v -1.405115 1.480757 -5.528152
v -1.405115 1.480757 -6.155255
v -0.680027 1.480757 -5.508555
v -0.680027 1.480757 -6.135658
v -0.542848 1.480757 -7.644625
v 0.182240 1.480757 -7.625028
v -0.190103 1.480757 -8.232533
v 0.534985 1.480757 -8.212936
v 3.572514 1.480757 -7.566236
v 3.925260 1.480757 -8.154145
v 4.571960 1.480757 -7.605431
v 4.924705 1.480757 -8.193339
v 3.435336 1.480757 1.977484
v 4.434781 1.480757 1.938290
v 3.415739 1.480757 2.643781
v 4.415184 1.480757 2.604587
v 6.002538 1.480757 1.997081
v 5.982941 1.480757 2.663378
v 6.727626 1.480757 1.957887
v 6.708029 1.480757 2.624183
v 6.041732 1.480757 4.995416
v 6.766819 1.480757 4.956222
v 6.041732 1.480757 5.936069
v 6.766819 1.480757 5.896875
v -6.500325 1.480757 5.230579
v -6.500325 1.480757 6.171233
v -7.284204 1.480757 5.171788
v -7.284204 1.480757 6.112442
v -6.402340 1.480757 2.937735
v -7.186219 1.480757 2.878944
v -6.363147 1.480757 2.173454
v -7.147025 1.480757 2.114662
v -5.912416 1.480757 2.937735
v -5.873222 1.480757 2.173454
v -4.932568 1.480757 2.918138
v -4.893374 1.480757 2.153857
v -1.130757 1.480757 2.722168
v -1.091563 1.480757 1.957887
v -0.386072 1.480757 2.702571
v -0.346878 1.480757 1.938290
v 1.005312 1.480757 2.722168
v 1.044506 1.480757 1.957887
v -0.973981 1.480757 -3.156920
v -0.248894 1.480757 -3.137323
v -0.915190 1.480757 -1.961505
v -0.190103 1.480757 -1.941908
v -5.458211 1.480757 -1.254905
v -4.638614 1.480757 -1.431277
v -3.756751 1.480757 -1.901605
v -3.717556 1.480757 -1.411680
v -3.913526 1.480757 2.859347
v -3.874332 1.480757 2.095066
v -3.070857 1.480757 2.780959
v -3.031663 1.480757 2.016678
v -0.973981 1.480757 0.311742
v -0.248894 1.480757 0.331339
v -1.013175 1.480757 1.487560
v -0.288088 1.480757 1.507157
v -4.638614 1.480757 0.332449
v -3.717556 1.480757 0.352046
v -0.915190 1.480757 -1.412790
v -0.190103 1.480757 -1.393193
v -5.477808 -1.374988 -3.921201
v -5.477808 -1.374988 -1.921201
v -4.677808 -1.374988 -1.921201
v -4.677808 -1.374988 -3.921201
v -4.677808 -1.374988 -5.586944
v -5.477808 -1.374988 -5.586944
v -4.677808 -1.374988 -6.214046
v -5.477808 -1.374988 -6.214046
v -1.405115 -1.374988 -5.528152
v -1.405115 -1.374988 -6.155255
v -0.680027 -1.374988 -5.508555
v -0.680027 -1.374988 -6.135658
v 0.182240 -1.374988 -7.625028
v -0.542848 -1.374988 -7.644625
v 0.534985 -1.374988 -8.212936
v -0.190103 -1.374988 -8.232533
v 3.572514 -1.374988 -7.566236
v 3.925260 -1.374988 -8.154145
v 4.571960 -1.374988 -7.605431
v 4.924705 -1.374988 -8.193339
v 3.435336 -1.374988 1.977484
v 4.434781 -1.374988 1.938290
v 3.415739 -1.374988 2.643781
v 4.415184 -1.374988 2.604587
v 5.982941 -1.374988 2.663378
v 6.002538 -1.374988 1.997081
v 6.708029 -1.374988 2.624183
v 6.727626 -1.374988 1.957887
v 6.041732 -1.374988 4.995416
v 6.766819 -1.374988 4.956222
v 6.041732 -1.374988 5.936069
v 6.766819 -1.374988 5.896875
v -6.500325 -1.374988 5.230579
v -6.500325 -1.374988 6.171233
v -7.284204 -1.374988 5.171788
v -7.284204 -1.374988 6.112442
v -6.402340 -1.374988 2.937735
v -7.186219 -1.374988 2.878944
v -6.363147 -1.374988 2.173454
v -7.147025 -1.374988 2.114662
v -5.912416 -1.374988 2.937735
v -5.873222 -1.374988 2.173454
v -4.932568 -1.374988 2.918138
v -4.893374 -1.374988 2.153857
v -1.130757 -1.374988 2.722168
v -1.091563 -1.374988 1.957887
v -3.874332 -1.374988 2.095066
v -3.913526 -1.374988 2.859347
v -0.386072 -1.374988 2.702571
v -0.346878 -1.374988 1.938290
v 1.005312 -1.374988 2.722168
v 1.044506 -1.374988 1.957887
v -0.973981 -1.374988 -3.156920
v -0.248894 -1.374988 -3.137323
v -0.915190 -1.374988 -1.961505
v -0.190103 -1.374988 -1.941908
v -5.458211 -1.374988 -1.254905
v -4.638614 -1.374988 -1.431277
v -3.717556 -1.374988 -1.411680
v -3.756751 -1.374988 -1.901605
v -3.717556 -1.374988 0.352046
v -0.973981 -1.374988 0.311742
v -0.248894 -1.374988 0.331339
v -3.070857 -1.374988 2.780959
v -3.031663 -1.374988 2.016678
v -4.638614 -1.374988 0.332449
v -1.013175 -1.374988 1.487560
v -0.288088 -1.374988 1.507157
v -0.915190 -1.374988 -1.412790
v -0.190103 -1.374988 -1.393193
vn -0.0000 -1.0000 -0.0000
vn -0.0000 1.0000 -0.0000
vn -1.0000 -0.0000 -0.0000
vn 1.0000 -0.0000 -0.0000
vn -0.9987 -0.0000 -0.0512
vn -0.9997 -0.0000 0.0252
vn -0.0270 -0.0000 0.9996
vn 0.9997 -0.0000 -0.0252
vn -0.9908 -0.0000 -0.1351
vn -0.0263 -0.0000 -0.9997
vn -0.0540 -0.0000 -0.9985
vn 0.8654 -0.0000 0.5010
vn 0.9864 -0.0000 0.1644
vn 0.9987 -0.0000 0.0512
vn -0.8654 -0.0000 -0.5010
vn 0.9904 -0.0000 0.1385
vn -0.0082 -0.0000 1.0000
vn -0.0325 -0.0000 -0.9995
vn 0.8575 -0.0000 0.5145
vn 0.0270 -0.0000 -0.9996
vn -0.0187 -0.0000 -0.9998
vn -0.9839 -0.0000 0.1789
vn 0.0187 -0.0000 0.9998
vn 0.9994 -0.0000 0.0341
vn 0.9839 -0.0000 -0.1789
vn -0.0173 -0.0000 0.9998
vn -0.9994 -0.0000 -0.0341
vn 0.0748 -0.0000 -0.9972
vn 0.0173 -0.0000 -0.9998
vn -0.0004 -0.0000 -1.0000
vn -0.2104 -0.0000 -0.9776
vn -0.8575 -0.0000 -0.5145
vn 0.0211 -0.0000 0.9998
vn 0.0392 -0.0000 0.9992
vn 0.9996 -0.0000 -0.0294
vn 0.9991 -0.0000 0.0427
vn -0.9991 -0.0000 -0.0427
vn -0.0213 -0.0000 0.9998
vn -0.0748 -0.0000 0.9972
vn -0.9999 -0.0000 -0.0144
vn 0.9999 -0.0000 0.0144
vn -0.9960 -0.0000 -0.0896
vn -0.0392 -0.0000 -0.9992
vn -0.0576 -0.0000 -0.9983
vn -0.0000 -0.0000 1.0000
vn -0.0000 -0.0000 -1.0000
vn 0.0926 -0.0000 0.9957
vn -0.0375 -0.0000 0.9993
vn -0.0926 -0.0000 -0.9957
vn 0.0200 -0.0000 0.9998
vn 0.0375 -0.0000 -0.9993
vn -0.0303 -0.0000 -0.9995
vn -0.0200 -0.0000 -0.9998
vn -0.9996 -0.0000 -0.0294
vn -0.0180 -0.0000 0.9998
vn 0.0303 -0.0000 0.9995
vn 0.0540 -0.0000 0.9985
vn 0.0180 -0.0000 -0.9998
vt 0.000000 1.000000
vt 1.000000 0.000000
vt 0.000000 0.000000
vt 1.000000 1.000000
s 0
f 3/1/1 2/2/1 1/3/1
f 5/1/1 4/4/1 3/1/1
f 7/1/1 6/4/1 5/1/1
f 10/4/1 6/4/1 8/4/1
f 12/4/1 9/4/1 10/4/1
f 13/4/1 12/4/1 10/4/1
f 15/4/1 14/4/1 13/4/1
f 16/4/1 17/4/1 14/4/1
f 18/4/1 19/4/1 17/4/1
f 22/4/1 17/4/1 19/4/1
f 24/4/1 21/4/1 22/4/1
f 22/4/1 26/4/1 24/4/1
f 25/4/1 28/4/1 26/4/1
f 28/4/1 29/4/1 26/4/1
f 32/4/1 29/4/1 30/4/1
f 31/4/1 33/4/1 29/4/1
f 36/4/1 33/4/1 34/4/1
f 38/4/1 33/4/1 35/4/1
f 40/4/1 37/4/1 38/4/1
f 39/4/1 41/4/1 37/4/1
f 42/4/1 43/4/1 41/4/1
f 44/4/1 59/4/1 43/4/1
f 46/4/1 47/4/1 45/4/1
f 23/4/1 50/4/1 21/4/1
f 11/4/1 51/4/1 9/4/1
f 2/2/1 55/3/1 1/3/1
f 57/2/1 56/2/1 2/2/1
f 60/4/1 67/2/1 68/2/1
f 60/4/1 61/4/1 59/4/1
f 45/4/1 62/4/1 46/4/1
f 58/2/1 67/2/1 56/2/1
f 48/4/1 65/4/1 66/4/1
f 54/4/1 69/4/1 53/4/1
f 64/4/1 69/4/1 70/4/1
f 58/2/1 53/4/1 69/4/1
f 73/2/2 71/1/2 72/3/2
f 74/4/2 76/1/2 71/1/2
f 75/4/2 78/1/2 76/1/2
f 75/4/2 80/4/2 77/4/2
f 79/4/2 82/4/2 80/4/2
f 82/4/2 84/4/2 80/4/2
f 83/4/2 86/4/2 84/4/2
f 85/4/2 87/4/2 88/4/2
f 88/4/2 89/4/2 90/4/2
f 87/4/2 92/4/2 89/4/2
f 91/4/2 94/4/2 92/4/2
f 92/4/2 95/4/2 96/4/2
f 96/4/2 97/4/2 98/4/2
f 97/4/2 99/4/2 100/4/2
f 99/4/2 102/4/2 100/4/2
f 101/4/2 103/4/2 104/4/2
f 103/4/2 106/4/2 104/4/2
f 103/4/2 108/4/2 105/4/2
f 107/4/2 110/4/2 108/4/2
f 109/4/2 111/4/2 112/4/2
f 112/4/2 113/4/2 114/4/2
f 114/4/2 118/4/2 117/4/2
f 116/4/2 119/4/2 120/4/2
f 122/4/2 93/4/2 91/4/2
f 81/4/2 123/4/2 124/4/2
f 73/2/2 127/3/2 128/2/2
f 128/2/2 130/2/2 73/2/2
f 117/4/2 136/2/2 114/4/2
f 117/4/2 134/4/2 135/4/2
f 135/4/2 115/4/2 116/4/2
f 129/2/2 136/2/2 131/2/2
f 120/4/2 137/4/2 116/4/2
f 126/4/2 139/4/2 140/4/2
f 133/4/2 139/4/2 132/4/2
f 129/2/2 125/4/2 130/2/2
f 58/2/3 131/2/3 68/2/3
f 12/4/3 81/4/3 11/4/3
f 67/2/4 128/2/4 56/2/4
f 48/4/5 119/4/5 47/4/5
f 28/4/6 100/4/6 30/4/6
f 65/4/7 138/4/7 66/4/7
f 29/4/8 95/4/8 26/4/8
f 66/4/9 120/4/9 48/4/9
f 47/4/10 115/4/10 45/4/10
f 32/4/11 101/4/11 31/4/11
f 10/4/12 84/4/12 13/4/12
f 46/4/13 137/4/13 65/4/13
f 49/4/14 122/4/14 50/4/14
f 30/4/3 102/4/3 32/4/3
f 14/4/15 82/4/15 12/4/15
f 44/4/16 136/2/16 67/2/16
f 50/4/17 91/4/17 21/4/17
f 15/4/7 85/4/7 16/4/7
f 23/4/18 121/4/18 49/4/18
f 13/4/19 86/4/19 15/4/19
f 54/4/3 140/4/3 70/4/3
f 52/4/20 123/4/20 51/4/20
f 31/4/21 104/4/21 34/4/21
f 11/4/22 124/4/22 52/4/22
f 33/4/23 99/4/23 29/4/23
f 63/4/24 139/4/24 69/4/24
f 51/4/25 79/4/25 9/4/25
f 36/4/4 105/4/4 35/4/4
f 16/4/26 88/4/26 18/4/26
f 70/4/27 133/4/27 64/4/27
f 53/4/7 126/4/7 54/4/7
f 34/4/28 106/4/28 36/4/28
f 17/4/29 83/4/29 14/4/29
f 69/4/30 129/2/30 58/2/30
f 56/2/31 127/3/31 55/3/31
f 20/4/32 89/4/32 19/4/32
f 57/2/33 125/4/33 53/4/33
f 18/4/34 90/4/34 20/4/34
f 1/3/4 71/1/4 3/1/4
f 55/3/35 72/3/35 1/3/35
f 35/4/36 108/4/36 38/4/36
f 37/4/37 103/4/37 33/4/37
f 4/4/3 73/2/3 2/2/3
f 2/2/38 130/2/38 57/2/38
f 40/4/39 109/4/39 39/4/39
f 19/4/40 92/4/40 22/4/40
f 38/4/14 110/4/14 40/4/14
f 21/4/41 87/4/41 17/4/41
f 68/2/42 117/4/42 60/4/42
f 24/4/43 93/4/43 23/4/43
f 3/1/4 76/1/4 5/1/4
f 64/4/20 132/4/20 63/4/20
f 6/4/3 74/4/3 4/4/3
f 59/4/44 113/4/44 43/4/44
f 39/4/45 112/4/45 42/4/45
f 7/1/45 77/4/45 8/4/45
f 41/4/46 107/4/46 37/4/46
f 5/1/4 78/1/4 7/1/4
f 60/4/47 135/4/47 62/4/47
f 22/4/48 96/4/48 25/4/48
f 61/4/49 118/4/49 59/4/49
f 42/4/50 114/4/50 44/4/50
f 26/4/51 94/4/51 24/4/51
f 45/4/52 134/4/52 61/4/52
f 43/4/53 111/4/53 41/4/53
f 27/4/54 97/4/54 28/4/54
f 8/4/55 80/4/55 10/4/55
f 62/4/56 116/4/56 46/4/56
f 25/4/57 98/4/57 27/4/57
f 9/4/58 75/4/58 6/4/58
f 3/1/1 4/4/1 2/2/1
f 5/1/1 6/4/1 4/4/1
f 7/1/1 8/4/1 6/4/1
f 10/4/1 9/4/1 6/4/1
f 12/4/1 11/4/1 9/4/1
f 13/4/1 14/4/1 12/4/1
f 15/4/1 16/4/1 14/4/1
f 16/4/1 18/4/1 17/4/1
f 18/4/1 20/4/1 19/4/1
f 22/4/1 21/4/1 17/4/1
f 24/4/1 23/4/1 21/4/1
f 22/4/1 25/4/1 26/4/1
f 25/4/1 27/4/1 28/4/1
f 28/4/1 30/4/1 29/4/1
f 32/4/1 31/4/1 29/4/1
f 31/4/1 34/4/1 33/4/1
f 36/4/1 35/4/1 33/4/1
f 38/4/1 37/4/1 33/4/1
f 40/4/1 39/4/1 37/4/1
f 39/4/1 42/4/1 41/4/1
f 42/4/1 44/4/1 43/4/1
f 44/4/1 60/4/1 59/4/1
f 46/4/1 48/4/1 47/4/1
f 23/4/1 49/4/1 50/4/1
f 11/4/1 52/4/1 51/4/1
f 2/2/1 56/2/1 55/3/1
f 57/2/1 58/2/1 56/2/1
f 60/4/1 44/4/1 67/2/1
f 60/4/1 62/4/1 61/4/1
f 45/4/1 61/4/1 62/4/1
f 58/2/1 68/2/1 67/2/1
f 48/4/1 46/4/1 65/4/1
f 54/4/1 70/4/1 69/4/1
f 64/4/1 63/4/1 69/4/1
f 58/2/1 57/2/1 53/4/1
f 73/2/2 74/4/2 71/1/2
f 74/4/2 75/4/2 76/1/2
f 75/4/2 77/4/2 78/1/2
f 75/4/2 79/4/2 80/4/2
f 79/4/2 81/4/2 82/4/2
f 82/4/2 83/4/2 84/4/2
f 83/4/2 85/4/2 86/4/2
f 85/4/2 83/4/2 87/4/2
f 88/4/2 87/4/2 89/4/2
f 87/4/2 91/4/2 92/4/2
f 91/4/2 93/4/2 94/4/2
f 92/4/2 94/4/2 95/4/2
f 96/4/2 95/4/2 97/4/2
f 97/4/2 95/4/2 99/4/2
f 99/4/2 101/4/2 102/4/2
f 101/4/2 99/4/2 103/4/2
f 103/4/2 105/4/2 106/4/2
f 103/4/2 107/4/2 108/4/2
f 107/4/2 109/4/2 110/4/2
f 109/4/2 107/4/2 111/4/2
f 112/4/2 111/4/2 113/4/2
f 114/4/2 113/4/2 118/4/2
f 116/4/2 115/4/2 119/4/2
f 122/4/2 121/4/2 93/4/2
f 81/4/2 79/4/2 123/4/2
f 73/2/2 72/3/2 127/3/2
f 128/2/2 129/2/2 130/2/2
f 117/4/2 131/2/2 136/2/2
f 117/4/2 118/4/2 134/4/2
f 135/4/2 134/4/2 115/4/2
f 129/2/2 128/2/2 136/2/2
f 120/4/2 138/4/2 137/4/2
f 126/4/2 125/4/2 139/4/2
f 133/4/2 140/4/2 139/4/2
f 129/2/2 139/4/2 125/4/2
f 58/2/3 129/2/3 131/2/3
f 12/4/3 82/4/3 81/4/3
f 67/2/4 136/2/4 128/2/4
f 48/4/5 120/4/5 119/4/5
f 28/4/6 97/4/6 100/4/6
f 65/4/7 137/4/7 138/4/7
f 29/4/8 99/4/8 95/4/8
f 66/4/9 138/4/9 120/4/9
f 47/4/10 119/4/10 115/4/10
f 32/4/11 102/4/11 101/4/11
f 10/4/12 80/4/12 84/4/12
f 46/4/13 116/4/13 137/4/13
f 49/4/14 121/4/14 122/4/14
f 30/4/3 100/4/3 102/4/3
f 14/4/15 83/4/15 82/4/15
f 44/4/16 114/4/16 136/2/16
f 50/4/17 122/4/17 91/4/17
f 15/4/7 86/4/7 85/4/7
f 23/4/18 93/4/18 121/4/18
f 13/4/19 84/4/19 86/4/19
f 54/4/3 126/4/3 140/4/3
f 52/4/20 124/4/20 123/4/20
f 31/4/21 101/4/21 104/4/21
f 11/4/22 81/4/22 124/4/22
f 33/4/23 103/4/23 99/4/23
f 63/4/24 132/4/24 139/4/24
f 51/4/25 123/4/25 79/4/25
f 36/4/4 106/4/4 105/4/4
f 16/4/26 85/4/26 88/4/26
f 70/4/27 140/4/27 133/4/27
f 53/4/7 125/4/7 126/4/7
f 34/4/28 104/4/28 106/4/28
f 17/4/29 87/4/29 83/4/29
f 69/4/30 139/4/30 129/2/30
f 56/2/31 128/2/31 127/3/31
f 20/4/32 90/4/32 89/4/32
f 57/2/33 130/2/33 125/4/33
f 18/4/34 88/4/34 90/4/34
f 1/3/4 72/3/4 71/1/4
f 55/3/35 127/3/35 72/3/35
f 35/4/36 105/4/36 108/4/36
f 37/4/37 107/4/37 103/4/37
f 4/4/3 74/4/3 73/2/3
f 2/2/38 73/2/38 130/2/38
f 40/4/39 110/4/39 109/4/39
f 19/4/40 89/4/40 92/4/40
f 38/4/14 108/4/14 110/4/14
f 21/4/41 91/4/41 87/4/41
f 68/2/42 131/2/42 117/4/42
f 24/4/43 94/4/43 93/4/43
f 3/1/4 71/1/4 76/1/4
f 64/4/20 133/4/20 132/4/20
f 6/4/3 75/4/3 74/4/3
f 59/4/44 118/4/44 113/4/44
f 39/4/45 109/4/45 112/4/45
f 7/1/45 78/1/45 77/4/45
f 41/4/46 111/4/46 107/4/46
f 5/1/4 76/1/4 78/1/4
f 60/4/47 117/4/47 135/4/47
f 22/4/48 92/4/48 96/4/48
f 61/4/49 134/4/49 118/4/49
f 42/4/50 112/4/50 114/4/50
f 26/4/51 95/4/51 94/4/51
f 45/4/52 115/4/52 134/4/52
f 43/4/53 113/4/53 111/4/53
f 27/4/54 98/4/54 97/4/54
f 8/4/55 77/4/55 80/4/55
f 62/4/56 135/4/56 116/4/56
f 25/4/57 96/4/57 98/4/57
f 9/4/58 79/4/58 75/4/58
o main_door
v -0.386072 1.480757 2.702571
v -0.346878 1.480757 1.938290
v 1.005312 1.480757 2.722168
v 1.044506 1.480757 1.957887
v -0.386072 -1.374988 2.702571
v -0.346878 -1.374988 1.938290
v 1.005312 -1.374988 2.722168
v 1.044506 -1.374988 1.957887
vn -0.0000 -1.0000 -0.0000
vn -0.0000 1.0000 -0.0000
vn -0.0141 -0.0000 0.9999
vn 0.9987 -0.0000 0.0512
vn 0.0141 -0.0000 -0.9999
vn -0.9987 -0.0000 -0.0512
vt 1.000000 1.000000
s 0
f 142/5/59 143/5/59 141/5/59
f 146/5/60 147/5/60 148/5/60
f 142/5/61 148/5/61 144/5/61
f 141/5/62 146/5/62 142/5/62
f 143/5/63 145/5/63 141/5/63
f 144/5/64 147/5/64 143/5/64
f 142/5/59 144/5/59 143/5/59
f 146/5/60 145/5/60 147/5/60
f 142/5/61 146/5/61 148/5/61
f 141/5/62 145/5/62 146/5/62
f 143/5/63 147/5/63 145/5/63
f 144/5/64 148/5/64 147/5/64
o bathroom
v -0.973981 1.480757 0.311742
v -0.248894 1.480757 0.331339
v -1.013175 1.480757 1.487560
v -0.288088 1.480757 1.507157
v -0.973981 -1.374988 0.311742
v -0.248894 -1.374988 0.331339
v -1.013175 -1.374988 1.487560
v -0.288088 -1.374988 1.507157
vn -0.0000 -1.0000 -0.0000
vn -0.0000 1.0000 -0.0000
vn -0.9994 -0.0000 -0.0333
vn -0.0270 -0.0000 0.9996
vn 0.9994 -0.0000 0.0333
vn 0.0270 -0.0000 -0.9996
vt 1.000000 1.000000
s 0
f 152/6/65 149/6/65 150/6/65
f 153/6/66 156/6/66 154/6/66
f 150/6/67 156/6/67 152/6/67
f 149/6/68 154/6/68 150/6/68
f 151/6/69 153/6/69 149/6/69
f 152/6/70 155/6/70 151/6/70
f 152/6/65 151/6/65 149/6/65
f 153/6/66 155/6/66 156/6/66
f 150/6/67 154/6/67 156/6/67
f 149/6/68 153/6/68 154/6/68
f 151/6/69 155/6/69 153/6/69
f 152/6/70 156/6/70 155/6/70
o bedroom
v -0.973981 1.480757 -3.156920
v -0.248894 1.480757 -3.137323
v -0.915190 1.480757 -1.961505
v -0.190103 1.480757 -1.941908
v -0.973981 -1.374988 -3.156920
v -0.248894 -1.374988 -3.137323
v -0.915190 -1.374988 -1.961505
v -0.190103 -1.374988 -1.941908
vn -0.0000 -1.0000 -0.0000
vn -0.0000 1.0000 -0.0000
vn -0.9988 -0.0000 0.0491
vn -0.0270 -0.0000 0.9996
vn 0.9988 -0.0000 -0.0491
vn 0.0270 -0.0000 -0.9996
vt 1.000000 1.000000
s 0
f 158/7/71 159/7/71 157/7/71
f 162/7/72 163/7/72 164/7/72
f 158/7/73 164/7/73 160/7/73
f 157/7/74 162/7/74 158/7/74
f 159/7/75 161/7/75 157/7/75
f 160/7/76 163/7/76 159/7/76
f 158/7/71 160/7/71 159/7/71
f 162/7/72 161/7/72 163/7/72
f 158/7/73 162/7/73 164/7/73
f 157/7/74 161/7/74 162/7/74
f 159/7/75 163/7/75 161/7/75
f 160/7/76 164/7/76 163/7/76
