# Blender v3.6.1 OBJ File: ''
# www.blender.org
mtllib collsion_lab_211.mtl
o obstacles
v -3.915112 -5.377522 -1.500000
v -3.895912 -4.318305 -1.500000
v -7.796678 -5.319923 -1.500000
v -7.777478 -4.260706 -1.500000
v 0.160282 -4.353683 -1.500000
v 0.193614 -5.316688 -1.500000
v 4.763133 -4.395104 -1.500000
v 4.763133 -5.335887 -1.500000
v 5.857513 -4.452703 -1.500000
v 5.857513 -5.393486 -1.500000
v 5.185525 4.686333 -1.500000
v 6.279906 4.628734 -1.500000
v 5.204725 6.030309 -1.500000
v 6.299105 5.972710 -1.500000
v -7.332650 4.743932 -1.500000
v -7.313450 6.087908 -1.500000
v -8.772624 4.705533 -1.500000
v -8.753425 6.049509 -1.500000
v -9.006256 -5.281524 -1.500000
v -8.987056 -4.222307 -1.500000
v -0.413307 -3.373291 -1.500000
v -0.426641 -1.026630 -1.500000
v -0.800004 -3.373291 -1.500000
v -0.813337 -1.026630 -1.500000
v -3.262323 0.670370 -1.500000
v -3.243124 1.652788 -1.500000
v -6.625500 0.708769 -1.500000
v -6.606300 1.691187 -1.500000
v 4.916730 -0.193614 -1.500000
v 4.897530 0.558408 -1.500000
v 1.092763 -0.078417 -1.500000
v 1.073563 0.673605 -1.500000
v -0.286376 0.689570 -1.500000
v -0.324776 4.647935 -1.500000
v -1.000000 0.689570 -1.500000
v -1.038399 4.647935 -1.500000
v -7.796678 -5.319923 1.000000
v -3.915112 -5.377522 1.000000
v -3.895912 -4.318305 1.000000
v -7.777478 -4.260706 1.000000
v 0.160282 -4.353683 1.000000
v 0.193614 -5.316688 1.000000
v 4.763133 -4.395104 1.000000
v 4.763133 -5.335887 1.000000
v 5.857513 -4.452703 1.000000
v 5.857513 -5.393486 1.000000
v 6.279906 4.628734 1.000000
v 5.185525 4.686333 1.000000
v 6.299105 5.972710 1.000000
v 5.204725 6.030309 1.000000
v -7.313450 6.087908 1.000000
v -7.332650 4.743932 1.000000
v -8.753425 6.049509 1.000000
v -8.772624 4.705533 1.000000
v -8.987056 -4.222307 1.000000
v -9.006256 -5.281524 1.000000
v -0.800004 -3.373291 1.000000
v -0.413307 -3.373291 1.000000
v -0.426641 -1.026630 1.000000
v -0.813337 -1.026630 1.000000
v -6.625500 0.708769 1.000000
v -3.262323 0.670370 1.000000
v -3.243124 1.652788 1.000000
v -6.606300 1.691187 1.000000
v 1.092763 -0.078417 1.000000
v 4.916730 -0.193614 1.000000
v 4.897530 0.558408 1.000000
v 1.073563 0.673605 1.000000
v -1.000000 0.689570 1.000000
v -0.286376 0.689570 1.000000
v -0.324776 4.647935 1.000000
v -1.038399 4.647935 1.000000
vt 0.000000 0.000000
vt 1.000000 1.000000
vt 1.000000 0.000000
vt 0.000000 0.000000
vt 0.000000 0.000000
vt 0.000000 0.000000
vt 0.000000 0.000000
vt 0.000000 0.000000
vt 0.000000 0.000000
vt 0.000000 0.000000
vt 0.000000 0.000000
vt 0.000000 0.000000
vt 0.000000 0.000000
vt 0.000000 0.000000
vt 0.000000 0.000000
vt 0.000000 1.000000
vt 0.000000 1.000000
vt 0.000000 0.000000
vt 1.000000 1.000000
vt 0.000000 1.000000
vt 1.000000 0.000000
vt 0.000000 0.000000
vt 0.000000 0.000000
vt 1.000000 1.000000
vt 1.000000 0.000000
vt 0.000000 1.000000
vt 1.000000 0.000000
vt 0.000000 0.000000
vt 0.000000 1.000000
vt 1.000000 0.000000
vt 0.000000 0.000000
vt 0.000000 0.000000
vt 1.000000 1.000000
vt 0.000000 1.000000
vt 0.000000 0.000000
vt 0.000000 0.000000
vt 0.000000 0.000000
vt 0.000000 0.000000
vt 0.000000 0.000000
vt 0.000000 0.000000
vt 0.000000 0.000000
vt 0.000000 0.000000
vt 0.000000 0.000000
vt 0.000000 0.000000
vt 0.000000 0.000000
vt 0.000000 0.000000
vt 0.000000 0.000000
vt 0.000000 1.000000
vt 1.000000 0.000000
vt 0.000000 1.000000
vt 0.000000 0.000000
vt 0.000000 0.000000
vt 1.000000 1.000000
vt 0.000000 1.000000
vt 1.000000 0.000000
vt 0.000000 1.000000
vt 0.000000 0.000000
vt 1.000000 0.000000
vt 0.000000 1.000000
vt 0.000000 0.000000
vt 1.000000 1.000000
vt 1.000000 1.000000
vt 1.000000 1.000000
vt 1.000000 0.000000
vt 1.000000 1.000000
vt 1.000000 1.000000
vt 1.000000 1.000000
vt 0.000000 1.000000
vt 1.000000 0.000000
vt 0.000000 0.000000
vt 0.000000 0.000000
vt 1.000000 1.000000
vn 0.0000 0.0000 -1.0000
vn 0.0000 0.0000 1.0000
vn 0.0301 0.9995 0.0000
vn -0.9989 0.0465 0.0000
vn -0.9997 -0.0255 0.0000
vn -0.9997 0.0240 0.0000
vn 0.9989 -0.0465 0.0000
vn 0.0000 -1.0000 0.0000
vn -0.0148 -0.9999 0.0000
vn 0.9988 -0.0493 0.0000
vn 0.0526 0.9986 0.0000
vn 1.0000 0.0097 0.0000
vn 0.9998 -0.0181 0.0000
vn 0.0000 1.0000 0.0000
vn 0.0148 0.9999 0.0000
vn 1.0000 0.0057 0.0000
vn 0.9999 -0.0143 0.0000
vn -1.0000 -0.0097 0.0000
vn -0.9994 -0.0346 0.0000
vn -1.0000 -0.0057 0.0000
vn -0.0046 -1.0000 0.0000
vn -0.0114 -0.9999 0.0000
vn 0.0046 1.0000 0.0000
vn 0.0090 1.0000 0.0000
vn 0.9998 -0.0195 0.0000
vn -0.9999 0.0143 0.0000
vn -0.0042 -1.0000 0.0000
vn 0.0114 0.9999 0.0000
vn 1.0000 0.0000 0.0000
vn -0.9998 0.0195 0.0000
vn -0.0267 0.9996 0.0000
vn -0.0301 -0.9995 0.0000
vn -0.9998 0.0181 0.0000
vn -0.0526 -0.9986 0.0000
vn 0.9997 0.0255 0.0000
vn -0.0317 -0.9995 0.0000
usemtl None
s off
f 1/1/1 4/2/1 2/3/1
f 7/4/1 6/5/1 5/6/1
f 9/7/1 8/8/1 7/4/1
f 7/4/1 12/9/1 9/7/1
f 11/10/1 14/11/1 12/9/1
f 11/10/1 16/12/1 13/13/1
f 15/14/1 18/15/1 16/12/1
f 19/16/1 4/2/1 3/17/1
f 17/18/1 4/2/1 20/19/1
f 23/20/1 22/21/1 21/22/1
f 25/23/1 28/24/1 26/25/1
f 31/26/1 30/27/1 29/28/1
f 35/29/1 34/30/1 33/31/1
f 38/32/2 40/33/2 37/34/2
f 42/35/2 43/36/2 41/37/2
f 44/38/2 45/39/2 43/36/2
f 43/36/2 47/40/2 48/41/2
f 48/41/2 49/42/2 50/43/2
f 48/41/2 51/44/2 52/45/2
f 52/45/2 53/46/2 54/47/2
f 40/33/2 56/48/2 37/34/2
f 54/47/2 40/33/2 52/45/2
f 59/49/2 57/50/2 58/51/2
f 62/52/2 64/53/2 61/54/2
f 67/55/2 65/56/2 66/57/2
f 71/58/2 69/59/2 70/60/2
f 32/61/3 67/55/3 30/27/3
f 7/4/4 48/41/4 11/10/4
f 31/26/5 68/62/5 32/61/5
f 20/19/6 54/47/6 17/18/6
f 12/9/7 45/39/7 9/7/7
f 33/31/8 69/59/8 35/29/8
f 1/1/9 37/34/9 3/17/9
f 15/14/10 40/33/10 4/2/10
f 13/13/11 49/42/11 14/11/11
f 34/30/12 70/60/12 33/31/12
f 2/3/13 38/32/13 1/1/13
f 21/22/8 57/50/8 23/20/8
f 36/63/14 71/58/14 34/30/14
f 4/2/15 39/64/15 2/3/15
f 22/21/16 58/51/16 21/22/16
f 14/11/17 47/40/17 12/9/17
f 35/29/18 72/65/18 36/63/18
f 24/66/14 59/49/14 22/21/14
f 6/5/19 41/37/19 5/6/19
f 23/20/20 60/67/20 24/66/20
f 11/10/21 52/45/21 15/14/21
f 25/23/22 61/54/22 27/68/22
f 16/12/23 50/43/23 13/13/23
f 5/6/24 43/36/24 7/4/24
f 26/25/25 62/52/25 25/23/25
f 17/18/26 53/46/26 18/15/26
f 8/8/27 42/35/27 6/5/27
f 28/24/28 63/69/28 26/25/28
f 9/7/29 46/70/29 10/71/29
f 27/68/30 64/53/30 28/24/30
f 18/15/31 51/44/31 16/12/31
f 29/28/32 65/56/32 31/26/32
f 19/16/33 55/72/33 20/19/33
f 10/71/34 44/38/34 8/8/34
f 30/27/35 66/57/35 29/28/35
f 3/17/36 56/48/36 19/16/36
f 1/1/1 3/17/1 4/2/1
f 7/4/1 8/8/1 6/5/1
f 9/7/1 10/71/1 8/8/1
f 7/4/1 11/10/1 12/9/1
f 11/10/1 13/13/1 14/11/1
f 11/10/1 15/14/1 16/12/1
f 15/14/1 17/18/1 18/15/1
f 19/16/1 20/19/1 4/2/1
f 17/18/1 15/14/1 4/2/1
f 23/20/1 24/66/1 22/21/1
f 25/23/1 27/68/1 28/24/1
f 31/26/1 32/61/1 30/27/1
f 35/29/1 36/63/1 34/30/1
f 38/32/2 39/64/2 40/33/2
f 42/35/2 44/38/2 43/36/2
f 44/38/2 46/70/2 45/39/2
f 43/36/2 45/39/2 47/40/2
f 48/41/2 47/40/2 49/42/2
f 48/41/2 50/43/2 51/44/2
f 52/45/2 51/44/2 53/46/2
f 40/33/2 55/72/2 56/48/2
f 54/47/2 55/72/2 40/33/2
f 59/49/2 60/67/2 57/50/2
f 62/52/2 63/69/2 64/53/2
f 67/55/2 68/62/2 65/56/2
f 71/58/2 72/65/2 69/59/2
f 32/61/3 68/62/3 67/55/3
f 7/4/4 43/36/4 48/41/4
f 31/26/5 65/56/5 68/62/5
f 20/19/6 55/72/6 54/47/6
f 12/9/7 47/40/7 45/39/7
f 33/31/8 70/60/8 69/59/8
f 1/1/9 38/32/9 37/34/9
f 15/14/10 52/45/10 40/33/10
f 13/13/11 50/43/11 49/42/11
f 34/30/12 71/58/12 70/60/12
f 2/3/13 39/64/13 38/32/13
f 21/22/8 58/51/8 57/50/8
f 36/63/14 72/65/14 71/58/14
f 4/2/15 40/33/15 39/64/15
f 22/21/16 59/49/16 58/51/16
f 14/11/17 49/42/17 47/40/17
f 35/29/18 69/59/18 72/65/18
f 24/66/14 60/67/14 59/49/14
f 6/5/19 42/35/19 41/37/19
f 23/20/20 57/50/20 60/67/20
f 11/10/21 48/41/21 52/45/21
f 25/23/22 62/52/22 61/54/22
f 16/12/23 51/44/23 50/43/23
f 5/6/24 41/37/24 43/36/24
f 26/25/25 63/69/25 62/52/25
f 17/18/26 54/47/26 53/46/26
f 8/8/27 44/38/27 42/35/27
f 28/24/28 64/53/28 63/69/28
f 9/7/29 45/39/29 46/70/29
f 27/68/30 61/54/30 64/53/30
f 18/15/31 53/46/31 51/44/31
f 29/28/32 66/57/32 65/56/32
f 19/16/33 56/48/33 55/72/33
f 10/71/34 46/70/34 44/38/34
f 30/27/35 67/55/35 66/57/35
f 3/17/36 37/34/36 56/48/36
o door
v -3.915112 -5.377522 -1.500000
v -3.895912 -4.318305 -1.500000
v 0.160282 -4.353683 -1.500000
v 0.193614 -5.316688 -1.500000
v 0.149171 -3.475920 -1.500000
v -3.872979 -3.364811 -1.500000
v -3.915112 -5.377522 1.000000
v -3.895912 -4.318305 1.000000
v 0.160282 -4.353683 1.000000
v 0.193614 -5.316688 1.000000
v 0.149171 -3.475920 1.000000
v -3.872979 -3.364811 1.000000
vt 0.000000 0.000000
vt 0.000000 0.000000
vt 0.000000 0.000000
vt 0.000000 0.000000
vt 0.000000 0.000000
vt 1.000000 0.000000
vt 0.000000 0.000000
vt 0.000000 0.000000
vt 0.000000 0.000000
vt 1.000000 0.000000
vt 0.000000 0.000000
vt 0.000000 0.000000
vn 0.0000 0.0000 -1.0000
vn 0.0000 0.0000 1.0000
vn 0.0276 0.9996 0.0000
vn 0.9994 0.0346 0.0000
vn -0.9997 0.0240 0.0000
vn 0.9999 0.0127 0.0000
vn -0.9998 0.0181 0.0000
vn 0.0148 -0.9999 0.0000
usemtl None
s off
f 75/73/37 76/74/37 73/75/37
f 81/76/38 83/77/38 80/78/38
f 78/79/39 83/77/39 77/80/39
f 75/73/40 82/81/40 76/74/40
f 74/82/41 84/83/41 78/79/41
f 77/80/42 81/76/42 75/73/42
f 73/75/43 80/78/43 74/82/43
f 76/74/44 79/84/44 73/75/44
f 73/75/37 74/82/37 75/73/37
f 74/82/37 78/79/37 77/80/37
f 75/73/37 74/82/37 77/80/37
f 84/83/38 80/78/38 83/77/38
f 80/78/38 79/84/38 81/76/38
f 79/84/38 82/81/38 81/76/38
f 78/79/39 84/83/39 83/77/39
f 75/73/40 81/76/40 82/81/40
f 74/82/41 80/78/41 84/83/41
f 77/80/42 83/77/42 81/76/42
f 73/75/43 79/84/43 80/78/43
f 76/74/44 82/81/44 79/84/44
