# Blender v3.6.1 OBJ File: ''
# www.blender.org
mtllib sajay_obstacles.mtl
o obstacles_Plane
v -3.661439 -4.932559 1.500000
v -3.675564 -3.138611 1.500000
v -4.491841 -4.847806 1.500000
v -5.127492 -3.308118 1.500000
v 2.271301 4.169959 1.500000
v 2.271301 4.881708 1.500000
v 0.471414 4.158188 1.500000
v 0.471414 4.869937 1.500000
v -0.238813 7.145746 1.500000
v -0.203499 8.068436 1.500000
v -2.238813 7.145746 1.500000
v -2.203499 8.068436 1.500000
v -3.576685 -6.980767 1.500000
v -4.407088 -6.896014 1.500000
v -3.562560 -7.814177 1.500000
v -4.392962 -7.729423 1.500000
v 2.864575 -6.783010 1.500000
v 2.878701 -7.616418 1.500000
v 3.782738 -6.811261 1.500000
v 3.796864 -7.644670 1.500000
v 2.737445 -2.912602 1.500000
v 3.655608 -2.940853 1.500000
v 2.638566 4.093683 1.500000
v 3.556729 4.065432 1.500000
v 2.638566 4.884715 1.500000
v 3.556729 4.856463 1.500000
v -0.022981 4.146417 1.500000
v -0.022981 4.858166 1.500000
v 0.518499 7.130029 1.500000
v 0.024104 7.118258 1.500000
v 0.506728 8.071733 1.500000
v 0.012333 8.059962 1.500000
v -4.557761 7.145746 1.500000
v -4.522447 8.068436 1.500000
v -5.292291 7.216374 1.500000
v -5.256977 8.139064 1.500000
v -5.085115 -2.743095 1.500000
v -4.477715 -2.644216 1.500000
v -3.647313 -2.728970 1.500000
v -4.520092 -3.209239 1.500000
v -0.850450 -3.110360 1.500000
v -0.822199 -2.700718 1.500000
v -0.878701 -0.525380 1.500000
v -0.158297 -0.497129 1.500000
v -0.073543 -3.053858 1.500000
v -0.497311 1.471976 1.500000
v -0.525562 2.525562 1.500000
v -2.624441 1.415474 1.500000
v -2.652692 2.469060 1.500000
v -2.695069 3.768613 1.500000
v -0.567939 3.825115 1.500000
v -3.373096 2.483186 1.500000
v -3.415473 3.782738 1.500000
v 2.737445 -2.036817 1.500000
v 3.655608 -2.065068 1.500000
v 2.737445 -2.036817 1.500000
v 3.655608 -2.065068 1.500000
v 0.618609 -3.082109 1.500000
v 0.618609 -2.206324 1.500000
v -0.751571 0.144171 1.500000
v -0.765697 0.533856 1.500000
v -2.695069 0.115920 1.500000
v -2.709194 0.505605 1.500000
v -4.520092 -3.209239 1.500000
v -3.661439 -4.932559 1.500000
v -4.491841 -4.847806 1.500000
v -3.675564 -3.138611 1.500000
v -4.491841 -4.847806 -1.500000
v -3.661439 -4.932559 -1.500000
v -4.520092 -3.209239 -1.500000
v -3.675564 -3.138611 -1.500000
v -4.477715 -2.644216 -1.500000
v -5.085115 -2.743095 -1.500000
v -5.127492 -3.308118 -1.500000
v 2.271301 4.169959 -1.500000
v 2.271301 4.881708 -1.500000
v 0.471414 4.869937 -1.500000
v 0.471414 4.158188 -1.500000
v -0.238813 7.145746 -1.500000
v -0.203499 8.068436 -1.500000
v -2.203499 8.068436 -1.500000
v -2.238813 7.145746 -1.500000
v -4.407088 -6.896014 -1.500000
v -3.576685 -6.980767 -1.500000
v -4.392962 -7.729423 -1.500000
v -3.562560 -7.814177 -1.500000
v 2.878701 -7.616418 -1.500000
v 2.864575 -6.783010 -1.500000
v 3.796864 -7.644670 -1.500000
v 3.782738 -6.811261 -1.500000
v 3.655608 -2.940853 -1.500000
v 2.737445 -2.912602 -1.500000
v 3.556729 4.065432 -1.500000
v 2.638566 4.093683 -1.500000
v 2.737445 -2.036817 -1.500000
v 3.655608 -2.065068 -1.500000
v 3.556729 4.856463 -1.500000
v 2.638566 4.884715 -1.500000
v -0.022981 4.858166 -1.500000
v -0.022981 4.146417 -1.500000
v 0.518499 7.130029 -1.500000
v 0.024104 7.118258 -1.500000
v 0.506728 8.071733 -1.500000
v 0.012333 8.059962 -1.500000
v -4.522447 8.068436 -1.500000
v -4.557761 7.145746 -1.500000
v -5.256977 8.139064 -1.500000
v -5.292291 7.216374 -1.500000
v -3.647313 -2.728970 -1.500000
v -0.850450 -3.110360 -1.500000
v -0.822199 -2.700718 -1.500000
v -0.878701 -0.525380 -1.500000
v -0.158297 -0.497129 -1.500000
v -0.073543 -3.053858 -1.500000
v -2.624441 1.415474 -1.500000
v -0.497311 1.471976 -1.500000
v -0.525562 2.525562 -1.500000
v -2.652692 2.469060 -1.500000
v -0.567939 3.825115 -1.500000
v -2.695069 3.768613 -1.500000
v -3.415473 3.782738 -1.500000
v -3.373096 2.483186 -1.500000
v 3.655608 -2.065068 -1.500000
v 2.737445 -2.036817 -1.500000
v 0.618609 -2.206324 -1.500000
v 0.618609 -3.082109 -1.500000
v -2.695069 0.115920 -1.500000
v -0.751571 0.144171 -1.500000
v -0.765697 0.533856 -1.500000
v -2.709194 0.505605 -1.500000
v -4.520092 -3.209239 -1.500000
v -4.491841 -4.847806 -1.500000
v -3.661439 -4.932559 -1.500000
v -3.675564 -3.138611 -1.500000
vt 0.000000 1.000000
vt 0.000000 1.000000
vt 0.000000 1.000000
vt 0.000000 0.000000
vt 0.000000 1.000000
vt 0.000000 1.000000
vt 0.000000 0.000000
vt 0.000000 1.000000
vt 0.000000 0.000000
vt 0.000000 0.000000
vt 0.000000 0.000000
vt 0.000000 0.000000
vt 0.000000 0.000000
vt 0.000000 0.000000
vt 0.000000 0.000000
vt 0.000000 0.000000
vt 0.000000 0.000000
vt 0.000000 0.000000
vt 0.000000 0.000000
vt 0.000000 0.000000
vt 0.000000 1.000000
vt 1.000000 1.000000
vt 1.000000 1.000000
vt 1.000000 1.000000
vt 1.000000 1.000000
vt 1.000000 1.000000
vt 0.000000 0.000000
vt 0.000000 1.000000
vt 1.000000 1.000000
vt 1.000000 1.000000
vt 0.000000 1.000000
vt 0.000000 1.000000
vt 0.000000 0.000000
vt 0.000000 0.000000
vt 0.000000 0.000000
vt 0.000000 0.000000
vt 0.000000 0.000000
vt 0.000000 0.000000
vt 0.000000 0.000000
vt 0.000000 1.000000
vt 1.000000 0.000000
vt 0.000000 0.000000
vt 1.000000 1.000000
vt 1.000000 0.000000
vt 1.000000 1.000000
vt 1.000000 1.000000
vt 0.000000 0.000000
vt 0.000000 0.000000
vt 0.000000 0.000000
vt 0.000000 1.000000
vt 1.000000 0.000000
vt 0.000000 0.000000
vt 0.000000 0.000000
vt 0.000000 1.000000
vt 0.000000 0.000000
vt 0.000000 0.000000
vt 0.000000 0.000000
vt 0.000000 1.000000
vt 0.000000 1.000000
vt 0.000000 1.000000
vt 0.000000 0.000000
vt 0.000000 1.000000
vt 0.000000 0.000000
vt 0.000000 1.000000
vt 0.000000 0.000000
vt 0.000000 0.000000
vt 0.000000 0.000000
vt 0.000000 0.000000
vt 0.000000 0.000000
vt 0.000000 0.000000
vt 0.000000 0.000000
vt 0.000000 0.000000
vt 0.000000 0.000000
vt 0.000000 0.000000
vt 0.000000 0.000000
vt 0.000000 0.000000
vt 1.000000 0.000000
vt 0.000000 1.000000
vt 1.000000 1.000000
vt 0.000000 1.000000
vt 1.000000 1.000000
vt 1.000000 1.000000
vt 1.000000 1.000000
vt 1.000000 1.000000
vt 0.000000 0.000000
vt 1.000000 0.000000
vt 0.000000 1.000000
vt 1.000000 1.000000
vt 0.000000 1.000000
vt 0.000000 1.000000
vt 0.000000 0.000000
vt 0.000000 0.000000
vt 0.000000 1.000000
vt 0.000000 0.000000
vt 0.000000 0.000000
vt 0.000000 0.000000
vt 0.000000 0.000000
vt 0.000000 0.000000
vt 1.000000 0.000000
vt 0.000000 1.000000
vt 0.000000 0.000000
vt 1.000000 1.000000
vt 1.000000 0.000000
vt 1.000000 1.000000
vt 1.000000 1.000000
vt 0.000000 0.000000
vt 0.000000 0.000000
vt 0.000000 0.000000
vt 0.000000 0.000000
vt 1.000000 0.000000
vt 0.000000 1.000000
vt 0.000000 0.000000
vt 0.000000 0.000000
vt 0.000000 1.000000
vt 0.000000 1.000000
vt 0.000000 0.000000
vt 0.000000 0.000000
vt 0.000000 0.000000
vt 0.000000 0.000000
vt 0.000000 0.000000
vt 0.000000 0.000000
vt 0.000000 0.000000
vt 0.000000 1.000000
vt 0.000000 1.000000
vt 1.000000 1.000000
vt 1.000000 1.000000
vt 1.000000 0.000000
vt 0.000000 0.000000
vt 0.000000 0.000000
vt 1.000000 1.000000
vt 1.000000 1.000000
vt 1.000000 1.000000
vt 1.000000 1.000000
vt 1.000000 1.000000
vt 0.000000 1.000000
vt 0.000000 0.000000
vt 0.000000 0.000000
vt 0.000000 0.000000
vt 1.000000 0.000000
vt 0.000000 1.000000
vt 1.000000 1.000000
vt 1.000000 1.000000
vn 0.0000 0.0000 -1.0000
vn 0.0000 0.0000 1.0000
vn -0.9999 -0.0172 0.0000
vn -0.9995 -0.0331 0.0000
vn 0.9998 -0.0208 0.0000
vn -0.9991 -0.0413 0.0000
vn -0.1015 -0.9948 0.0000
vn -0.0725 0.9974 0.0000
vn -0.9998 0.0208 0.0000
vn 0.9991 0.0413 0.0000
vn -0.0833 0.9965 0.0000
vn -0.0266 0.9996 0.0000
vn 0.0238 -0.9997 0.0000
vn 0.1015 0.9948 0.0000
vn 1.0000 0.0079 0.0000
vn -0.9996 -0.0268 0.0000
vn -0.9999 -0.0125 0.0000
vn 0.9999 0.0169 0.0000
vn 0.9996 0.0268 0.0000
vn 0.1040 0.9946 0.0000
vn -0.9995 -0.0326 0.0000
vn -0.0392 -0.9992 0.0000
vn 0.0307 -0.9995 0.0000
vn 0.0266 -0.9996 0.0000
vn -0.0307 0.9995 0.0000
vn 0.0000 1.0000 0.0000
vn -0.9999 -0.0169 0.0000
vn 0.9995 0.0326 0.0000
vn 0.0000 -1.0000 0.0000
vn 0.0196 0.9998 0.0000
vn 0.9993 -0.0382 0.0000
vn 0.0308 0.9995 0.0000
vn -0.0196 -0.9998 0.0000
vn -1.0000 0.0000 0.0000
vn -0.0957 -0.9954 0.0000
vn 0.9995 0.0328 0.0000
vn 0.9972 -0.0748 0.0000
vn -0.9995 -0.0328 0.0000
vn -0.9999 -0.0161 0.0000
vn 0.9999 0.0172 0.0000
vn 0.9999 0.0161 0.0000
vn -0.0308 -0.9995 0.0000
vn 1.0000 0.0000 0.0000
vn -1.0000 -0.0079 0.0000
vn -0.0797 0.9968 0.0000
vn -1.0000 -0.0082 0.0000
vn 0.0797 -0.9968 0.0000
vn 0.9998 0.0208 0.0000
vn 0.2033 0.9791 0.0000
vn -0.1607 0.9870 0.0000
vn -0.0145 0.9999 0.0000
vn 0.0082 -1.0000 0.0000
vn -0.9993 -0.0362 0.0000
vn 0.0100 -0.9999 0.0000
vn 0.0145 -0.9999 0.0000
vn -0.0100 0.9999 0.0000
vn -0.0238 0.9997 0.0000
vn 0.9993 0.0362 0.0000
vn 0.9997 0.0260 0.0000
vn -0.9993 0.0382 0.0000
vn 0.0392 -0.9992 0.0000
usemtl None
s off
f 40/1/1 37/2/1 38/3/1
f 1/4/1 14/5/1 3/6/1
f 13/7/1 16/8/1 14/5/1
f 13/7/1 18/9/1 15/10/1
f 19/11/1 18/9/1 17/12/1
f 17/12/1 22/13/1 19/11/1
f 21/14/1 55/15/1 22/13/1
f 23/16/1 26/17/1 24/18/1
f 5/19/1 25/20/1 23/16/1
f 7/21/1 28/22/1 8/23/1
f 30/24/1 8/23/1 28/22/1
f 32/25/1 29/26/1 30/24/1
f 9/27/1 32/25/1 30/24/1
f 11/28/1 34/29/1 12/30/1
f 35/31/1 34/29/1 33/32/1
f 67/33/2 40/1/2 2/34/2
f 38/3/1 2/34/1 40/1/1
f 38/3/1 35/31/1 33/32/1
f 39/35/1 41/36/1 2/34/1
f 42/37/1 43/38/1 44/39/1
f 48/40/1 47/41/1 46/42/1
f 49/43/1 51/44/1 47/41/1
f 52/45/1 50/46/1 49/43/1
f 56/47/2 55/15/2 54/48/2
f 24/18/1 56/47/1 23/16/1
f 21/14/1 59/49/1 54/48/1
f 62/50/1 61/51/1 60/52/1
f 65/53/2 2/34/2 1/4/2
f 66/54/2 1/4/2 3/6/2
f 64/55/2 3/56/2 40/57/2
f 70/58/2 73/59/2 74/60/2
f 69/61/2 83/62/2 84/63/2
f 84/63/2 85/64/2 86/65/2
f 84/63/2 87/66/2 88/67/2
f 87/66/2 90/68/2 88/67/2
f 88/67/2 91/69/2 92/70/2
f 92/70/2 96/71/2 95/72/2
f 94/73/2 97/74/2 98/75/2
f 75/76/2 98/75/2 76/77/2
f 78/78/2 99/79/2 100/80/2
f 77/81/2 102/82/2 99/79/2
f 101/83/2 104/84/2 102/82/2
f 79/85/2 104/84/2 80/86/2
f 82/87/2 105/88/2 106/89/2
f 105/88/2 108/90/2 106/89/2
f 70/58/2 134/91/2 71/92/2
f 71/92/2 72/93/2 70/58/2
f 72/93/2 108/90/2 73/59/2
f 109/94/2 110/95/2 111/96/2
f 113/97/2 112/98/2 111/96/2
f 117/99/2 115/100/2 116/101/2
f 118/102/2 119/103/2 120/104/2
f 120/104/2 122/105/2 118/102/2
f 96/71/2 124/106/2 95/72/2
f 124/106/2 93/107/2 94/73/2
f 92/70/2 125/108/2 126/109/2
f 129/110/2 127/111/2 128/112/2
f 71/92/2 133/113/2 69/61/2
f 69/61/2 132/114/2 68/115/2
f 68/116/2 131/117/2 70/118/2
f 64/55/3 132/119/3 66/120/3
f 44/39/4 114/121/4 45/122/4
f 28/22/5 102/82/5 30/24/5
f 1/4/6 84/63/6 13/7/6
f 66/54/7 133/113/7 65/53/7
f 45/122/8 110/95/8 41/36/8
f 29/26/9 77/81/9 8/23/9
f 14/5/10 68/115/10 3/6/10
f 67/33/11 131/123/11 64/124/11
f 46/42/12 115/100/12 48/40/12
f 32/25/13 103/125/13 31/126/13
f 15/10/14 85/64/14 16/8/14
f 65/53/15 134/91/15 67/33/15
f 47/41/16 116/101/16 46/42/16
f 31/126/17 101/83/17 29/26/17
f 16/8/18 83/62/18 14/5/18
f 48/40/19 118/102/19 49/43/19
f 30/24/20 79/85/20 9/27/20
f 51/44/21 117/99/21 47/41/21
f 10/127/22 104/84/22 32/25/22
f 13/7/23 88/67/23 17/12/23
f 50/46/24 119/103/24 51/44/24
f 18/9/25 86/65/25 15/10/25
f 11/28/26 106/89/26 33/32/26
f 19/11/27 89/128/27 20/129/27
f 52/45/28 121/130/28 53/131/28
f 34/29/29 81/132/29 12/30/29
f 49/43/30 122/105/30 52/45/30
f 35/31/31 107/133/31 36/134/31
f 20/129/32 87/66/32 18/9/32
f 53/131/33 120/104/33 50/46/33
f 55/15/34 91/69/34 22/13/34
f 36/134/35 105/88/35 34/29/35
f 17/12/36 92/70/36 21/14/36
f 4/135/37 73/59/37 37/2/37
f 22/13/38 90/68/38 19/11/38
f 54/48/2 124/106/2 56/47/2
f 57/136/2 96/71/2 55/15/2
f 38/3/7 109/94/7 39/35/7
f 24/18/39 123/137/39 57/136/39
f 3/56/40 70/118/40 40/57/40
f 56/47/41 94/73/41 23/16/41
f 25/20/42 97/74/42 26/17/42
f 58/138/43 125/108/43 59/49/43
f 2/34/44 69/61/44 1/4/44
f 21/14/45 126/109/45 58/138/45
f 33/32/46 72/93/46 38/3/46
f 26/17/34 93/107/34 24/18/34
f 59/49/47 95/72/47 54/48/47
f 37/2/48 108/90/48 35/31/48
f 23/16/49 75/76/49 5/19/49
f 40/1/50 74/60/50 4/135/50
f 60/52/51 127/111/51 62/50/51
f 6/139/52 98/75/52 25/20/52
f 5/19/43 76/77/43 6/139/43
f 61/51/53 128/112/53 60/52/53
f 39/35/54 111/96/54 42/37/54
f 27/140/43 99/79/43 28/22/43
f 8/23/34 78/78/34 7/21/34
f 63/141/55 129/110/55 61/51/55
f 41/36/56 71/92/56 2/34/56
f 7/21/57 100/80/57 27/140/57
f 9/27/31 80/86/31 10/127/31
f 62/50/58 130/142/58 63/141/58
f 42/37/59 112/98/59 43/38/59
f 12/30/60 82/87/60 11/28/60
f 43/38/61 113/97/61 44/39/61
f 40/1/1 4/135/1 37/2/1
f 1/4/1 13/7/1 14/5/1
f 13/7/1 15/10/1 16/8/1
f 13/7/1 17/12/1 18/9/1
f 19/11/1 20/129/1 18/9/1
f 17/12/1 21/14/1 22/13/1
f 21/14/1 54/48/1 55/15/1
f 23/16/1 25/20/1 26/17/1
f 5/19/1 6/139/1 25/20/1
f 7/21/1 27/140/1 28/22/1
f 30/24/1 29/26/1 8/23/1
f 32/25/1 31/126/1 29/26/1
f 9/27/1 10/127/1 32/25/1
f 11/28/1 33/32/1 34/29/1
f 35/31/1 36/134/1 34/29/1
f 67/33/2 64/124/2 40/1/2
f 38/3/1 39/35/1 2/34/1
f 38/3/1 37/2/1 35/31/1
f 39/35/1 42/37/1 41/36/1
f 44/39/1 45/122/1 42/37/1
f 45/122/1 41/36/1 42/37/1
f 48/40/1 49/43/1 47/41/1
f 49/43/1 50/46/1 51/44/1
f 52/45/1 53/131/1 50/46/1
f 56/47/2 57/136/2 55/15/2
f 24/18/1 57/136/1 56/47/1
f 21/14/1 58/138/1 59/49/1
f 62/50/1 63/141/1 61/51/1
f 65/53/2 67/33/2 2/34/2
f 66/54/2 65/53/2 1/4/2
f 64/55/2 66/120/2 3/56/2
f 70/58/2 72/93/2 73/59/2
f 69/61/2 68/115/2 83/62/2
f 84/63/2 83/62/2 85/64/2
f 84/63/2 86/65/2 87/66/2
f 87/66/2 89/128/2 90/68/2
f 88/67/2 90/68/2 91/69/2
f 92/70/2 91/69/2 96/71/2
f 94/73/2 93/107/2 97/74/2
f 75/76/2 94/73/2 98/75/2
f 78/78/2 77/81/2 99/79/2
f 77/81/2 101/83/2 102/82/2
f 101/83/2 103/125/2 104/84/2
f 79/85/2 102/82/2 104/84/2
f 82/87/2 81/132/2 105/88/2
f 105/88/2 107/133/2 108/90/2
f 70/58/2 131/123/2 134/91/2
f 71/92/2 109/94/2 72/93/2
f 72/93/2 106/89/2 108/90/2
f 109/94/2 71/92/2 110/95/2
f 110/95/2 114/121/2 111/96/2
f 114/121/2 113/97/2 111/96/2
f 117/99/2 118/102/2 115/100/2
f 118/102/2 117/99/2 119/103/2
f 120/104/2 121/130/2 122/105/2
f 96/71/2 123/137/2 124/106/2
f 124/106/2 123/137/2 93/107/2
f 92/70/2 95/72/2 125/108/2
f 129/110/2 130/142/2 127/111/2
f 71/92/2 134/91/2 133/113/2
f 69/61/2 133/113/2 132/114/2
f 68/116/2 132/119/2 131/117/2
f 64/55/3 131/117/3 132/119/3
f 44/39/4 113/97/4 114/121/4
f 28/22/5 99/79/5 102/82/5
f 1/4/6 69/61/6 84/63/6
f 66/54/7 132/114/7 133/113/7
f 45/122/8 114/121/8 110/95/8
f 29/26/9 101/83/9 77/81/9
f 14/5/10 83/62/10 68/115/10
f 67/33/11 134/91/11 131/123/11
f 46/42/12 116/101/12 115/100/12
f 32/25/13 104/84/13 103/125/13
f 15/10/14 86/65/14 85/64/14
f 65/53/15 133/113/15 134/91/15
f 47/41/16 117/99/16 116/101/16
f 31/126/17 103/125/17 101/83/17
f 16/8/18 85/64/18 83/62/18
f 48/40/19 115/100/19 118/102/19
f 30/24/20 102/82/20 79/85/20
f 51/44/21 119/103/21 117/99/21
f 10/127/22 80/86/22 104/84/22
f 13/7/23 84/63/23 88/67/23
f 50/46/24 120/104/24 119/103/24
f 18/9/25 87/66/25 86/65/25
f 11/28/26 82/87/26 106/89/26
f 19/11/27 90/68/27 89/128/27
f 52/45/28 122/105/28 121/130/28
f 34/29/29 105/88/29 81/132/29
f 49/43/30 118/102/30 122/105/30
f 35/31/31 108/90/31 107/133/31
f 20/129/32 89/128/32 87/66/32
f 53/131/33 121/130/33 120/104/33
f 55/15/34 96/71/34 91/69/34
f 36/134/35 107/133/35 105/88/35
f 17/12/36 88/67/36 92/70/36
f 4/135/37 74/60/37 73/59/37
f 22/13/38 91/69/38 90/68/38
f 54/48/2 95/72/2 124/106/2
f 57/136/2 123/137/2 96/71/2
f 38/3/7 72/93/7 109/94/7
f 24/18/39 93/107/39 123/137/39
f 3/56/40 68/116/40 70/118/40
f 56/47/41 124/106/41 94/73/41
f 25/20/42 98/75/42 97/74/42
f 58/138/43 126/109/43 125/108/43
f 2/34/44 71/92/44 69/61/44
f 21/14/45 92/70/45 126/109/45
f 33/32/46 106/89/46 72/93/46
f 26/17/34 97/74/34 93/107/34
f 59/49/47 125/108/47 95/72/47
f 37/2/48 73/59/48 108/90/48
f 23/16/49 94/73/49 75/76/49
f 40/1/50 70/58/50 74/60/50
f 60/52/51 128/112/51 127/111/51
f 6/139/52 76/77/52 98/75/52
f 5/19/43 75/76/43 76/77/43
f 61/51/53 129/110/53 128/112/53
f 39/35/54 109/94/54 111/96/54
f 27/140/43 100/80/43 99/79/43
f 8/23/34 77/81/34 78/78/34
f 63/141/55 130/142/55 129/110/55
f 41/36/56 110/95/56 71/92/56
f 7/21/57 78/78/57 100/80/57
f 9/27/31 79/85/31 80/86/31
f 62/50/58 127/111/58 130/142/58
f 42/37/59 111/96/59 112/98/59
f 12/30/60 81/132/60 82/87/60
f 43/38/61 112/98/61 113/97/61
o outside_door
v -4.520092 -3.209239 1.500000
v -3.661439 -4.932559 1.500000
v -4.491841 -4.847806 1.500000
v -3.675564 -3.138611 1.500000
v -4.520092 -3.209239 -1.500000
v -4.491841 -4.847806 -1.500000
v -3.661439 -4.932559 -1.500000
v -3.675564 -3.138611 -1.500000
vt 0.000000 1.000000
vt 0.000000 0.000000
vt 0.000000 0.000000
vt 0.000000 1.000000
vt 0.000000 0.000000
vt 0.000000 1.000000
vt 0.000000 0.000000
vt 0.000000 1.000000
vn 0.0000 0.0000 -1.0000
vn 0.0000 0.0000 1.0000
vn -1.0000 -0.0079 0.0000
vn 0.1015 0.9948 0.0000
vn 0.0833 -0.9965 0.0000
vn 0.9999 0.0172 0.0000
usemtl None
s off
f 137/143/62 138/144/62 136/145/62
f 140/146/63 142/147/63 139/148/63
f 138/144/64 141/149/64 136/145/64
f 136/145/65 140/146/65 137/143/65
f 135/150/66 142/147/66 138/144/66
f 137/143/67 139/148/67 135/150/67
f 137/143/62 135/150/62 138/144/62
f 140/146/63 141/149/63 142/147/63
f 138/144/64 142/147/64 141/149/64
f 136/145/65 141/149/65 140/146/65
f 135/150/66 139/148/66 142/147/66
f 137/143/67 140/146/67 139/148/67
o bathroom_door
v 2.271301 4.169959 1.500000
v 2.271301 4.881708 1.500000
v 0.471414 4.158188 1.500000
v 0.471414 4.869937 1.500000
v 0.471414 4.158188 -1.500000
v 2.271301 4.169959 -1.500000
v 2.271301 4.881708 -1.500000
v 0.471414 4.869937 -1.500000
vt 0.000000 0.000000
vt 1.000000 1.000000
vt 1.000000 0.000000
vt 0.000000 0.000000
vt 1.000000 1.000000
vt 0.000000 1.000000
vt 0.000000 1.000000
vt 1.000000 0.000000
vn 0.0000 0.0000 -1.0000
vn 0.0000 0.0000 1.0000
vn -0.0065 1.0000 0.0000
vn 1.0000 0.0000 0.0000
vn -1.0000 0.0000 0.0000
vn 0.0065 -1.0000 0.0000
usemtl None
s off
f 143/151/68 146/152/68 144/153/68
f 148/154/69 150/155/69 147/156/69
f 143/151/70 147/156/70 145/157/70
f 145/157/71 150/155/71 146/152/71
f 144/153/72 148/154/72 143/151/72
f 146/152/73 149/158/73 144/153/73
f 143/151/68 145/157/68 146/152/68
f 148/154/69 149/158/69 150/155/69
f 143/151/70 148/154/70 147/156/70
f 145/157/71 147/156/71 150/155/71
f 144/153/72 149/158/72 148/154/72
f 146/152/73 150/155/73 149/158/73
o bedroom_door
v -0.238813 7.145746 1.500000
v -0.203499 8.068436 1.500000
v -2.238813 7.145746 1.500000
v -2.203499 8.068436 1.500000
v -2.238813 7.145746 -1.500000
v -0.238813 7.145746 -1.500000
v -0.203499 8.068436 -1.500000
v -2.203499 8.068436 -1.500000
vt 0.000000 0.000000
vt 1.000000 1.000000
vt 1.000000 0.000000
vt 0.000000 0.000000
vt 1.000000 1.000000
vt 0.000000 1.000000
vt 1.000000 0.000000
vt 0.000000 1.000000
vn 0.0000 0.0000 -1.0000
vn 0.0000 0.0000 1.0000
vn 0.0000 -1.0000 0.0000
vn 0.0000 1.0000 0.0000
vn 0.9993 -0.0382 0.0000
vn -0.9993 0.0382 0.0000
usemtl None
s off
f 151/159/74 154/160/74 152/161/74
f 156/162/75 158/163/75 155/164/75
f 154/160/76 157/165/76 152/161/76
f 151/159/77 155/164/77 153/166/77
f 153/166/78 158/163/78 154/160/78
f 152/161/79 156/162/79 151/159/79
f 151/159/74 153/166/74 154/160/74
f 156/162/75 157/165/75 158/163/75
f 154/160/76 158/163/76 157/165/76
f 151/159/77 156/162/77 155/164/77
f 153/166/78 155/164/78 158/163/78
f 152/161/79 157/165/79 156/162/79
