# Blender 4.2.1 LTS
# www.blender.org
mtllib collision.mtl
o bathroom
v 0.311742 -0.973981 1.480757
v 0.331339 -0.248894 1.480757
v 1.487560 -1.013175 1.480757
v 1.507157 -0.288088 1.480757
v 0.311742 -0.973981 -1.374988
v 0.331339 -0.248894 -1.374988
v 1.487560 -1.013175 -1.374988
v 1.507157 -0.288088 -1.374988
vn -0.0000 -0.0000 -1.0000
vn -0.0000 -0.0000 1.0000
vn -0.0333 -0.9994 -0.0000
vn 0.9996 -0.0270 -0.0000
vn 0.0333 0.9994 -0.0000
vn -0.9996 0.0270 -0.0000
vt 1.000000 1.000000
s 0
f 4/1/1 1/1/1 2/1/1
f 5/1/2 8/1/2 6/1/2
f 2/1/3 8/1/3 4/1/3
f 1/1/4 6/1/4 2/1/4
f 3/1/5 5/1/5 1/1/5
f 4/1/6 7/1/6 3/1/6
f 4/1/1 3/1/1 1/1/1
f 5/1/2 7/1/2 8/1/2
f 2/1/3 6/1/3 8/1/3
f 1/1/4 5/1/4 6/1/4
f 3/1/5 7/1/5 5/1/5
f 4/1/6 8/1/6 7/1/6
o bedroom
v -3.156920 -0.973981 1.480757
v -3.137323 -0.248894 1.480757
v -1.961505 -0.915190 1.480757
v -1.941908 -0.190103 1.480757
v -3.156920 -0.973981 -1.374988
v -3.137323 -0.248894 -1.374988
v -1.961505 -0.915190 -1.374988
v -1.941908 -0.190103 -1.374988
vn -0.0000 -0.0000 -1.0000
vn -0.0000 -0.0000 1.0000
vn 0.0491 -0.9988 -0.0000
vn 0.9996 -0.0270 -0.0000
vn -0.0491 0.9988 -0.0000
vn -0.9996 0.0270 -0.0000
vt 1.000000 1.000000
s 0
f 10/2/7 11/2/7 9/2/7
f 14/2/8 15/2/8 16/2/8
f 10/2/9 16/2/9 12/2/9
f 9/2/10 14/2/10 10/2/10
f 11/2/11 13/2/11 9/2/11
f 12/2/12 15/2/12 11/2/12
f 10/2/7 12/2/7 11/2/7
f 14/2/8 13/2/8 15/2/8
f 10/2/9 14/2/9 16/2/9
f 9/2/10 13/2/10 14/2/10
f 11/2/11 15/2/11 13/2/11
f 12/2/12 16/2/12 15/2/12
o main_door
v 2.702571 -0.386072 1.480757
v 1.938290 -0.346878 1.480757
v 2.722168 1.005312 1.480757
v 1.957887 1.044506 1.480757
v 2.702571 -0.386072 -1.374988
v 1.938290 -0.346878 -1.374988
v 2.722168 1.005312 -1.374988
v 1.957887 1.044506 -1.374988
vn -0.0000 -0.0000 -1.0000
vn -0.0000 -0.0000 1.0000
vn 0.9999 -0.0141 -0.0000
vn 0.0512 0.9987 -0.0000
vn -0.9999 0.0141 -0.0000
vn -0.0512 -0.9987 -0.0000
vt 1.000000 1.000000
s 0
f 18/3/13 19/3/13 17/3/13
f 22/3/14 23/3/14 24/3/14
f 18/3/15 24/3/15 20/3/15
f 17/3/16 22/3/16 18/3/16
f 19/3/17 21/3/17 17/3/17
f 20/3/18 23/3/18 19/3/18
f 18/3/13 20/3/13 19/3/13
f 22/3/14 21/3/14 23/3/14
f 18/3/15 22/3/15 24/3/15
f 17/3/16 21/3/16 22/3/16
f 19/3/17 23/3/17 21/3/17
f 20/3/18 24/3/18 23/3/18
o obstacles
v -1.921201 -5.477808 1.480757
v -1.921201 -4.677808 1.480757
v -3.921201 -5.477808 1.480757
v -3.921201 -4.677808 1.480757
v -5.586944 -5.477808 1.480757
v -5.586944 -4.677808 1.480757
v -6.214046 -5.477808 1.480757
v -6.214046 -4.677808 1.480757
v -5.528152 -1.405115 1.480757
v -6.155255 -1.405115 1.480757
v -5.508555 -0.680027 1.480757
v -6.135658 -0.680027 1.480757
v -7.644625 -0.542848 1.480756
v -7.625028 0.182240 1.480756
v -8.232533 -0.190103 1.480756
v -8.212936 0.534985 1.480756
v -7.566236 3.572514 1.480756
v -8.154145 3.925260 1.480756
v -7.605431 4.571960 1.480756
v -8.193339 4.924705 1.480756
v 1.977484 3.435336 1.480757
v 1.938290 4.434781 1.480757
v 2.643781 3.415739 1.480757
v 2.604587 4.415184 1.480757
v 1.997081 6.002538 1.480757
v 2.663378 5.982941 1.480757
v 1.957887 6.727626 1.480757
v 2.624183 6.708029 1.480757
v 4.995416 6.041732 1.480757
v 4.956222 6.766819 1.480757
v 5.936069 6.041732 1.480757
v 5.896875 6.766819 1.480757
v 5.230579 -6.500325 1.480757
v 6.171233 -6.500325 1.480757
v 5.171788 -7.284204 1.480757
v 6.112442 -7.284204 1.480757
v 2.937735 -6.402340 1.480757
v 2.878944 -7.186219 1.480757
v 2.173454 -6.363147 1.480757
v 2.114662 -7.147025 1.480757
v 2.937735 -5.912416 1.480757
v 2.173454 -5.873222 1.480757
v 2.918138 -4.932568 1.480757
v 2.153857 -4.893374 1.480757
v 2.722168 -1.130757 1.480757
v 1.957887 -1.091563 1.480757
v 2.702571 -0.386072 1.480757
v 1.938290 -0.346878 1.480757
v 2.722168 1.005312 1.480757
v 1.957887 1.044506 1.480757
v -3.156920 -0.973981 1.480757
v -3.137323 -0.248894 1.480757
v -1.961505 -0.915190 1.480757
v -1.941908 -0.190103 1.480757
v -1.254905 -5.458211 1.480757
v -1.431277 -4.638614 1.480757
v -1.901605 -3.756751 1.480757
v -1.411680 -3.717556 1.480757
v 2.859347 -3.913526 1.480757
v 2.095066 -3.874332 1.480757
v 2.780959 -3.070857 1.480757
v 2.016678 -3.031663 1.480757
v 0.311742 -0.973981 1.480757
v 0.331339 -0.248894 1.480757
v 1.487560 -1.013175 1.480757
v 1.507157 -0.288088 1.480757
v 0.332449 -4.638614 1.480757
v 0.352046 -3.717556 1.480757
v -1.412790 -0.915190 1.480757
v -1.393193 -0.190103 1.480757
v -3.921201 -5.477808 -1.374988
v -1.921201 -5.477808 -1.374988
v -1.921201 -4.677808 -1.374988
v -3.921201 -4.677808 -1.374988
v -5.586944 -4.677808 -1.374988
v -5.586944 -5.477808 -1.374988
v -6.214046 -4.677808 -1.374988
v -6.214046 -5.477808 -1.374988
v -5.528152 -1.405115 -1.374988
v -6.155255 -1.405115 -1.374988
v -5.508555 -0.680027 -1.374988
v -6.135658 -0.680027 -1.374988
v -7.625028 0.182240 -1.374989
v -7.644625 -0.542848 -1.374989
v -8.212936 0.534985 -1.374989
v -8.232533 -0.190103 -1.374989
v -7.566236 3.572514 -1.374989
v -8.154145 3.925260 -1.374989
v -7.605431 4.571960 -1.374989
v -8.193339 4.924705 -1.374989
v 1.977484 3.435336 -1.374988
v 1.938290 4.434781 -1.374988
v 2.643781 3.415739 -1.374988
v 2.604587 4.415184 -1.374988
v 2.663378 5.982941 -1.374988
v 1.997081 6.002538 -1.374988
v 2.624183 6.708029 -1.374988
v 1.957887 6.727626 -1.374988
v 4.995416 6.041732 -1.374988
v 4.956222 6.766819 -1.374988
v 5.936069 6.041732 -1.374987
v 5.896875 6.766819 -1.374987
v 5.230579 -6.500325 -1.374988
v 6.171233 -6.500325 -1.374987
v 5.171788 -7.284204 -1.374988
v 6.112442 -7.284204 -1.374987
v 2.937735 -6.402340 -1.374988
v 2.878944 -7.186219 -1.374988
v 2.173454 -6.363147 -1.374988
v 2.114662 -7.147025 -1.374988
v 2.937735 -5.912416 -1.374988
v 2.173454 -5.873222 -1.374988
v 2.918138 -4.932568 -1.374988
v 2.153857 -4.893374 -1.374988
v 2.722168 -1.130757 -1.374988
v 1.957887 -1.091563 -1.374988
v 2.095066 -3.874332 -1.374988
v 2.859347 -3.913526 -1.374988
v 2.702571 -0.386072 -1.374988
v 1.938290 -0.346878 -1.374988
v 2.722168 1.005312 -1.374988
v 1.957887 1.044506 -1.374988
v -3.156920 -0.973981 -1.374988
v -3.137323 -0.248894 -1.374988
v -1.961505 -0.915190 -1.374988
v -1.941908 -0.190103 -1.374988
v -1.254905 -5.458211 -1.374988
v -1.431277 -4.638614 -1.374988
v -1.411680 -3.717556 -1.374988
v -1.901605 -3.756751 -1.374988
v 0.352046 -3.717556 -1.374988
v 0.311742 -0.973981 -1.374988
v 0.331339 -0.248894 -1.374988
v 2.780959 -3.070857 -1.374988
v 2.016678 -3.031663 -1.374988
v 0.332449 -4.638614 -1.374988
v 1.487560 -1.013175 -1.374988
v 1.507157 -0.288088 -1.374988
v -1.412790 -0.915190 -1.374988
v -1.393193 -0.190103 -1.374988
vn -0.0000 -0.0000 -1.0000
vn -0.0000 -0.0000 1.0000
vn -0.0000 -1.0000 -0.0000
vn -0.0000 1.0000 -0.0000
vn -0.0512 -0.9987 -0.0000
vn 0.0252 -0.9997 -0.0000
vn 0.9996 -0.0270 -0.0000
vn -0.0252 0.9997 -0.0000
vn -0.1351 -0.9908 -0.0000
vn -0.9997 -0.0263 -0.0000
vn -0.9985 -0.0540 -0.0000
vn 0.5010 0.8654 -0.0000
vn 0.1644 0.9864 -0.0000
vn 0.0512 0.9987 -0.0000
vn -0.5010 -0.8654 -0.0000
vn 0.1385 0.9904 -0.0000
vn 1.0000 -0.0082 -0.0000
vn -0.9995 -0.0325 -0.0000
vn 0.5145 0.8575 -0.0000
vn -0.9996 0.0270 -0.0000
vn -0.9998 -0.0187 -0.0000
vn 0.1789 -0.9839 -0.0000
vn 0.9998 0.0187 -0.0000
vn 0.0341 0.9994 -0.0000
vn -0.1789 0.9839 -0.0000
vn 0.9998 -0.0173 -0.0000
vn -0.0341 -0.9994 -0.0000
vn -0.9972 0.0748 -0.0000
vn -0.9998 0.0173 -0.0000
vn -1.0000 -0.0004 -0.0000
vn -0.9776 -0.2104 -0.0000
vn -0.5145 -0.8575 -0.0000
vn 0.9998 0.0211 -0.0000
vn 0.9992 0.0392 -0.0000
vn -0.0294 0.9996 -0.0000
vn 0.0427 0.9991 -0.0000
vn -0.0427 -0.9991 -0.0000
vn 0.9998 -0.0213 -0.0000
vn 0.9972 -0.0748 -0.0000
vn -0.0144 -0.9999 -0.0000
vn 0.0144 0.9999 -0.0000
vn -0.0896 -0.9960 -0.0000
vn -0.9992 -0.0392 -0.0000
vn -0.9983 -0.0576 -0.0000
vn 1.0000 -0.0000 -0.0000
vn -1.0000 -0.0000 -0.0000
vn 0.9957 0.0926 -0.0000
vn 0.9993 -0.0375 -0.0000
vn -0.9957 -0.0926 -0.0000
vn 0.9998 0.0200 -0.0000
vn -0.9993 0.0375 -0.0000
vn -0.9995 -0.0303 -0.0000
vn -0.9998 -0.0200 -0.0000
vn -0.0294 -0.9996 -0.0000
vn 0.9998 -0.0180 -0.0000
vn 0.9995 0.0303 -0.0000
vn 0.9985 0.0540 -0.0000
vn -0.9998 0.0180 -0.0000
vt 0.000000 1.000000
vt 1.000000 0.000000
vt 0.000000 0.000000
vt 1.000000 1.000000
s 0
f 27/4/19 26/5/19 25/6/19
f 29/4/19 28/7/19 27/4/19
f 31/4/19 30/7/19 29/4/19
f 34/7/19 30/7/19 32/7/19
f 36/7/19 33/7/19 34/7/19
f 37/7/19 36/7/19 34/7/19
f 39/7/19 38/7/19 37/7/19
f 40/7/19 41/7/19 38/7/19
f 42/7/19 43/7/19 41/7/19
f 46/7/19 41/7/19 43/7/19
f 48/7/19 45/7/19 46/7/19
f 46/7/19 50/7/19 48/7/19
f 49/7/19 52/7/19 50/7/19
f 52/7/19 53/7/19 50/7/19
f 56/7/19 53/7/19 54/7/19
f 55/7/19 57/7/19 53/7/19
f 60/7/19 57/7/19 58/7/19
f 62/7/19 57/7/19 59/7/19
f 64/7/19 61/7/19 62/7/19
f 63/7/19 65/7/19 61/7/19
f 66/7/19 67/7/19 65/7/19
f 68/7/19 83/7/19 67/7/19
f 70/7/19 71/7/19 69/7/19
f 47/7/19 74/7/19 45/7/19
f 35/7/19 75/7/19 33/7/19
f 26/5/19 79/6/19 25/6/19
f 81/5/19 80/5/19 26/5/19
f 84/7/19 91/5/19 92/5/19
f 84/7/19 85/7/19 83/7/19
f 69/7/19 86/7/19 70/7/19
f 82/5/19 91/5/19 80/5/19
f 72/7/19 89/7/19 90/7/19
f 78/7/19 93/7/19 77/7/19
f 88/7/19 93/7/19 94/7/19
f 82/5/19 77/7/19 93/7/19
f 97/5/20 95/4/20 96/6/20
f 98/7/20 100/4/20 95/4/20
f 99/7/20 102/4/20 100/4/20
f 99/7/20 104/7/20 101/7/20
f 103/7/20 106/7/20 104/7/20
f 106/7/20 108/7/20 104/7/20
f 107/7/20 110/7/20 108/7/20
f 109/7/20 111/7/20 112/7/20
f 112/7/20 113/7/20 114/7/20
f 111/7/20 116/7/20 113/7/20
f 115/7/20 118/7/20 116/7/20
f 116/7/20 119/7/20 120/7/20
f 120/7/20 121/7/20 122/7/20
f 121/7/20 123/7/20 124/7/20
f 123/7/20 126/7/20 124/7/20
f 125/7/20 127/7/20 128/7/20
f 127/7/20 130/7/20 128/7/20
f 127/7/20 132/7/20 129/7/20
f 131/7/20 134/7/20 132/7/20
f 133/7/20 135/7/20 136/7/20
f 136/7/20 137/7/20 138/7/20
f 138/7/20 142/7/20 141/7/20
f 140/7/20 143/7/20 144/7/20
f 146/7/20 117/7/20 115/7/20
f 105/7/20 147/7/20 148/7/20
f 97/5/20 151/6/20 152/5/20
f 152/5/20 154/5/20 97/5/20
f 141/7/20 160/5/20 138/7/20
f 141/7/20 158/7/20 159/7/20
f 159/7/20 139/7/20 140/7/20
f 153/5/20 160/5/20 155/5/20
f 144/7/20 161/7/20 140/7/20
f 150/7/20 163/7/20 164/7/20
f 157/7/20 163/7/20 156/7/20
f 153/5/20 149/7/20 154/5/20
f 82/5/21 155/5/21 92/5/21
f 36/7/21 105/7/21 35/7/21
f 91/5/22 152/5/22 80/5/22
f 72/7/23 143/7/23 71/7/23
f 52/7/24 124/7/24 54/7/24
f 89/7/25 162/7/25 90/7/25
f 53/7/26 119/7/26 50/7/26
f 90/7/27 144/7/27 72/7/27
f 71/7/28 139/7/28 69/7/28
f 56/7/29 125/7/29 55/7/29
f 34/7/30 108/7/30 37/7/30
f 70/7/31 161/7/31 89/7/31
f 73/7/32 146/7/32 74/7/32
f 54/7/21 126/7/21 56/7/21
f 38/7/33 106/7/33 36/7/33
f 68/7/34 160/5/34 91/5/34
f 74/7/35 115/7/35 45/7/35
f 39/7/25 109/7/25 40/7/25
f 47/7/36 145/7/36 73/7/36
f 37/7/37 110/7/37 39/7/37
f 78/7/21 164/7/21 94/7/21
f 76/7/38 147/7/38 75/7/38
f 55/7/39 128/7/39 58/7/39
f 35/7/40 148/7/40 76/7/40
f 57/7/41 123/7/41 53/7/41
f 87/7/42 163/7/42 93/7/42
f 75/7/43 103/7/43 33/7/43
f 60/7/22 129/7/22 59/7/22
f 40/7/44 112/7/44 42/7/44
f 94/7/45 157/7/45 88/7/45
f 77/7/25 150/7/25 78/7/25
f 58/7/46 130/7/46 60/7/46
f 41/7/47 107/7/47 38/7/47
f 93/7/48 153/5/48 82/5/48
f 80/5/49 151/6/49 79/6/49
f 44/7/50 113/7/50 43/7/50
f 81/5/51 149/7/51 77/7/51
f 42/7/52 114/7/52 44/7/52
f 25/6/22 95/4/22 27/4/22
f 79/6/53 96/6/53 25/6/53
f 59/7/54 132/7/54 62/7/54
f 61/7/55 127/7/55 57/7/55
f 28/7/21 97/5/21 26/5/21
f 26/5/56 154/5/56 81/5/56
f 64/7/57 133/7/57 63/7/57
f 43/7/58 116/7/58 46/7/58
f 62/7/32 134/7/32 64/7/32
f 45/7/59 111/7/59 41/7/59
f 92/5/60 141/7/60 84/7/60
f 48/7/61 117/7/61 47/7/61
f 27/4/22 100/4/22 29/4/22
f 88/7/38 156/7/38 87/7/38
f 30/7/21 98/7/21 28/7/21
f 83/7/62 137/7/62 67/7/62
f 63/7/63 136/7/63 66/7/63
f 31/4/63 101/7/63 32/7/63
f 65/7/64 131/7/64 61/7/64
f 29/4/22 102/4/22 31/4/22
f 84/7/65 159/7/65 86/7/65
f 46/7/66 120/7/66 49/7/66
f 85/7/67 142/7/67 83/7/67
f 66/7/68 138/7/68 68/7/68
f 50/7/69 118/7/69 48/7/69
f 69/7/70 158/7/70 85/7/70
f 67/7/71 135/7/71 65/7/71
f 51/7/72 121/7/72 52/7/72
f 32/7/73 104/7/73 34/7/73
f 86/7/74 140/7/74 70/7/74
f 49/7/75 122/7/75 51/7/75
f 33/7/76 99/7/76 30/7/76
f 27/4/19 28/7/19 26/5/19
f 29/4/19 30/7/19 28/7/19
f 31/4/19 32/7/19 30/7/19
f 34/7/19 33/7/19 30/7/19
f 36/7/19 35/7/19 33/7/19
f 37/7/19 38/7/19 36/7/19
f 39/7/19 40/7/19 38/7/19
f 40/7/19 42/7/19 41/7/19
f 42/7/19 44/7/19 43/7/19
f 46/7/19 45/7/19 41/7/19
f 48/7/19 47/7/19 45/7/19
f 46/7/19 49/7/19 50/7/19
f 49/7/19 51/7/19 52/7/19
f 52/7/19 54/7/19 53/7/19
f 56/7/19 55/7/19 53/7/19
f 55/7/19 58/7/19 57/7/19
f 60/7/19 59/7/19 57/7/19
f 62/7/19 61/7/19 57/7/19
f 64/7/19 63/7/19 61/7/19
f 63/7/19 66/7/19 65/7/19
f 66/7/19 68/7/19 67/7/19
f 68/7/19 84/7/19 83/7/19
f 70/7/19 72/7/19 71/7/19
f 47/7/19 73/7/19 74/7/19
f 35/7/19 76/7/19 75/7/19
f 26/5/19 80/5/19 79/6/19
f 81/5/19 82/5/19 80/5/19
f 84/7/19 68/7/19 91/5/19
f 84/7/19 86/7/19 85/7/19
f 69/7/19 85/7/19 86/7/19
f 82/5/19 92/5/19 91/5/19
f 72/7/19 70/7/19 89/7/19
f 78/7/19 94/7/19 93/7/19
f 88/7/19 87/7/19 93/7/19
f 82/5/19 81/5/19 77/7/19
f 97/5/20 98/7/20 95/4/20
f 98/7/20 99/7/20 100/4/20
f 99/7/20 101/7/20 102/4/20
f 99/7/20 103/7/20 104/7/20
f 103/7/20 105/7/20 106/7/20
f 106/7/20 107/7/20 108/7/20
f 107/7/20 109/7/20 110/7/20
f 109/7/20 107/7/20 111/7/20
f 112/7/20 111/7/20 113/7/20
f 111/7/20 115/7/20 116/7/20
f 115/7/20 117/7/20 118/7/20
f 116/7/20 118/7/20 119/7/20
f 120/7/20 119/7/20 121/7/20
f 121/7/20 119/7/20 123/7/20
f 123/7/20 125/7/20 126/7/20
f 125/7/20 123/7/20 127/7/20
f 127/7/20 129/7/20 130/7/20
f 127/7/20 131/7/20 132/7/20
f 131/7/20 133/7/20 134/7/20
f 133/7/20 131/7/20 135/7/20
f 136/7/20 135/7/20 137/7/20
f 138/7/20 137/7/20 142/7/20
f 140/7/20 139/7/20 143/7/20
f 146/7/20 145/7/20 117/7/20
f 105/7/20 103/7/20 147/7/20
f 97/5/20 96/6/20 151/6/20
f 152/5/20 153/5/20 154/5/20
f 141/7/20 155/5/20 160/5/20
f 141/7/20 142/7/20 158/7/20
f 159/7/20 158/7/20 139/7/20
f 153/5/20 152/5/20 160/5/20
f 144/7/20 162/7/20 161/7/20
f 150/7/20 149/7/20 163/7/20
f 157/7/20 164/7/20 163/7/20
f 153/5/20 163/7/20 149/7/20
f 82/5/21 153/5/21 155/5/21
f 36/7/21 106/7/21 105/7/21
f 91/5/22 160/5/22 152/5/22
f 72/7/23 144/7/23 143/7/23
f 52/7/24 121/7/24 124/7/24
f 89/7/25 161/7/25 162/7/25
f 53/7/26 123/7/26 119/7/26
f 90/7/27 162/7/27 144/7/27
f 71/7/28 143/7/28 139/7/28
f 56/7/29 126/7/29 125/7/29
f 34/7/30 104/7/30 108/7/30
f 70/7/31 140/7/31 161/7/31
f 73/7/32 145/7/32 146/7/32
f 54/7/21 124/7/21 126/7/21
f 38/7/33 107/7/33 106/7/33
f 68/7/34 138/7/34 160/5/34
f 74/7/35 146/7/35 115/7/35
f 39/7/25 110/7/25 109/7/25
f 47/7/36 117/7/36 145/7/36
f 37/7/37 108/7/37 110/7/37
f 78/7/21 150/7/21 164/7/21
f 76/7/38 148/7/38 147/7/38
f 55/7/39 125/7/39 128/7/39
f 35/7/40 105/7/40 148/7/40
f 57/7/41 127/7/41 123/7/41
f 87/7/42 156/7/42 163/7/42
f 75/7/43 147/7/43 103/7/43
f 60/7/22 130/7/22 129/7/22
f 40/7/44 109/7/44 112/7/44
f 94/7/45 164/7/45 157/7/45
f 77/7/25 149/7/25 150/7/25
f 58/7/46 128/7/46 130/7/46
f 41/7/47 111/7/47 107/7/47
f 93/7/48 163/7/48 153/5/48
f 80/5/49 152/5/49 151/6/49
f 44/7/50 114/7/50 113/7/50
f 81/5/51 154/5/51 149/7/51
f 42/7/52 112/7/52 114/7/52
f 25/6/22 96/6/22 95/4/22
f 79/6/53 151/6/53 96/6/53
f 59/7/54 129/7/54 132/7/54
f 61/7/55 131/7/55 127/7/55
f 28/7/21 98/7/21 97/5/21
f 26/5/56 97/5/56 154/5/56
f 64/7/57 134/7/57 133/7/57
f 43/7/58 113/7/58 116/7/58
f 62/7/32 132/7/32 134/7/32
f 45/7/59 115/7/59 111/7/59
f 92/5/60 155/5/60 141/7/60
f 48/7/61 118/7/61 117/7/61
f 27/4/22 95/4/22 100/4/22
f 88/7/38 157/7/38 156/7/38
f 30/7/21 99/7/21 98/7/21
f 83/7/62 142/7/62 137/7/62
f 63/7/63 133/7/63 136/7/63
f 31/4/63 102/4/63 101/7/63
f 65/7/64 135/7/64 131/7/64
f 29/4/22 100/4/22 102/4/22
f 84/7/65 141/7/65 159/7/65
f 46/7/66 116/7/66 120/7/66
f 85/7/67 158/7/67 142/7/67
f 66/7/68 136/7/68 138/7/68
f 50/7/69 119/7/69 118/7/69
f 69/7/70 139/7/70 158/7/70
f 67/7/71 137/7/71 135/7/71
f 51/7/72 122/7/72 121/7/72
f 32/7/73 101/7/73 104/7/73
f 86/7/74 159/7/74 140/7/74
f 49/7/75 120/7/75 122/7/75
f 33/7/76 103/7/76 99/7/76
