# Blender 4.1.1
# www.blender.org
mtllib exter_blend_mesh_collision.mtl
o atelier
v 1.992632 -5.540072 1.600000
v 2.139086 -4.820007 1.600000
v 0.284003 -5.564481 1.600000
v 0.430457 -4.844416 1.600000
v 1.992632 -5.540072 -1.400000
v 2.139086 -4.820007 -1.400000
v 0.284003 -5.564481 -1.400000
v 0.430457 -4.844416 -1.400000
vn -0.0000 -0.0000 1.0000
vn -0.0000 -0.0000 -1.0000
vn 0.0143 -0.9999 -0.0000
vn -0.9799 0.1993 -0.0000
vn -0.0143 0.9999 -0.0000
vn 0.9799 -0.1993 -0.0000
vt 0.000000 0.000000
s 0
f 4/1/1 1/1/1 2/1/1
f 5/1/2 8/1/2 6/1/2
f 3/1/3 5/1/3 1/1/3
f 4/1/4 7/1/4 3/1/4
f 2/1/5 8/1/5 4/1/5
f 1/1/6 6/1/6 2/1/6
f 4/1/1 3/1/1 1/1/1
f 5/1/2 7/1/2 8/1/2
f 3/1/3 7/1/3 5/1/3
f 4/1/4 8/1/4 7/1/4
f 2/1/5 6/1/5 8/1/5
f 1/1/6 5/1/6 6/1/6
o bedroom
v 0.898296 -0.633865 1.600000
v 1.694978 -0.633865 1.600000
v 1.366135 0.237401 1.600000
v 0.671157 0.288253 1.600000
v 0.898296 -0.633865 -1.400000
v 1.694978 -0.633865 -1.400000
v 1.366135 0.237401 -1.400000
v 0.671157 0.288253 -1.400000
vn -0.0000 -0.0000 1.0000
vn -0.0000 -0.0000 -1.0000
vn -0.9710 -0.2392 -0.0000
vn -0.0000 -1.0000 -0.0000
vn 0.9356 0.3531 -0.0000
vn 0.0730 0.9973 -0.0000
vt 0.000000 0.000000
s 0
f 9/2/7 11/2/7 12/2/7
f 13/2/8 15/2/8 14/2/8
f 12/2/9 13/2/9 9/2/9
f 9/2/10 14/2/10 10/2/10
f 10/2/11 15/2/11 11/2/11
f 11/2/12 16/2/12 12/2/12
f 9/2/7 10/2/7 11/2/7
f 13/2/8 16/2/8 15/2/8
f 12/2/9 16/2/9 13/2/9
f 9/2/10 13/2/10 14/2/10
f 10/2/11 14/2/11 15/2/11
f 11/2/12 15/2/12 16/2/12
o main_door
v 5.580754 -5.015279 1.600000
v 6.117752 -5.015279 1.600000
v 5.629572 -3.160196 1.600000
v 6.166570 -3.160196 1.600000
v 5.580754 -5.015279 -1.400000
v 6.117752 -5.015279 -1.400000
v 5.629572 -3.160196 -1.400000
v 6.166570 -3.160196 -1.400000
vn -0.0000 -0.0000 1.0000
vn -0.0000 -0.0000 -1.0000
vn 0.9997 -0.0263 -0.0000
vn -0.0000 -1.0000 -0.0000
vn -0.9997 0.0263 -0.0000
vn -0.0000 1.0000 -0.0000
vt 0.000000 0.000000
s 0
f 18/3/13 19/3/13 17/3/13
f 22/3/14 23/3/14 24/3/14
f 18/3/15 24/3/15 20/3/15
f 17/3/16 22/3/16 18/3/16
f 19/3/17 21/3/17 17/3/17
f 20/3/18 23/3/18 19/3/18
f 18/3/13 20/3/13 19/3/13
f 22/3/14 21/3/14 23/3/14
f 18/3/15 22/3/15 24/3/15
f 17/3/16 21/3/16 22/3/16
f 19/3/17 23/3/17 21/3/17
f 20/3/18 24/3/18 23/3/18
o obstacles
v 3.562944 -0.735569 1.600000
v 3.644307 0.647607 1.600000
v 6.064866 3.881799 1.600000
v 6.247933 0.606926 1.600000
v -3.617368 4.146230 1.600000
v -3.861458 2.315555 1.600000
v -4.776795 2.152829 1.600000
v -5.468383 1.542604 1.600000
v -5.956563 0.545903 1.600000
v -5.631110 -0.145685 1.600000
v -4.675091 -1.203408 1.600000
v -3.902139 -1.264431 1.600000
v 0.145685 2.379968 1.600000
v 4.510827 -3.383945 1.600000
v 0.829137 -3.282241 1.600000
v 0.898296 -0.633865 1.600000
v 4.620667 -2.240790 1.600000
v 6.186911 -0.328752 1.600000
v 8.485424 -0.613524 1.600000
v 9.632647 -2.305881 1.600000
v 9.412966 -6.845953 1.600000
v 4.970529 -8.408129 1.600000
v 4.213850 -8.310493 1.600000
v 1.333589 -10.336439 1.600000
v -4.011980 -10.165576 1.600000
v 9.217694 -8.090812 1.600000
v 4.775257 -9.652987 1.600000
v 4.018579 -9.555351 1.600000
v 1.138317 -11.581298 1.600000
v -4.207252 -11.410435 1.600000
v 10.560188 -2.379108 1.600000
v 10.340508 -6.919180 1.600000
v 10.145236 -8.164039 1.600000
v 8.983368 0.323781 1.600000
v 10.130590 -1.368576 1.600000
v 11.058132 -1.441803 1.600000
v 5.714190 0.010533 1.600000
v 7.870317 0.030873 1.600000
v 8.368261 0.968179 1.600000
v 3.449035 -2.270081 1.600000
v 5.157665 -0.663156 1.600000
v 5.362700 -0.194503 1.600000
v 3.478326 -2.738734 1.600000
v 1.691587 -2.738734 1.600000
v 1.838041 -1.274194 1.600000
v 3.683362 -1.449939 1.600000
v 4.909507 -0.700583 1.600000
v 5.153597 -0.212403 1.600000
v 5.641777 0.133391 1.600000
v 6.801204 0.214755 1.600000
v 7.024953 4.486329 1.600000
v 6.003844 4.512364 1.600000
v 5.088506 4.736114 1.600000
v -4.593728 5.000545 1.600000
v 5.719072 4.634409 1.600000
v -6.119289 2.925780 1.600000
v -7.339739 2.030784 1.600000
v -8.031327 1.420559 1.600000
v -8.519507 0.423858 1.600000
v -8.194054 -0.267730 1.600000
v -7.238035 -1.325453 1.600000
v -6.261675 -2.444199 1.600000
v -4.980203 -2.525562 1.600000
v -5.085976 -4.942051 1.600000
v -5.090044 -11.426707 1.600000
v -4.675091 -11.491798 1.600000
v -5.936222 -2.851015 1.600000
v 5.141392 -5.503459 1.600000
v 4.262669 -5.588890 1.600000
v 5.165801 -4.966461 1.600000
v 4.409122 -4.868825 1.600000
v 5.556345 -5.552277 1.600000
v 5.580754 -5.015279 1.600000
v 6.093343 -5.552277 1.600000
v 6.117752 -5.015279 1.600000
v 5.629572 -3.160196 1.600000
v 6.166570 -3.160196 1.600000
v 5.678390 -2.354699 1.600000
v 6.215388 -2.354699 1.600000
v 1.992632 -5.540072 1.600000
v 2.139086 -4.820007 1.600000
v 0.284003 -5.564481 1.600000
v 0.430457 -4.844416 1.600000
v -4.158434 -5.515663 1.600000
v -4.011980 -4.795598 1.600000
v -5.110384 -5.479049 1.600000
v 1.650907 4.797136 1.600000
v 1.366135 3.881799 1.600000
v 2.484880 3.922481 1.600000
v 2.403517 4.817477 1.600000
v 0.145685 3.966552 1.600000
v -1.006962 4.000454 1.600000
v 1.694978 -0.633865 1.600000
v 1.501741 1.169689 1.600000
v 2.620486 1.210370 1.600000
v 1.366135 0.237401 1.600000
v 2.484880 0.278082 1.600000
v 0.806762 1.220541 1.600000
v 0.671157 0.288253 1.600000
v -1.006962 2.413869 1.600000
v 0.145685 1.851106 1.600000
v -1.006962 1.885008 1.600000
v 0.105004 0.549293 1.600000
v -1.047643 0.583195 1.600000
v -1.495142 1.844326 1.600000
v -1.535823 0.542513 1.600000
v 0.145685 2.379968 -1.400000
v -1.006962 2.413869 -1.400000
v 3.562944 -0.735569 -1.400000
v 3.644307 0.647607 -1.400000
v 6.247933 0.606926 -1.400000
v 6.064866 3.881799 -1.400000
v -3.617368 4.146230 -1.400000
v -3.861458 2.315555 -1.400000
v -4.776795 2.152829 -1.400000
v -5.468383 1.542604 -1.400000
v -5.956563 0.545903 -1.400000
v -5.631110 -0.145685 -1.400000
v -4.675091 -1.203408 -1.400000
v -3.902139 -1.264431 -1.400000
v -1.006962 1.885008 -1.400000
v 4.510827 -3.383945 -1.400000
v 0.829137 -3.282241 -1.400000
v 0.898296 -0.633865 -1.400000
v 1.694978 -0.633865 -1.400000
v 4.620667 -2.240790 -1.400000
v 6.186911 -0.328752 -1.400000
v 8.485424 -0.613524 -1.400000
v 9.632647 -2.305881 -1.400000
v 9.412966 -6.845953 -1.400000
v 4.970529 -8.408129 -1.400000
v 4.213850 -8.310493 -1.400000
v 1.333589 -10.336439 -1.400000
v -4.011980 -10.165576 -1.400000
v 0.145685 1.851106 -1.400000
v 9.217694 -8.090812 -1.400000
v 4.775257 -9.652987 -1.400000
v 4.018579 -9.555351 -1.400000
v 1.138317 -11.581298 -1.400000
v -4.207252 -11.410435 -1.400000
v 10.560188 -2.379108 -1.400000
v 10.340508 -6.919180 -1.400000
v 10.145236 -8.164039 -1.400000
v 8.983368 0.323781 -1.400000
v 10.130590 -1.368576 -1.400000
v 11.058132 -1.441803 -1.400000
v 5.714190 0.010533 -1.400000
v 7.870317 0.030873 -1.400000
v 8.368261 0.968179 -1.400000
v 3.449035 -2.270081 -1.400000
v 5.157665 -0.663156 -1.400000
v 5.362700 -0.194503 -1.400000
v 3.478326 -2.738734 -1.400000
v 1.691587 -2.738734 -1.400000
v 1.838041 -1.274194 -1.400000
v 3.683362 -1.449939 -1.400000
v 4.909507 -0.700583 -1.400000
v 5.153597 -0.212403 -1.400000
v 5.641777 0.133391 -1.400000
v 6.801204 0.214755 -1.400000
v 7.024953 4.486329 -1.400000
v 6.003844 4.512364 -1.400000
v -4.593728 5.000545 -1.400000
v 1.650907 4.797136 -1.400000
v 5.088506 4.736114 -1.400000
v 5.719072 4.634409 -1.400000
v -6.119289 2.925780 -1.400000
v -7.339739 2.030784 -1.400000
v -8.031327 1.420559 -1.400000
v -8.519507 0.423858 -1.400000
v -8.194054 -0.267730 -1.400000
v -7.238035 -1.325453 -1.400000
v -6.261675 -2.444199 -1.400000
v -5.085976 -4.942051 -1.400000
v -4.011980 -4.795598 -1.400000
v -5.110384 -5.479049 -1.400000
v -4.675091 -11.491798 -1.400000
v -5.090044 -11.426707 -1.400000
v -4.980203 -2.525562 -1.400000
v -5.936222 -2.851015 -1.400000
v -4.158434 -5.515663 -1.400000
v 5.141392 -5.503459 -1.400000
v 4.262669 -5.588890 -1.400000
v 5.165801 -4.966461 -1.400000
v 4.409122 -4.868825 -1.400000
v 5.580754 -5.015279 -1.400000
v 5.556345 -5.552277 -1.400000
v 6.117752 -5.015279 -1.400000
v 6.093343 -5.552277 -1.400000
v 5.629572 -3.160196 -1.400000
v 6.166570 -3.160196 -1.400000
v 5.678390 -2.354699 -1.400000
v 6.215388 -2.354699 -1.400000
v 1.992632 -5.540072 -1.400000
v 2.139086 -4.820007 -1.400000
v 0.284003 -5.564481 -1.400000
v 0.430457 -4.844416 -1.400000
v 1.366135 3.881799 -1.400000
v 2.484880 3.922481 -1.400000
v 2.403517 4.817477 -1.400000
v 0.145685 3.966552 -1.400000
v -1.006962 4.000454 -1.400000
v 1.501741 1.169689 -1.400000
v 2.620486 1.210370 -1.400000
v 1.366135 0.237401 -1.400000
v 2.484880 0.278082 -1.400000
v 0.671157 0.288253 -1.400000
v 0.806762 1.220541 -1.400000
v 0.105004 0.549293 -1.400000
v -1.047643 0.583195 -1.400000
v -1.535823 0.542513 -1.400000
v -1.495142 1.844326 -1.400000
vn -0.0000 -0.0000 1.0000
vn -0.0000 -0.0000 -1.0000
vn -0.6851 0.7285 -0.0000
vn 0.1168 0.9932 -0.0000
vn -0.9162 0.4008 -0.0000
vn 0.9990 -0.0454 -0.0000
vn 0.0294 0.9996 -0.0000
vn -0.0000 -1.0000 -0.0000
vn -0.5039 0.8638 -0.0000
vn -0.9983 0.0587 -0.0000
vn -0.0000 1.0000 -0.0000
vn 0.0156 0.9999 -0.0000
vn -0.9981 -0.0624 -0.0000
vn -0.9984 -0.0558 -0.0000
vn 0.9912 -0.1322 -0.0000
vn 0.9982 -0.0605 -0.0000
vn 0.9950 -0.0995 -0.0000
vn 0.1750 -0.9846 -0.0000
vn -0.0948 -0.9955 -0.0000
vn 0.6616 -0.7498 -0.0000
vn 0.1961 -0.9806 -0.0000
vn 0.5215 -0.8533 -0.0000
vn 0.8981 -0.4399 -0.0000
vn 0.1071 0.9943 -0.0000
vn 0.8944 -0.4472 -0.0000
vn 0.9048 0.4258 -0.0000
vn -0.9799 0.1993 -0.0000
vn 0.5780 -0.8160 -0.0000
vn 0.7419 0.6705 -0.0000
vn 0.0215 0.9998 -0.0000
vn 0.0700 -0.9975 -0.0000
vn 0.0787 0.9969 -0.0000
vn -0.0215 -0.9998 -0.0000
vn 0.9986 -0.0523 -0.0000
vn -1.0000 -0.0000 -0.0000
vn 0.9799 -0.1993 -0.0000
vn -0.0276 -0.9996 -0.0000
vn 0.0255 0.9997 -0.0000
vn -0.9997 0.0261 -0.0000
vn 0.0110 0.9999 -0.0000
vn 0.0326 0.9995 -0.0000
vn -0.0110 -0.9999 -0.0000
vn 0.1592 0.9872 -0.0000
vn -1.0000 -0.0034 -0.0000
vn 0.7736 -0.6337 -0.0000
vn -0.9990 0.0437 -0.0000
vn 0.3939 0.9191 -0.0000
vn -0.1230 -0.9924 -0.0000
vn 0.9995 0.0315 -0.0000
vn -0.8277 -0.5611 -0.0000
vn 0.9995 -0.0311 -0.0000
vn -0.5914 0.8064 -0.0000
vn -0.9988 0.0483 -0.0000
vn -0.6616 0.7498 -0.0000
vn -0.3317 0.9434 -0.0000
vn -0.8981 0.4399 -0.0000
vn -0.9048 -0.4258 -0.0000
vn -0.5753 0.8179 -0.0000
vn -0.0270 0.9996 -0.0000
vn -0.7419 -0.6705 -0.0000
vn 0.0319 0.9995 -0.0000
vn 0.0303 0.9995 -0.0000
vn -0.7534 -0.6575 -0.0000
vn -0.0114 -0.9999 -0.0000
vn 0.3317 -0.9434 -0.0000
vn -0.0693 -0.9976 -0.0000
vn -0.1280 -0.9918 -0.0000
vn -0.0294 -0.9996 -0.0000
vn 0.5753 -0.8179 -0.0000
vn -0.0558 -0.9984 -0.0000
vn -0.0319 -0.9995 -0.0000
vn 0.0544 0.9985 -0.0000
vn -0.9988 -0.0499 -0.0000
vn 0.9988 0.0499 -0.0000
vn 0.0363 -0.9993 -0.0000
vn -0.9990 0.0454 -0.0000
vn -0.1550 -0.9879 -0.0000
vn 0.9988 -0.0483 -0.0000
vn 0.9896 -0.1439 -0.0000
vn 0.3223 -0.9467 -0.0000
vn 0.9879 -0.1550 -0.0000
vn -0.9896 0.1439 -0.0000
vn 0.1713 -0.9852 -0.0000
vn -0.0787 -0.9969 -0.0000
vn 0.0730 0.9973 -0.0000
vn -0.0730 -0.9973 -0.0000
vn 1.0000 -0.0000 -0.0000
vn -0.7809 -0.6247 -0.0000
vn 0.8277 0.5611 -0.0000
vn -0.8057 0.5924 -0.0000
vn 0.9995 -0.0312 -0.0000
vn 0.8831 -0.4692 -0.0000
vn -0.9995 0.0312 -0.0000
vn 0.9983 -0.0587 -0.0000
vn -0.0830 0.9965 -0.0000
vn -0.9998 0.0179 -0.0000
vn -0.0094 1.0000 -0.0000
vn 0.0830 -0.9965 -0.0000
vn 0.1280 0.9918 -0.0000
vn -0.8831 0.4692 -0.0000
vn 0.7234 0.6905 -0.0000
vn -0.1168 -0.9932 -0.0000
vt 0.000000 0.000000
s 0
f 118/4/19 113/4/19 112/4/19
f 116/4/19 115/4/19 111/4/19
f 126/4/19 37/4/19 124/4/19
f 49/4/19 53/4/19 48/4/19
f 46/4/19 50/4/19 45/4/19
f 48/4/19 52/4/19 47/4/19
f 47/4/19 51/4/19 46/4/19
f 57/4/19 45/4/19 50/4/19
f 45/4/19 55/4/19 44/4/19
f 55/4/19 59/4/19 44/4/19
f 59/4/19 43/4/19 44/4/19
f 58/4/19 62/4/19 43/4/19
f 62/4/19 42/4/19 43/4/19
f 66/4/19 42/4/19 61/4/19
f 65/4/19 41/4/19 42/4/19
f 118/4/19 121/4/19 119/4/19
f 79/4/19 27/4/19 76/4/19
f 77/4/19 113/4/19 27/4/19
f 35/4/19 86/4/19 36/4/19
f 33/4/19 84/4/19 34/4/19
f 81/4/19 32/4/19 31/4/19
f 34/4/19 85/4/19 35/4/19
f 82/4/19 33/4/19 32/4/19
f 80/4/19 31/4/19 30/4/19
f 89/4/19 54/4/19 49/4/19
f 86/4/19 87/4/19 36/4/19
f 88/4/19 108/4/19 109/4/19
f 49/4/19 110/4/19 89/4/19
f 30/4/19 78/4/19 80/4/19
f 46/4/19 93/4/19 47/4/19
f 92/4/19 95/4/19 93/4/19
f 92/4/19 97/4/19 94/4/19
f 98/4/19 97/4/19 96/4/19
f 101/4/19 102/4/19 100/4/19
f 100/4/19 41/4/19 38/4/19
f 105/4/19 93/4/19 95/4/19
f 109/4/19 106/4/19 107/4/19
f 109/4/19 87/4/19 88/4/19
f 113/4/19 111/4/19 112/4/19
f 122/4/19 120/4/19 118/4/19
f 126/4/19 127/4/19 125/4/19
f 129/4/19 128/4/19 126/4/19
f 69/4/19 70/4/19 25/4/19
f 223/4/20 227/4/20 222/4/20
f 225/4/20 226/4/20 188/4/20
f 131/4/20 145/4/20 132/4/20
f 158/4/20 163/4/20 164/4/20
f 155/4/20 160/4/20 161/4/20
f 157/4/20 162/4/20 163/4/20
f 156/4/20 161/4/20 162/4/20
f 154/4/20 167/4/20 160/4/20
f 154/4/20 165/4/20 166/4/20
f 165/4/20 169/4/20 170/4/20
f 152/4/20 169/4/20 153/4/20
f 168/4/20 172/4/20 173/4/20
f 151/4/20 172/4/20 152/4/20
f 151/4/20 176/4/20 171/4/20
f 150/4/20 175/4/20 151/4/20
f 227/4/20 230/4/20 229/4/20
f 136/4/20 190/4/20 186/4/20
f 189/4/20 223/4/20 224/4/20
f 143/4/20 197/4/20 196/4/20
f 141/4/20 195/4/20 194/4/20
f 140/4/20 192/4/20 139/4/20
f 142/4/20 196/4/20 195/4/20
f 141/4/20 193/4/20 140/4/20
f 139/4/20 191/4/20 138/4/20
f 164/4/20 202/4/20 158/4/20
f 197/4/20 203/4/20 204/4/20
f 205/4/20 198/4/20 199/4/20
f 200/4/20 158/4/20 202/4/20
f 138/4/20 187/4/20 137/4/20
f 155/4/20 207/4/20 206/4/20
f 206/4/20 209/4/20 208/4/20
f 206/4/20 210/4/20 211/4/20
f 210/4/20 213/4/20 211/4/20
f 215/4/20 216/4/20 217/4/20
f 150/4/20 214/4/20 146/4/20
f 207/4/20 219/4/20 209/4/20
f 220/4/20 199/4/20 221/4/20
f 203/4/20 199/4/20 198/4/20
f 188/4/20 223/4/20 222/4/20
f 229/4/20 232/4/20 227/4/20
f 145/4/20 233/4/20 234/4/20
f 234/4/20 236/4/20 145/4/20
f 178/4/20 147/4/20 148/4/20
f 65/4/21 174/4/21 64/4/21
f 97/4/22 208/4/22 94/4/22
f 66/4/23 175/4/23 65/4/23
f 98/4/24 212/4/24 99/4/24
f 37/4/25 132/4/25 124/4/25
f 96/4/26 213/4/26 98/4/26
f 61/4/27 176/4/27 66/4/27
f 26/4/28 133/4/28 25/4/28
f 99/4/29 210/4/29 97/4/29
f 28/4/30 134/4/30 26/4/30
f 100/4/26 215/4/26 101/4/26
f 64/4/31 177/4/31 67/4/31
f 27/4/32 135/4/32 28/4/32
f 103/4/29 216/4/29 102/4/29
f 67/4/29 178/4/29 68/4/29
f 30/4/33 137/4/33 29/4/33
f 101/4/34 217/4/34 103/4/34
f 68/4/35 179/4/35 69/4/35
f 31/4/36 138/4/36 30/4/36
f 69/4/37 180/4/37 70/4/37
f 32/4/38 139/4/38 31/4/38
f 38/4/39 214/4/39 100/4/39
f 70/4/40 181/4/40 71/4/40
f 33/4/41 140/4/41 32/4/41
f 102/4/42 150/4/42 41/4/42
f 71/4/43 182/4/43 72/4/43
f 34/4/44 141/4/44 33/4/44
f 105/4/45 218/4/45 104/4/45
f 72/4/46 183/4/46 73/4/46
f 35/4/47 142/4/47 34/4/47
f 95/4/48 219/4/48 105/4/48
f 73/4/49 184/4/49 74/4/49
f 36/4/50 143/4/50 35/4/50
f 104/4/51 207/4/51 93/4/51
f 74/4/52 185/4/52 75/4/52
f 124/4/53 145/4/53 126/4/53
f 106/4/54 221/4/54 107/4/54
f 39/4/55 146/4/55 38/4/55
f 75/4/56 186/4/56 76/4/56
f 40/4/57 147/4/57 39/4/57
f 107/4/58 199/4/58 109/4/58
f 111/4/59 187/4/59 78/4/59
f 117/4/29 148/4/29 40/4/29
f 108/4/60 220/4/60 106/4/60
f 79/4/61 189/4/61 77/4/61
f 110/4/62 202/4/62 89/4/62
f 41/4/63 151/4/63 42/4/63
f 87/4/64 198/4/64 88/4/64
f 76/4/65 190/4/65 79/4/65
f 42/4/66 152/4/66 43/4/66
f 49/4/67 205/4/67 108/4/67
f 43/4/68 153/4/68 44/4/68
f 109/4/69 144/4/69 36/4/69
f 80/4/70 192/4/70 81/4/70
f 44/4/71 154/4/71 45/4/71
f 81/4/72 193/4/72 82/4/72
f 45/4/73 155/4/73 46/4/73
f 82/4/74 194/4/74 83/4/74
f 83/4/75 195/4/75 84/4/75
f 47/4/76 157/4/76 48/4/76
f 114/4/77 188/4/77 111/4/77
f 84/4/78 196/4/78 85/4/78
f 48/4/79 158/4/79 49/4/79
f 77/4/80 224/4/80 114/4/80
f 85/4/81 197/4/81 86/4/81
f 113/4/82 136/4/82 27/4/82
f 51/4/83 160/4/83 50/4/83
f 115/4/84 222/4/84 112/4/84
f 52/4/85 161/4/85 51/4/85
f 116/4/86 225/4/86 115/4/86
f 53/4/87 162/4/87 52/4/87
f 29/4/88 226/4/88 116/4/88
f 54/4/89 163/4/89 53/4/89
f 25/4/90 149/4/90 117/4/90
f 112/4/91 227/4/91 118/4/91
f 119/4/92 223/4/92 113/4/92
f 120/4/93 230/4/93 121/4/93
f 88/4/94 200/4/94 110/4/94
f 89/4/95 201/4/95 90/4/95
f 56/4/96 165/4/96 55/4/96
f 121/4/97 228/4/97 119/4/97
f 91/4/98 203/4/98 87/4/98
f 57/4/99 166/4/99 56/4/99
f 122/4/100 231/4/100 123/4/100
f 90/4/101 164/4/101 54/4/101
f 50/4/102 167/4/102 57/4/102
f 118/4/103 232/4/103 122/4/103
f 123/4/104 229/4/104 120/4/104
f 125/4/105 131/4/105 37/4/105
f 86/4/106 204/4/106 91/4/106
f 59/4/107 168/4/107 58/4/107
f 128/4/86 233/4/86 127/4/86
f 60/4/50 169/4/50 59/4/50
f 78/4/108 191/4/108 80/4/108
f 127/4/109 159/4/109 125/4/109
f 55/4/110 170/4/110 60/4/110
f 129/4/111 235/4/111 130/4/111
f 46/4/112 206/4/112 92/4/112
f 126/4/113 236/4/113 129/4/113
f 93/4/114 156/4/114 47/4/114
f 62/4/115 171/4/115 61/4/115
f 130/4/116 234/4/116 128/4/116
f 94/4/117 209/4/117 95/4/117
f 63/4/118 172/4/118 62/4/118
f 58/4/119 173/4/119 63/4/119
f 92/4/120 211/4/120 96/4/120
f 118/4/19 119/4/19 113/4/19
f 78/4/19 29/4/19 116/4/19
f 115/4/19 112/4/19 111/4/19
f 78/4/19 116/4/19 111/4/19
f 126/4/19 125/4/19 37/4/19
f 49/4/19 54/4/19 53/4/19
f 46/4/19 51/4/19 50/4/19
f 48/4/19 53/4/19 52/4/19
f 47/4/19 52/4/19 51/4/19
f 57/4/19 56/4/19 45/4/19
f 45/4/19 56/4/19 55/4/19
f 55/4/19 60/4/19 59/4/19
f 59/4/19 58/4/19 43/4/19
f 58/4/19 63/4/19 62/4/19
f 62/4/19 61/4/19 42/4/19
f 66/4/19 65/4/19 42/4/19
f 65/4/19 64/4/19 41/4/19
f 118/4/19 120/4/19 121/4/19
f 79/4/19 77/4/19 27/4/19
f 77/4/19 114/4/19 113/4/19
f 35/4/19 85/4/19 86/4/19
f 33/4/19 83/4/19 84/4/19
f 81/4/19 82/4/19 32/4/19
f 34/4/19 84/4/19 85/4/19
f 82/4/19 83/4/19 33/4/19
f 80/4/19 81/4/19 31/4/19
f 89/4/19 90/4/19 54/4/19
f 86/4/19 91/4/19 87/4/19
f 88/4/19 110/4/19 108/4/19
f 49/4/19 108/4/19 110/4/19
f 30/4/19 29/4/19 78/4/19
f 46/4/19 92/4/19 93/4/19
f 92/4/19 94/4/19 95/4/19
f 92/4/19 96/4/19 97/4/19
f 98/4/19 99/4/19 97/4/19
f 101/4/19 103/4/19 102/4/19
f 100/4/19 102/4/19 41/4/19
f 105/4/19 104/4/19 93/4/19
f 109/4/19 108/4/19 106/4/19
f 109/4/19 36/4/19 87/4/19
f 113/4/19 114/4/19 111/4/19
f 122/4/19 123/4/19 120/4/19
f 126/4/19 128/4/19 127/4/19
f 129/4/19 130/4/19 128/4/19
f 28/4/19 26/4/19 73/4/19
f 26/4/19 25/4/19 71/4/19
f 73/4/19 26/4/19 72/4/19
f 25/4/19 117/4/19 69/4/19
f 117/4/19 40/4/19 69/4/19
f 38/4/19 41/4/19 67/4/19
f 41/4/19 64/4/19 67/4/19
f 75/4/19 76/4/19 27/4/19
f 70/4/19 71/4/19 25/4/19
f 71/4/19 72/4/19 26/4/19
f 74/4/19 75/4/19 28/4/19
f 75/4/19 27/4/19 28/4/19
f 73/4/19 74/4/19 28/4/19
f 39/4/19 38/4/19 67/4/19
f 39/4/19 67/4/19 68/4/19
f 39/4/19 68/4/19 40/4/19
f 68/4/19 69/4/19 40/4/19
f 223/4/20 228/4/20 227/4/20
f 226/4/20 137/4/20 187/4/20
f 187/4/20 188/4/20 226/4/20
f 188/4/20 222/4/20 225/4/20
f 131/4/20 159/4/20 145/4/20
f 158/4/20 157/4/20 163/4/20
f 155/4/20 154/4/20 160/4/20
f 157/4/20 156/4/20 162/4/20
f 156/4/20 155/4/20 161/4/20
f 154/4/20 166/4/20 167/4/20
f 154/4/20 153/4/20 165/4/20
f 165/4/20 153/4/20 169/4/20
f 152/4/20 168/4/20 169/4/20
f 168/4/20 152/4/20 172/4/20
f 151/4/20 171/4/20 172/4/20
f 151/4/20 175/4/20 176/4/20
f 150/4/20 174/4/20 175/4/20
f 227/4/20 228/4/20 230/4/20
f 136/4/20 189/4/20 190/4/20
f 189/4/20 136/4/20 223/4/20
f 143/4/20 144/4/20 197/4/20
f 141/4/20 142/4/20 195/4/20
f 140/4/20 193/4/20 192/4/20
f 142/4/20 143/4/20 196/4/20
f 141/4/20 194/4/20 193/4/20
f 139/4/20 192/4/20 191/4/20
f 164/4/20 201/4/20 202/4/20
f 197/4/20 144/4/20 203/4/20
f 205/4/20 200/4/20 198/4/20
f 200/4/20 205/4/20 158/4/20
f 138/4/20 191/4/20 187/4/20
f 155/4/20 156/4/20 207/4/20
f 206/4/20 207/4/20 209/4/20
f 206/4/20 208/4/20 210/4/20
f 210/4/20 212/4/20 213/4/20
f 215/4/20 214/4/20 216/4/20
f 150/4/20 216/4/20 214/4/20
f 207/4/20 218/4/20 219/4/20
f 220/4/20 205/4/20 199/4/20
f 203/4/20 144/4/20 199/4/20
f 188/4/20 224/4/20 223/4/20
f 229/4/20 231/4/20 232/4/20
f 145/4/20 159/4/20 233/4/20
f 234/4/20 235/4/20 236/4/20
f 133/4/20 134/4/20 181/4/20
f 134/4/20 135/4/20 183/4/20
f 182/4/20 134/4/20 183/4/20
f 136/4/20 186/4/20 185/4/20
f 135/4/20 136/4/20 185/4/20
f 182/4/20 181/4/20 134/4/20
f 181/4/20 180/4/20 133/4/20
f 135/4/20 185/4/20 184/4/20
f 148/4/20 149/4/20 179/4/20
f 149/4/20 133/4/20 179/4/20
f 135/4/20 184/4/20 183/4/20
f 177/4/20 174/4/20 150/4/20
f 133/4/20 180/4/20 179/4/20
f 177/4/20 150/4/20 146/4/20
f 178/4/20 177/4/20 147/4/20
f 177/4/20 146/4/20 147/4/20
f 148/4/20 179/4/20 178/4/20
f 65/4/21 175/4/21 174/4/21
f 97/4/22 210/4/22 208/4/22
f 66/4/23 176/4/23 175/4/23
f 98/4/24 213/4/24 212/4/24
f 37/4/25 131/4/25 132/4/25
f 96/4/26 211/4/26 213/4/26
f 61/4/27 171/4/27 176/4/27
f 26/4/28 134/4/28 133/4/28
f 99/4/29 212/4/29 210/4/29
f 28/4/30 135/4/30 134/4/30
f 100/4/26 214/4/26 215/4/26
f 64/4/31 174/4/31 177/4/31
f 27/4/32 136/4/32 135/4/32
f 103/4/29 217/4/29 216/4/29
f 67/4/29 177/4/29 178/4/29
f 30/4/33 138/4/33 137/4/33
f 101/4/34 215/4/34 217/4/34
f 68/4/35 178/4/35 179/4/35
f 31/4/36 139/4/36 138/4/36
f 69/4/37 179/4/37 180/4/37
f 32/4/38 140/4/38 139/4/38
f 38/4/39 146/4/39 214/4/39
f 70/4/40 180/4/40 181/4/40
f 33/4/41 141/4/41 140/4/41
f 102/4/42 216/4/42 150/4/42
f 71/4/43 181/4/43 182/4/43
f 34/4/44 142/4/44 141/4/44
f 105/4/45 219/4/45 218/4/45
f 72/4/46 182/4/46 183/4/46
f 35/4/47 143/4/47 142/4/47
f 95/4/48 209/4/48 219/4/48
f 73/4/49 183/4/49 184/4/49
f 36/4/50 144/4/50 143/4/50
f 104/4/51 218/4/51 207/4/51
f 74/4/52 184/4/52 185/4/52
f 124/4/53 132/4/53 145/4/53
f 106/4/54 220/4/54 221/4/54
f 39/4/55 147/4/55 146/4/55
f 75/4/56 185/4/56 186/4/56
f 40/4/57 148/4/57 147/4/57
f 107/4/58 221/4/58 199/4/58
f 111/4/59 188/4/59 187/4/59
f 117/4/29 149/4/29 148/4/29
f 108/4/60 205/4/60 220/4/60
f 79/4/61 190/4/61 189/4/61
f 110/4/62 200/4/62 202/4/62
f 41/4/63 150/4/63 151/4/63
f 87/4/64 203/4/64 198/4/64
f 76/4/65 186/4/65 190/4/65
f 42/4/66 151/4/66 152/4/66
f 49/4/67 158/4/67 205/4/67
f 43/4/68 152/4/68 153/4/68
f 109/4/69 199/4/69 144/4/69
f 80/4/70 191/4/70 192/4/70
f 44/4/71 153/4/71 154/4/71
f 81/4/72 192/4/72 193/4/72
f 45/4/73 154/4/73 155/4/73
f 82/4/74 193/4/74 194/4/74
f 83/4/75 194/4/75 195/4/75
f 47/4/76 156/4/76 157/4/76
f 114/4/77 224/4/77 188/4/77
f 84/4/78 195/4/78 196/4/78
f 48/4/79 157/4/79 158/4/79
f 77/4/80 189/4/80 224/4/80
f 85/4/81 196/4/81 197/4/81
f 113/4/82 223/4/82 136/4/82
f 51/4/83 161/4/83 160/4/83
f 115/4/84 225/4/84 222/4/84
f 52/4/85 162/4/85 161/4/85
f 116/4/86 226/4/86 225/4/86
f 53/4/87 163/4/87 162/4/87
f 29/4/88 137/4/88 226/4/88
f 54/4/89 164/4/89 163/4/89
f 25/4/90 133/4/90 149/4/90
f 112/4/91 222/4/91 227/4/91
f 119/4/92 228/4/92 223/4/92
f 120/4/93 229/4/93 230/4/93
f 88/4/94 198/4/94 200/4/94
f 89/4/95 202/4/95 201/4/95
f 56/4/96 166/4/96 165/4/96
f 121/4/97 230/4/97 228/4/97
f 91/4/98 204/4/98 203/4/98
f 57/4/99 167/4/99 166/4/99
f 122/4/100 232/4/100 231/4/100
f 90/4/101 201/4/101 164/4/101
f 50/4/102 160/4/102 167/4/102
f 118/4/103 227/4/103 232/4/103
f 123/4/104 231/4/104 229/4/104
f 125/4/105 159/4/105 131/4/105
f 86/4/106 197/4/106 204/4/106
f 59/4/107 169/4/107 168/4/107
f 128/4/86 234/4/86 233/4/86
f 60/4/50 170/4/50 169/4/50
f 78/4/108 187/4/108 191/4/108
f 127/4/109 233/4/109 159/4/109
f 55/4/110 165/4/110 170/4/110
f 129/4/111 236/4/111 235/4/111
f 46/4/112 155/4/112 206/4/112
f 126/4/113 145/4/113 236/4/113
f 93/4/114 207/4/114 156/4/114
f 62/4/115 172/4/115 171/4/115
f 130/4/116 235/4/116 234/4/116
f 94/4/117 208/4/117 209/4/117
f 63/4/118 173/4/118 172/4/118
f 58/4/119 168/4/119 173/4/119
f 92/4/120 206/4/120 211/4/120
