# Blender 4.1.1
# www.blender.org
mtllib exter_blend_mesh_camera_view.mtl
o visible_area
v 2.277885 -3.560509 1.406533
v 2.313199 -5.985400 1.406533
v 0.739401 -6.020714 1.406533
v 0.315634 -5.067237 1.406533
v -3.851411 -1.418131 1.406533
v -4.098608 -0.452883 1.406533
v 5.830947 -5.119018 1.500000
v 5.864848 -3.576686 1.500000
v 3.830947 -5.119018 1.500000
v 3.864848 -3.576686 1.500000
v 0.661168 -5.135968 1.500000
v 0.695069 -3.593637 1.500000
v -1.559554 0.559464 1.500000
v -1.542604 2.169598 1.500000
v -3.356146 -1.339014 1.500000
v -4.610497 -1.237310 1.500000
v -5.525835 -0.220268 1.500000
v -5.576687 1.084935 1.500000
v -4.746103 2.034173 1.500000
v -3.746012 2.101976 1.500000
v -3.254442 2.898659 1.500000
v 0.868885 -3.559386 1.406533
v 0.857114 -0.629453 1.406533
v 0.394492 -4.975480 1.631232
v 0.248780 0.549701 1.688015
v -2.375705 -4.892907 1.751035
v -2.521418 0.632274 1.807818
v 2.149086 -3.533104 -1.590576
v 2.184400 -5.957994 -1.590576
v 0.610601 -5.993309 -1.590576
v 0.186834 -5.039832 -1.590576
v -3.980210 -1.390725 -1.590576
v -4.227408 -0.425478 -1.590576
v 5.702147 -5.091612 -1.497108
v 5.736049 -3.549281 -1.497108
v 3.702147 -5.091612 -1.497108
v 3.736049 -3.549281 -1.497108
v 0.532368 -5.108563 -1.497108
v 0.566270 -3.566232 -1.497108
v -1.688354 0.586869 -1.497108
v -1.671403 2.197003 -1.497108
v -3.484946 -1.311609 -1.497108
v -4.739297 -1.209905 -1.497108
v -5.654634 -0.192863 -1.497108
v -5.705487 1.112340 -1.497108
v -4.874903 2.061579 -1.497108
v -3.874812 2.129381 -1.497108
v -3.383242 2.926064 -1.497108
v 0.740086 -3.531981 -1.590576
v 0.728314 -0.602048 -1.590576
v 0.265693 -4.948075 -1.365876
v 0.119980 0.577106 -1.309093
v -2.504505 -4.865502 -1.246073
v -2.650218 0.659679 -1.189290
vn -0.0000 -0.0000 -1.0000
vn -0.0000 -0.0000 1.0000
vn -0.0429 0.0091 -0.9990
vn 0.0429 -0.0091 0.9990
vn 0.0008 1.0000 0.0091
vn -0.0676 0.9976 0.0120
vn 0.0053 -0.9999 -0.0094
vn 0.0356 0.9993 0.0076
vn -0.8503 0.5247 0.0413
vn 0.7258 -0.6869 -0.0375
vn -0.9132 -0.4059 0.0355
vn 0.3918 0.9200 -0.0084
vn -0.0000 1.0000 0.0091
vn 0.9990 -0.0105 -0.0430
vn -0.6587 -0.7521 0.0214
vn 0.9991 0.0040 -0.0429
vn 0.9990 0.0145 -0.0428
vn -0.7430 -0.6687 0.0258
vn -0.0000 -1.0000 -0.0091
vn 0.0301 0.9995 0.0078
vn -0.9988 0.0220 0.0431
vn -0.0808 -0.9967 -0.0056
vn -0.9987 -0.0268 0.0427
vn 0.0224 -0.9997 -0.0101
vn -0.9983 -0.0389 0.0425
vn 0.9988 -0.0220 -0.0431
vn -0.0301 -0.9995 -0.0078
vn -0.9680 -0.2479 0.0393
vn -0.7520 0.6580 0.0383
vn -0.0053 0.9999 0.0094
vn 0.9987 0.0268 -0.0427
vt 0.000000 1.000000
vt 1.000000 1.000000
vt 0.000000 0.000000
vt 1.000000 0.000000
s 0
f 9/1/1 12/2/1 10/2/1
f 7/3/1 10/2/1 8/4/1
f 5/3/2 4/3/2 22/3/2
f 20/3/2 18/3/2 17/3/2
f 26/1/3 25/4/3 24/3/3
f 36/1/2 39/2/2 38/1/2
f 34/3/2 37/2/2 36/1/2
f 49/3/1 28/3/1 31/3/1
f 41/3/1 40/3/1 47/3/1
f 52/4/4 53/1/4 51/3/4
f 22/3/5 28/3/5 49/3/5
f 19/3/6 47/3/6 46/3/6
f 12/2/7 37/2/7 10/2/7
f 6/3/8 50/3/8 33/3/8
f 20/3/9 48/3/9 47/3/9
f 15/3/10 40/3/10 13/3/10
f 4/3/11 30/3/11 3/3/11
f 21/3/12 41/3/12 48/3/12
f 9/1/13 34/3/13 36/1/13
f 14/3/14 40/3/14 41/3/14
f 5/3/15 31/3/15 4/3/15
f 23/3/16 49/3/16 50/3/16
f 1/3/17 29/3/17 28/3/17
f 17/3/18 43/3/18 16/3/18
f 10/2/19 35/4/19 8/4/19
f 24/3/20 53/1/20 26/1/20
f 8/4/21 34/3/21 7/3/21
f 16/3/22 42/3/22 15/3/22
f 25/4/23 51/3/23 24/3/23
f 3/3/24 29/3/24 2/3/24
f 18/3/25 44/3/25 17/3/25
f 12/2/26 38/1/26 39/2/26
f 27/2/27 52/4/27 25/4/27
f 6/3/28 32/3/28 5/3/28
f 18/3/29 46/3/29 45/3/29
f 11/1/30 36/1/30 38/1/30
f 27/2/31 53/1/31 54/2/31
f 9/1/1 11/1/1 12/2/1
f 7/3/1 9/1/1 10/2/1
f 3/3/2 2/3/2 4/3/2
f 2/3/2 1/3/2 4/3/2
f 22/3/2 23/3/2 5/3/2
f 23/3/2 6/3/2 5/3/2
f 1/3/2 22/3/2 4/3/2
f 16/3/2 15/3/2 20/3/2
f 15/3/2 13/3/2 20/3/2
f 13/3/2 14/3/2 20/3/2
f 14/3/2 21/3/2 20/3/2
f 20/3/2 19/3/2 18/3/2
f 17/3/2 16/3/2 20/3/2
f 26/1/3 27/2/3 25/4/3
f 36/1/2 37/2/2 39/2/2
f 34/3/2 35/4/2 37/2/2
f 28/3/1 29/3/1 31/3/1
f 29/3/1 30/3/1 31/3/1
f 31/3/1 32/3/1 49/3/1
f 32/3/1 33/3/1 50/3/1
f 49/3/1 32/3/1 50/3/1
f 40/3/1 42/3/1 47/3/1
f 42/3/1 43/3/1 47/3/1
f 43/3/1 44/3/1 47/3/1
f 44/3/1 45/3/1 47/3/1
f 45/3/1 46/3/1 47/3/1
f 47/3/1 48/3/1 41/3/1
f 52/4/4 54/2/4 53/1/4
f 22/3/5 1/3/5 28/3/5
f 19/3/6 20/3/6 47/3/6
f 12/2/7 39/2/7 37/2/7
f 6/3/8 23/3/8 50/3/8
f 20/3/9 21/3/9 48/3/9
f 15/3/10 42/3/10 40/3/10
f 4/3/11 31/3/11 30/3/11
f 21/3/12 14/3/12 41/3/12
f 9/1/13 7/3/13 34/3/13
f 14/3/14 13/3/14 40/3/14
f 5/3/15 32/3/15 31/3/15
f 23/3/16 22/3/16 49/3/16
f 1/3/17 2/3/17 29/3/17
f 17/3/18 44/3/18 43/3/18
f 10/2/19 37/2/19 35/4/19
f 24/3/20 51/3/20 53/1/20
f 8/4/21 35/4/21 34/3/21
f 16/3/22 43/3/22 42/3/22
f 25/4/23 52/4/23 51/3/23
f 3/3/24 30/3/24 29/3/24
f 18/3/25 45/3/25 44/3/25
f 12/2/26 11/1/26 38/1/26
f 27/2/27 54/2/27 52/4/27
f 6/3/28 33/3/28 32/3/28
f 18/3/29 19/3/29 46/3/29
f 11/1/30 9/1/30 36/1/30
f 27/2/31 26/1/31 53/1/31
