# Blender 4.1.1
# www.blender.org
mtllib exter_blend_mesh_targets.mtl
o bedroom
v -0.877955 -7.956563 0.000000
v 1.122045 -5.956563 0.000000
v 1.122045 -7.956563 0.000000
v -0.877955 -5.956563 0.000000
vn -0.0000 -0.0000 1.0000
vt 0.000000 0.000000
vt 1.000000 0.000000
vt 1.000000 1.000000
vt 0.000000 1.000000
s 0
f 3/1/1 2/2/1 4/3/1 1/4/1
o indoor
v 5.759753 -5.149529 0.000000
v 5.759753 -3.149529 0.000000
v 3.076301 -5.149529 0.000000
v 3.076301 -3.149529 0.000000
vn -0.0000 -0.0000 1.0000
vt 0.000000 0.000000
vt 1.000000 0.000000
vt 1.000000 1.000000
vt 0.000000 1.000000
s 0
f 5/5/2 6/6/2 8/7/2 7/8/2
o outdoor
v 8.664423 -5.491254 0.000000
v 8.664423 -3.491254 0.000000
v 6.664423 -5.491254 0.000000
v 6.664423 -3.491254 0.000000
vn -0.0000 -0.0000 1.0000
vt 0.000000 0.000000
vt 1.000000 0.000000
vt 1.000000 1.000000
vt 0.000000 1.000000
s 0
f 9/9/3 10/10/3 12/11/3 11/12/3
o corridor
v 2.171632 -5.198347 0.000000
v 2.000769 -2.588122 0.000000
v -0.560638 -5.198347 0.000000
v -0.731501 -2.588122 0.000000
vn -0.0000 -0.0000 1.0000
vt 0.000000 0.000000
vt 1.000000 0.000000
vt 1.000000 1.000000
vt 0.000000 1.000000
s 0
f 13/13/4 14/14/4 16/15/4 15/16/4
