# Blender 4.1.1
# www.blender.org
mtllib untitled_plane.mtl
o living_room
v -4.440990 -0.067713 0.800000
v -4.796954 -4.390138 0.800000
v 0.305203 -4.424039 0.800000
v 0.017041 -2.898477 0.800000
v 0.305204 -0.084663 0.800000
v -4.796954 -4.390138 -1.700000
v -4.440990 -0.067713 -1.700000
v 0.305203 -4.424039 -1.700000
v 0.017041 -2.898477 -1.700000
v 0.305204 -0.084663 -1.700000
vn -0.0000 -0.0000 1.0000
vn -0.0000 -0.0000 -1.0000
vn -0.0066 -1.0000 -0.0000
vn 0.0036 1.0000 -0.0000
vn 0.9826 0.1856 -0.0000
vn -0.9966 0.0821 -0.0000
vn 0.9948 -0.1019 -0.0000
vt 0.000000 0.000000
s 0
f 2/1/1 3/1/1 4/1/1
f 9/1/2 8/1/2 6/1/2
f 2/1/3 8/1/3 3/1/3
f 5/1/4 7/1/4 1/1/4
f 3/1/5 9/1/5 4/1/5
f 1/1/6 6/1/6 2/1/6
f 4/1/7 10/1/7 5/1/7
f 5/1/1 1/1/1 4/1/1
f 1/1/1 2/1/1 4/1/1
f 6/1/2 7/1/2 9/1/2
f 7/1/2 10/1/2 9/1/2
f 2/1/3 6/1/3 8/1/3
f 5/1/4 10/1/4 7/1/4
f 3/1/5 8/1/5 9/1/5
f 1/1/6 7/1/6 6/1/6
f 4/1/7 9/1/7 10/1/7
o living_room
v -4.440990 -0.067713 0.800000
v 0.050942 3.712291 0.800000
v -4.440990 3.712291 0.800000
v 0.305204 -0.084663 0.800000
v -4.440990 3.712291 -1.700000
v 0.050942 3.712291 -1.700000
v -4.440990 -0.067713 -1.700000
v 0.305204 -0.084663 -1.700000
vn -0.0000 -0.0000 1.0000
vn -0.0000 -0.0000 -1.0000
vn 0.9978 0.0668 -0.0000
vn -0.0000 1.0000 -0.0000
vn -0.0036 -1.0000 -0.0000
vn -1.0000 -0.0000 -0.0000
vt 0.000000 0.000000
s 0
f 12/2/8 11/2/8 14/2/8
f 16/2/9 17/2/9 15/2/9
f 14/2/10 16/2/10 12/2/10
f 12/2/11 15/2/11 13/2/11
f 11/2/12 18/2/12 14/2/12
f 13/2/13 17/2/13 11/2/13
f 12/2/8 13/2/8 11/2/8
f 16/2/9 18/2/9 17/2/9
f 14/2/10 18/2/10 16/2/10
f 12/2/11 16/2/11 15/2/11
f 11/2/12 17/2/12 18/2/12
f 13/2/13 15/2/13 17/2/13
o bedroom
v 0.050942 3.712291 0.800000
v -4.440990 3.712291 0.800000
v 0.017041 6.848168 0.800000
v -4.407089 6.915971 0.800000
v 0.050942 3.712291 -1.700000
v 0.017041 6.848168 -1.700000
v -4.440990 3.712291 -1.700000
v -4.407089 6.915971 -1.700000
vn -0.0000 -0.0000 1.0000
vn -0.0000 -0.0000 -1.0000
vn 0.0153 0.9999 -0.0000
vn 0.9999 0.0108 -0.0000
vn -0.9999 0.0106 -0.0000
vn -0.0000 -1.0000 -0.0000
vt 0.000000 0.000000
s 0
f 21/3/14 20/3/14 19/3/14
f 25/3/15 24/3/15 23/3/15
f 21/3/16 26/3/16 22/3/16
f 19/3/17 24/3/17 21/3/17
f 22/3/18 25/3/18 20/3/18
f 20/3/19 23/3/19 19/3/19
f 21/3/14 22/3/14 20/3/14
f 25/3/15 26/3/15 24/3/15
f 21/3/16 24/3/16 26/3/16
f 19/3/17 23/3/17 24/3/17
f 22/3/18 26/3/18 25/3/18
f 20/3/19 25/3/19 23/3/19
o living_room
v 0.050942 3.712291 0.800000
v 5.119200 -0.152466 0.800000
v 0.305204 -0.084663 0.800000
v 5.237855 2.356236 0.800000
v 3.051216 2.457940 0.800000
v 2.983413 3.661439 0.800000
v 0.305204 -0.084663 -1.700000
v 5.119200 -0.152466 -1.700000
v 5.237855 2.356236 -1.700000
v 3.051216 2.457940 -1.700000
v 2.983413 3.661439 -1.700000
v 0.050942 3.712291 -1.700000
vn -0.0000 -0.0000 1.0000
vn -0.0000 -0.0000 -1.0000
vn -0.9978 -0.0668 -0.0000
vn 0.9984 0.0562 -0.0000
vn 0.9989 -0.0472 -0.0000
vn 0.0173 0.9998 -0.0000
vn 0.0465 0.9989 -0.0000
vn -0.0141 -0.9999 -0.0000
vt 0.000000 0.000000
s 0
f 28/4/20 30/4/20 31/4/20
f 33/4/21 38/4/21 36/4/21
f 27/4/22 33/4/22 29/4/22
f 31/4/23 37/4/23 32/4/23
f 28/4/24 35/4/24 30/4/24
f 32/4/25 38/4/25 27/4/25
f 30/4/26 36/4/26 31/4/26
f 29/4/27 34/4/27 28/4/27
f 31/4/20 32/4/20 27/4/20
f 27/4/20 29/4/20 31/4/20
f 29/4/20 28/4/20 31/4/20
f 38/4/21 37/4/21 36/4/21
f 36/4/21 35/4/21 34/4/21
f 34/4/21 33/4/21 36/4/21
f 27/4/22 38/4/22 33/4/22
f 31/4/23 36/4/23 37/4/23
f 28/4/24 34/4/24 35/4/24
f 32/4/25 37/4/25 38/4/25
f 30/4/26 35/4/26 36/4/26
f 29/4/27 33/4/27 34/4/27
o living_room
v 0.017041 -2.898477 0.800000
v 5.000545 -3.000181 0.800000
v 5.119200 -0.152466 0.800000
v 0.305204 -0.084663 0.800000
v 5.000545 -3.000181 -1.700000
v 0.017041 -2.898477 -1.700000
v 5.119200 -0.152466 -1.700000
v 0.305204 -0.084663 -1.700000
vn -0.0000 -0.0000 1.0000
vn -0.0000 -0.0000 -1.0000
vn -0.9948 0.1019 -0.0000
vn 0.9991 -0.0416 -0.0000
vn 0.0141 0.9999 -0.0000
vn -0.0204 -0.9998 -0.0000
vt 0.000000 0.000000
s 0
f 40/5/28 42/5/28 39/5/28
f 43/5/29 46/5/29 45/5/29
f 42/5/30 44/5/30 39/5/30
f 40/5/31 45/5/31 41/5/31
f 41/5/32 46/5/32 42/5/32
f 39/5/33 43/5/33 40/5/33
f 40/5/28 41/5/28 42/5/28
f 43/5/29 44/5/29 46/5/29
f 42/5/30 46/5/30 44/5/30
f 40/5/31 43/5/31 45/5/31
f 41/5/32 45/5/32 46/5/32
f 39/5/33 44/5/33 43/5/33
o outside
v -4.440990 -0.067713 0.800000
v 0.050942 3.712291 0.800000
v -4.796954 -4.390138 0.800000
v -4.440990 3.712291 0.800000
v 0.017041 6.848168 0.800000
v -4.407089 6.915971 0.800000
v 0.305203 -4.424039 0.800000
v 0.017041 -2.898477 0.800000
v 5.000545 -3.000181 0.800000
v 5.119200 -0.152466 0.800000
v 5.237855 2.356236 0.800000
v 3.051216 2.457940 0.800000
v 2.983413 3.661439 0.800000
v -6.966642 -0.203318 0.800000
v -7.322607 -4.525743 0.800000
v -6.966642 3.576686 0.800000
v -6.932742 6.780365 0.800000
v -3.898568 -7.881980 0.800000
v 1.203590 -7.915881 0.800000
v 0.915428 -6.390319 0.800000
v 5.898932 -6.492023 0.800000
v -6.424221 -8.017585 0.800000
v 6.932923 -1.457669 0.800000
v 7.051579 1.390047 0.800000
v 7.170234 3.898749 0.800000
v 4.983595 4.000453 0.800000
v 4.915792 5.203952 0.800000
v 7.831310 -4.949511 0.800000
v 0.559463 6.288796 0.800000
v 0.525562 9.424673 0.800000
v -3.898568 9.492476 0.800000
v 3.491934 6.237945 0.800000
v -6.424221 9.356870 0.800000
v 5.424313 7.780457 0.800000
v -4.796954 -4.390138 -1.700000
v -4.440990 -0.067713 -1.700000
v 0.050942 3.712291 -1.700000
v 0.017041 6.848168 -1.700000
v -4.440990 3.712291 -1.700000
v -4.407089 6.915971 -1.700000
v 0.305203 -4.424039 -1.700000
v 0.017041 -2.898477 -1.700000
v 5.000545 -3.000181 -1.700000
v 5.119200 -0.152466 -1.700000
v 5.237855 2.356236 -1.700000
v 3.051216 2.457940 -1.700000
v 2.983413 3.661439 -1.700000
v -7.322607 -4.525743 -1.700000
v -6.966642 -0.203318 -1.700000
v -6.966642 3.576686 -1.700000
v -6.932742 6.780365 -1.700000
v 1.203590 -7.915881 -1.700000
v -3.898568 -7.881980 -1.700000
v 0.915428 -6.390319 -1.700000
v 5.898932 -6.492023 -1.700000
v -6.424221 -8.017585 -1.700000
v 7.051579 1.390047 -1.700000
v 6.932923 -1.457669 -1.700000
v 7.170234 3.898749 -1.700000
v 4.983595 4.000453 -1.700000
v 4.915792 5.203952 -1.700000
v 7.831310 -4.949511 -1.700000
v 0.559463 6.288796 -1.700000
v 0.525562 9.424673 -1.700000
v -3.898568 9.492476 -1.700000
v 3.491934 6.237945 -1.700000
v -6.424221 9.356870 -1.700000
v 5.424313 7.780457 -1.700000
vn -0.0000 -0.0000 1.0000
vn -0.0000 -0.0000 -1.0000
vn -0.0465 -0.9989 -0.0000
vn -0.9984 -0.0562 -0.0000
vn -0.0173 -0.9998 -0.0000
vn -0.9966 0.0821 -0.0000
vn 0.9999 0.0108 -0.0000
vn 0.9966 -0.0821 -0.0000
vn -1.0000 -0.0000 -0.0000
vn 0.0153 0.9999 -0.0000
vn -0.9999 -0.0108 -0.0000
vn -0.9685 -0.2492 -0.0000
vn -0.9999 0.0106 -0.0000
vn 0.0173 0.9998 -0.0000
vn 1.0000 -0.0000 -0.0000
vn 0.9991 -0.0416 -0.0000
vn -0.0536 0.9986 -0.0000
vn -0.0153 -0.9999 -0.0000
vn 0.9989 -0.0472 -0.0000
vn -0.6239 0.7815 -0.0000
vn 0.9999 -0.0106 -0.0000
vn 0.0465 0.9989 -0.0000
vn 0.0066 1.0000 -0.0000
vn 0.9984 0.0562 -0.0000
vn -0.9826 -0.1856 -0.0000
vn 0.9685 0.2492 -0.0000
vn -0.0066 -1.0000 -0.0000
vn 0.9811 -0.1936 -0.0000
vn 0.0204 0.9998 -0.0000
vn 0.9826 0.1856 -0.0000
vn -0.9991 0.0416 -0.0000
vn -0.0204 -0.9998 -0.0000
vn -0.9989 0.0472 -0.0000
vn 0.6239 -0.7815 -0.0000
vn 0.0536 -0.9986 -0.0000
vn -0.9811 0.1936 -0.0000
vt 0.000000 0.000000
s 0
f 63/6/34 50/6/34 52/6/34
f 62/6/34 47/6/34 50/6/34
f 60/6/34 49/6/34 47/6/34
f 66/6/34 55/6/34 54/6/34
f 64/6/34 53/6/34 49/6/34
f 68/6/34 49/6/34 61/6/34
f 53/6/34 66/6/34 54/6/34
f 57/6/34 72/6/34 58/6/34
f 74/6/34 55/6/34 67/6/34
f 72/6/34 59/6/34 58/6/34
f 70/6/34 57/6/34 56/6/34
f 69/6/34 56/6/34 55/6/34
f 75/6/34 51/6/34 48/6/34
f 73/6/34 78/6/34 59/6/34
f 52/6/34 79/6/34 63/6/34
f 51/6/34 77/6/34 52/6/34
f 59/6/34 75/6/34 48/6/34
f 85/6/35 97/6/35 86/6/35
f 82/6/35 96/6/35 85/6/35
f 81/6/35 95/6/35 82/6/35
f 89/6/35 100/6/35 88/6/35
f 87/6/35 99/6/35 81/6/35
f 81/6/35 102/6/35 94/6/35
f 87/6/35 100/6/35 98/6/35
f 91/6/35 106/6/35 105/6/35
f 89/6/35 108/6/35 101/6/35
f 93/6/35 106/6/35 92/6/35
f 91/6/35 103/6/35 90/6/35
f 90/6/35 104/6/35 89/6/35
f 84/6/35 109/6/35 83/6/35
f 107/6/35 112/6/35 114/6/35
f 86/6/35 113/6/35 111/6/35
f 84/6/35 111/6/35 110/6/35
f 93/6/35 109/6/35 112/6/35
f 58/6/36 91/6/36 57/6/36
f 59/6/37 92/6/37 58/6/37
f 48/6/38 93/6/38 59/6/38
f 60/6/39 94/6/39 61/6/39
f 75/6/40 110/6/40 76/6/40
f 49/6/41 82/6/41 47/6/41
f 62/6/42 95/6/42 60/6/42
f 76/6/43 111/6/43 77/6/43
f 51/6/44 83/6/44 48/6/44
f 61/6/45 102/6/45 68/6/45
f 63/6/46 96/6/46 62/6/46
f 78/6/47 109/6/47 75/6/47
f 47/6/48 85/6/48 50/6/48
f 69/6/49 103/6/49 70/6/49
f 77/6/50 113/6/50 79/6/50
f 52/6/51 84/6/51 51/6/51
f 70/6/52 105/6/52 71/6/52
f 80/6/53 112/6/53 78/6/53
f 50/6/54 86/6/54 52/6/54
f 71/6/55 106/6/55 72/6/55
f 53/6/56 81/6/56 49/6/56
f 72/6/57 107/6/57 73/6/57
f 54/6/58 87/6/58 53/6/58
f 74/6/59 104/6/59 69/6/59
f 64/6/60 98/6/60 65/6/60
f 73/6/61 114/6/61 80/6/61
f 55/6/62 88/6/62 54/6/62
f 65/6/63 100/6/63 66/6/63
f 56/6/64 89/6/64 55/6/64
f 66/6/65 101/6/65 67/6/65
f 57/6/66 90/6/66 56/6/66
f 67/6/67 108/6/67 74/6/67
f 68/6/68 99/6/68 64/6/68
f 79/6/69 97/6/69 63/6/69
f 63/6/34 62/6/34 50/6/34
f 62/6/34 60/6/34 47/6/34
f 60/6/34 61/6/34 49/6/34
f 66/6/34 67/6/34 55/6/34
f 64/6/34 65/6/34 53/6/34
f 68/6/34 64/6/34 49/6/34
f 53/6/34 65/6/34 66/6/34
f 57/6/34 71/6/34 72/6/34
f 74/6/34 69/6/34 55/6/34
f 72/6/34 73/6/34 59/6/34
f 70/6/34 71/6/34 57/6/34
f 69/6/34 70/6/34 56/6/34
f 75/6/34 76/6/34 51/6/34
f 73/6/34 80/6/34 78/6/34
f 52/6/34 77/6/34 79/6/34
f 51/6/34 76/6/34 77/6/34
f 59/6/34 78/6/34 75/6/34
f 85/6/35 96/6/35 97/6/35
f 82/6/35 95/6/35 96/6/35
f 81/6/35 94/6/35 95/6/35
f 89/6/35 101/6/35 100/6/35
f 87/6/35 98/6/35 99/6/35
f 81/6/35 99/6/35 102/6/35
f 87/6/35 88/6/35 100/6/35
f 91/6/35 92/6/35 106/6/35
f 89/6/35 104/6/35 108/6/35
f 93/6/35 107/6/35 106/6/35
f 91/6/35 105/6/35 103/6/35
f 90/6/35 103/6/35 104/6/35
f 84/6/35 110/6/35 109/6/35
f 107/6/35 93/6/35 112/6/35
f 86/6/35 97/6/35 113/6/35
f 84/6/35 86/6/35 111/6/35
f 93/6/35 83/6/35 109/6/35
f 58/6/36 92/6/36 91/6/36
f 59/6/37 93/6/37 92/6/37
f 48/6/38 83/6/38 93/6/38
f 60/6/39 95/6/39 94/6/39
f 75/6/40 109/6/40 110/6/40
f 49/6/41 81/6/41 82/6/41
f 62/6/42 96/6/42 95/6/42
f 76/6/43 110/6/43 111/6/43
f 51/6/44 84/6/44 83/6/44
f 61/6/45 94/6/45 102/6/45
f 63/6/46 97/6/46 96/6/46
f 78/6/47 112/6/47 109/6/47
f 47/6/48 82/6/48 85/6/48
f 69/6/49 104/6/49 103/6/49
f 77/6/50 111/6/50 113/6/50
f 52/6/51 86/6/51 84/6/51
f 70/6/52 103/6/52 105/6/52
f 80/6/53 114/6/53 112/6/53
f 50/6/54 85/6/54 86/6/54
f 71/6/55 105/6/55 106/6/55
f 53/6/56 87/6/56 81/6/56
f 72/6/57 106/6/57 107/6/57
f 54/6/58 88/6/58 87/6/58
f 74/6/59 108/6/59 104/6/59
f 64/6/60 99/6/60 98/6/60
f 73/6/61 107/6/61 114/6/61
f 55/6/62 89/6/62 88/6/62
f 65/6/63 98/6/63 100/6/63
f 56/6/64 90/6/64 89/6/64
f 66/6/65 100/6/65 101/6/65
f 57/6/66 91/6/66 90/6/66
f 67/6/67 101/6/67 108/6/67
f 68/6/68 102/6/68 99/6/68
f 79/6/69 113/6/69 97/6/69
