# Blender 4.1.1
# www.blender.org
mtllib collision_2.mtl
o backdoor
v -4.036306 -0.589688 0.900000
v -4.774867 -0.556864 0.900000
v -4.151193 -2.017572 0.900000
v -4.889754 -1.984748 0.900000
v -4.774867 -0.556864 -1.700000
v -4.036306 -0.589688 -1.700000
v -4.889754 -1.984748 -1.700000
v -4.151193 -2.017572 -1.700000
vn -0.0000 -0.0000 -1.0000
vn -0.0000 -0.0000 1.0000
vn 0.9968 -0.0802 -0.0000
vn 0.0444 0.9990 -0.0000
vn -0.9968 0.0802 -0.0000
vn -0.0444 -0.9990 -0.0000
vt 0.000000 1.000000
s 0
f 3/1/1 2/1/1 1/1/1
f 5/1/2 8/1/2 6/1/2
f 4/1/3 5/1/3 2/1/3
f 3/1/4 7/1/4 4/1/4
f 1/1/5 8/1/5 3/1/5
f 2/1/6 6/1/6 1/1/6
f 3/1/1 4/1/1 2/1/1
f 5/1/2 7/1/2 8/1/2
f 4/1/3 7/1/3 5/1/3
f 3/1/4 8/1/4 7/1/4
f 1/1/5 6/1/5 8/1/5
f 2/1/6 5/1/6 6/1/6
o bedroom_door
v -0.327088 3.332892 0.900000
v 0.050399 4.055041 0.900000
v -1.705735 3.513430 0.900000
v -1.705735 4.038629 0.900000
v -0.327088 3.332892 -1.700000
v 0.050399 4.055041 -1.700000
v -1.705735 4.038629 -1.700000
v -1.705735 3.513430 -1.700000
vn -0.0000 -0.0000 -1.0000
vn -0.0000 -0.0000 1.0000
vn 0.0093 -1.0000 -0.0000
vn 1.0000 -0.0000 -0.0000
vn 0.1298 0.9915 -0.0000
vn -0.8862 0.4633 -0.0000
vt 0.000000 0.000000
vt 0.000000 1.000000
s 0
f 9/2/7 12/3/7 10/2/7
f 13/2/8 15/3/8 16/3/8
f 12/3/9 14/2/9 10/2/9
f 11/3/10 15/3/10 12/3/10
f 9/2/11 16/3/11 11/3/11
f 10/2/12 13/2/12 9/2/12
f 9/2/7 11/3/7 12/3/7
f 13/2/8 14/2/8 15/3/8
f 12/3/9 15/3/9 14/2/9
f 11/3/10 16/3/10 15/3/10
f 9/2/11 13/2/11 16/3/11
f 10/2/12 14/2/12 13/2/12
o main_door
v 4.892076 0.181699 0.900000
v 5.745523 0.148874 0.900000
v 4.892076 1.839358 0.900000
v 5.745523 1.806534 0.900000
v 5.745523 0.148874 -1.700000
v 4.892076 0.181699 -1.700000
v 5.745523 1.806534 -1.700000
v 4.892076 1.839358 -1.700000
vn -0.0000 -0.0000 -1.0000
vn -0.0000 -0.0000 1.0000
vn -1.0000 -0.0000 -0.0000
vn -0.0384 -0.9993 -0.0000
vn 1.0000 -0.0000 -0.0000
vn 0.0384 0.9993 -0.0000
vt 0.000000 1.000000
s 0
f 17/4/13 20/4/13 18/4/13
f 22/4/14 23/4/14 24/4/14
f 20/4/15 21/4/15 18/4/15
f 19/4/16 23/4/16 20/4/16
f 17/4/17 24/4/17 19/4/17
f 18/4/18 22/4/18 17/4/18
f 17/4/13 19/4/13 20/4/13
f 22/4/14 21/4/14 23/4/14
f 20/4/15 23/4/15 21/4/15
f 19/4/16 24/4/16 23/4/16
f 17/4/17 22/4/17 24/4/17
f 18/4/18 21/4/18 22/4/18
o obstacles
v 1.232145 -9.927040 0.900001
v 1.232145 -7.927040 0.900001
v -6.508174 -9.990352 0.900001
v -6.423758 -7.927040 0.900001
v 2.730537 -9.927040 0.900001
v 2.730537 -7.927040 0.900001
v 0.873375 -6.365335 0.900000
v 2.371767 -6.365335 0.900000
v 6.233821 -7.905936 0.900001
v 5.875051 -6.344232 0.900000
v 8.280920 -6.470856 0.900000
v 7.816629 -4.930256 0.900000
v 9.167294 -5.690003 0.900000
v 8.808523 -4.128299 0.900000
v 6.888048 -1.405869 0.900000
v 8.112087 -0.878265 0.900000
v 7.056881 3.849055 0.900000
v 8.280920 4.376658 0.900000
v 7.141297 5.094198 0.900000
v 8.365336 5.621801 0.900000
v 5.706218 3.891264 0.900000
v 6.149405 5.621801 0.900000
v 4.840949 3.849055 0.900000
v 4.925365 5.094198 0.900000
v 6.402654 8.069880 0.899999
v 5.178615 7.542275 0.899999
v 6.297133 8.977357 0.899999
v 5.431865 8.935147 0.899999
v 3.490286 6.128300 0.899999
v 4.102306 8.365336 0.899999
v 1.379874 6.254925 0.899999
v 1.633124 8.006566 0.899999
v 0.556814 6.191612 0.899999
v 0.451293 7.099090 0.899999
v 1.675333 10.391330 0.899999
v 0.493502 9.483853 0.899999
v 1.590916 12.121867 0.899999
v 0.409085 11.214391 0.899999
v -6.386440 9.315021 0.899999
v -6.470857 11.045558 0.899999
v -7.315022 9.293916 0.899999
v -7.399438 11.024453 0.899999
v -6.935147 6.888047 0.899999
v -7.863729 6.866942 0.899999
v -6.850731 -0.498393 0.900000
v -7.779312 -0.519498 0.900000
v -7.336125 -4.529279 0.900000
v -8.264707 -4.550384 0.900000
v -8.259816 -8.053664 0.900001
v -8.259816 -10.053664 0.900001
v -8.243603 9.251708 0.899999
v -8.328019 10.982245 0.899999
v -8.792310 6.824734 0.899999
v -8.707893 -0.561707 0.900000
v -9.193288 -4.592592 0.900000
v -9.188397 -8.095873 0.900001
v -1.773706 -0.704576 0.900000
v -1.822944 0.097315 0.900000
v -4.036306 -0.589688 0.900000
v -4.085544 0.212202 0.900000
v -4.774867 -0.556864 0.900000
v -4.824104 0.245027 0.900000
v -4.151193 -2.017572 0.900000
v -4.889754 -1.984748 0.900000
v -4.266080 -4.052719 0.900000
v -5.004642 -4.019894 0.900000
v -4.315318 -4.742042 0.900000
v -5.053879 -4.709218 0.900000
v 0.050398 -4.413793 0.900000
v 0.001161 -5.103117 0.900000
v 0.871021 -4.692805 0.900000
v 0.526360 -5.119529 0.900000
v -0.409151 -3.182858 0.900000
v 0.411472 -3.461870 0.900000
v -0.491213 -2.821784 0.900000
v 0.033986 -2.838196 0.900000
v 2.003482 -3.429045 0.900000
v 1.625995 -2.805371 0.900000
v 5.318800 -3.445457 0.900000
v 4.941313 -2.821783 0.900000
v 6.172248 -3.478282 0.900000
v 5.794761 -2.854608 0.900000
v 4.875663 -0.638925 0.900000
v 5.729111 -0.671749 0.900000
v 4.892076 0.181699 0.900000
v 5.745523 0.148874 0.900000
v 2.413793 -0.655337 0.900000
v 2.430205 0.165286 0.900000
v 4.892076 1.839358 0.900000
v 5.745523 1.806534 0.900000
v 5.121850 2.610744 0.900000
v 5.975298 2.577920 0.900000
v 3.349304 1.970658 0.900000
v 3.579079 2.742044 0.900000
v 2.938993 1.954246 0.900000
v 2.938993 2.561507 0.900000
v 3.529841 3.956567 0.900000
v 2.889755 3.776030 0.900000
v 3.529841 4.481766 0.900000
v 2.889755 4.301229 0.900000
v -0.327088 3.332892 0.900000
v 0.050399 4.055041 0.900000
v -1.705735 3.513430 0.900000
v -1.705735 4.038629 0.900000
v -4.036305 3.497017 0.900000
v -4.036305 4.022216 0.900000
v -4.774866 3.464192 0.900000
v -4.774866 3.989391 0.900000
v -3.987068 6.927222 0.899999
v -4.725629 6.894399 0.899999
v -3.970655 7.550897 0.899999
v -4.709216 7.518073 0.899999
v -0.441976 7.058522 0.899999
v -0.425563 7.682197 0.899999
v 0.083223 7.074935 0.899999
v 0.099636 7.698609 0.899999
v 0.542772 3.562667 0.900000
v 0.542772 4.087866 0.900000
v -0.491212 1.133622 0.900000
v 0.444298 1.232097 0.900000
v -0.690484 -0.737400 0.900000
v 0.097315 -0.458388 0.900000
v -0.641246 -1.525198 0.900000
v 0.146552 -1.246187 0.900000
v 1.196950 -0.458388 0.900000
v 1.246187 -1.246187 0.900000
v -6.508174 -9.990352 -1.699999
v 1.232145 -9.927040 -1.699999
v 1.232145 -7.927040 -1.699999
v -6.423758 -7.927040 -1.699999
v 2.730537 -9.927040 -1.699999
v 2.730537 -7.927040 -1.699999
v 2.371767 -6.365335 -1.700000
v 0.873375 -6.365335 -1.700000
v 6.233821 -7.905936 -1.699999
v 5.875051 -6.344232 -1.700000
v 8.280920 -6.470856 -1.700000
v 7.816629 -4.930256 -1.700000
v 9.167294 -5.690003 -1.700000
v 8.808523 -4.128299 -1.700000
v 8.112087 -0.878265 -1.700000
v 6.888048 -1.405869 -1.700000
v 8.280920 4.376658 -1.700000
v 7.056881 3.849055 -1.700000
v 8.365336 5.621801 -1.700001
v 7.141297 5.094198 -1.700000
v 6.149405 5.621801 -1.700001
v 5.706218 3.891264 -1.700000
v 4.925365 5.094198 -1.700000
v 4.840949 3.849055 -1.700000
v 6.402654 8.069880 -1.700001
v 5.178615 7.542275 -1.700001
v 6.297133 8.977357 -1.700001
v 5.431865 8.935147 -1.700001
v 4.102306 8.365336 -1.700001
v 3.490286 6.128300 -1.700001
v 1.633124 8.006566 -1.700001
v 1.379874 6.254925 -1.700001
v 0.451293 7.099090 -1.700001
v 0.556814 6.191612 -1.700001
v 1.675333 10.391330 -1.700001
v 0.493502 9.483853 -1.700001
v 1.590916 12.121867 -1.700001
v 0.409085 11.214391 -1.700001
v -6.470857 11.045558 -1.700001
v -6.386440 9.315021 -1.700001
v -7.399438 11.024453 -1.700001
v -7.315022 9.293916 -1.700001
v -7.863729 6.866942 -1.700001
v -6.935147 6.888047 -1.700001
v -7.779312 -0.519498 -1.700000
v -6.850731 -0.498393 -1.700000
v -8.264707 -4.550384 -1.700000
v -7.336125 -4.529279 -1.700000
v -8.259816 -8.053664 -1.699999
v -8.259816 -10.053664 -1.699999
v -8.328019 10.982245 -1.700001
v -8.243603 9.251708 -1.700001
v -8.792310 6.824734 -1.700001
v -8.707893 -0.561707 -1.700000
v -9.193288 -4.592592 -1.700000
v -9.188397 -8.095873 -1.699999
v -4.036306 -0.589688 -1.700000
v -1.773706 -0.704576 -1.700000
v -1.822944 0.097315 -1.700000
v -4.085544 0.212202 -1.700000
v -4.824104 0.245027 -1.700000
v -4.774867 -0.556864 -1.700000
v -4.889754 -1.984748 -1.700000
v -4.151193 -2.017572 -1.700000
v -5.004642 -4.019894 -1.700000
v -4.266080 -4.052719 -1.700000
v -5.053879 -4.709218 -1.700000
v -4.315318 -4.742042 -1.700000
v 0.001161 -5.103117 -1.700000
v 0.050398 -4.413793 -1.700000
v 0.526360 -5.119529 -1.700000
v 0.871021 -4.692805 -1.700000
v 0.411472 -3.461870 -1.700000
v -0.409151 -3.182858 -1.700000
v 0.033986 -2.838196 -1.700000
v -0.491213 -2.821784 -1.700000
v 2.003482 -3.429045 -1.700000
v 1.625995 -2.805371 -1.700000
v 5.318800 -3.445457 -1.700000
v 4.941313 -2.821783 -1.700000
v 6.172248 -3.478282 -1.700000
v 5.794761 -2.854608 -1.700000
v 5.729111 -0.671749 -1.700000
v 4.875663 -0.638925 -1.700000
v 5.745523 0.148874 -1.700000
v 4.892076 0.181699 -1.700000
v 2.430205 0.165286 -1.700000
v 2.413793 -0.655337 -1.700000
v 5.745523 1.806534 -1.700000
v 4.892076 1.839358 -1.700000
v 5.975298 2.577920 -1.700000
v 5.121850 2.610744 -1.700000
v 3.579079 2.742044 -1.700000
v 3.349304 1.970658 -1.700000
v 2.938993 2.561507 -1.700000
v 2.938993 1.954246 -1.700000
v 3.529841 3.956567 -1.700000
v 2.889755 3.776030 -1.700000
v 3.529841 4.481766 -1.700000
v 2.889755 4.301229 -1.700000
v 0.542772 4.087866 -1.700000
v 0.050399 4.055041 -1.700000
v 0.542772 3.562667 -1.700000
v -0.327088 3.332892 -1.700000
v -1.705735 4.038629 -1.700000
v -1.705735 3.513430 -1.700000
v -4.036305 4.022216 -1.700000
v -4.036305 3.497017 -1.700000
v -4.774866 3.989391 -1.700000
v -4.774866 3.464192 -1.700000
v -3.987068 6.927222 -1.700001
v -4.725629 6.894399 -1.700001
v -3.970655 7.550897 -1.700001
v -4.709216 7.518073 -1.700001
v -0.441976 7.058522 -1.700001
v -0.425563 7.682197 -1.700001
v 0.083223 7.074935 -1.700001
v 0.099636 7.698609 -1.700001
v -0.491212 1.133622 -1.700000
v 0.444298 1.232097 -1.700000
v -0.690484 -0.737400 -1.700000
v -0.641246 -1.525198 -1.700000
v 0.146552 -1.246187 -1.700000
v 1.246187 -1.246187 -1.700000
v 1.196950 -0.458388 -1.700000
vn -0.0000 -0.0000 -1.0000
vn -0.0000 -0.0000 1.0000
vn 0.0507 0.9987 -0.0000
vn 0.9947 -0.1029 -0.0000
vn -0.9981 -0.0613 -0.0000
vn -0.9947 0.1029 -0.0000
vn 0.9992 0.0405 -0.0000
vn -0.0507 -0.9987 -0.0000
vn 0.0487 -0.9988 -0.0000
vn -0.9992 -0.0405 -0.0000
vn 0.2715 -0.9624 -0.0000
vn 0.9981 0.0613 -0.0000
vn -0.9933 -0.1155 -0.0000
vn 0.0444 0.9990 -0.0000
vn -1.0000 -0.0000 -0.0000
vn -0.6421 0.7666 -0.0000
vn -0.0444 -0.9990 -0.0000
vn 0.3939 -0.9191 -0.0000
vn 0.8862 -0.4633 -0.0000
vn -0.9984 0.0564 -0.0000
vn 0.0599 0.9982 -0.0000
vn 0.9984 -0.0564 -0.0000
vn 0.1438 -0.9896 -0.0000
vn 0.9933 0.1155 -0.0000
vn -0.0070 1.0000 -0.0000
vn -0.0767 0.9971 -0.0000
vn 0.0070 -1.0000 -0.0000
vn 0.9975 -0.0712 -0.0000
vn 1.0000 -0.0000 -0.0000
vn -0.0834 -0.9965 -0.0000
vn 0.9998 -0.0177 -0.0000
vn 0.0834 0.9965 -0.0000
vn -0.9998 0.0177 -0.0000
vn -0.9999 0.0150 -0.0000
vn -0.0082 1.0000 -0.0000
vn -0.7779 0.6283 -0.0000
vn 0.6090 -0.7932 -0.0000
vn 0.9999 -0.0153 -0.0000
vn -0.0000 -1.0000 -0.0000
vn 0.0312 0.9995 -0.0000
vn -0.9988 -0.0487 -0.0000
vn 0.9999 -0.0169 -0.0000
vn -0.9999 0.0169 -0.0000
vn 0.9368 0.3498 -0.0000
vn -0.0245 0.9997 -0.0000
vn 0.0444 -0.9990 -0.0000
vn -0.9368 -0.3498 -0.0000
vn 0.0245 -0.9997 -0.0000
vn 0.9997 -0.0263 -0.0000
vn -0.0000 1.0000 -0.0000
vn -0.0312 -0.9995 -0.0000
vn 0.9751 0.2216 -0.0000
vn 0.9746 0.2239 -0.0000
vn -0.8555 -0.5178 -0.0000
vn 0.0227 -0.9997 -0.0000
vn 0.0370 -0.9993 -0.0000
vn 0.8555 0.5178 -0.0000
vn -0.0370 0.9993 -0.0000
vn -0.9754 0.2205 -0.0000
vn -0.9997 0.0263 -0.0000
vn 0.0060 -1.0000 -0.0000
vn -0.0050 -1.0000 -0.0000
vn 0.0312 -0.9995 -0.0000
vn -0.0060 1.0000 -0.0000
vn 0.0050 1.0000 -0.0000
vn -0.9999 -0.0114 -0.0000
vn 0.5887 -0.8084 -0.0000
vn -0.0905 0.9959 -0.0000
vn -0.5740 0.8188 -0.0000
vn 0.0384 0.9993 -0.0000
vn 0.0905 -0.9959 -0.0000
vn -0.9746 -0.2239 -0.0000
vn -0.9928 0.1196 -0.0000
vn -0.9884 -0.1521 -0.0000
vn 0.9995 0.0301 -0.0000
vn 0.9868 0.1618 -0.0000
vn -0.6610 0.7504 -0.0000
vn -0.9995 -0.0301 -0.0000
vn -0.1047 0.9945 -0.0000
vn -0.0384 -0.9993 -0.0000
vn -0.0361 0.9993 -0.0000
vn -0.9991 0.0422 -0.0000
vn 0.9670 0.2548 -0.0000
vn 0.9972 -0.0744 -0.0000
vn -0.9778 -0.2095 -0.0000
vn -0.9998 0.0200 -0.0000
vn 0.9998 -0.0200 -0.0000
vn -0.9658 -0.2593 -0.0000
vn 0.9995 -0.0321 -0.0000
vn -0.0067 1.0000 -0.0000
vn 0.9988 0.0487 -0.0000
vn -0.9995 0.0321 -0.0000
vn 0.0067 -1.0000 -0.0000
vn 0.9754 -0.2205 -0.0000
vn 0.3958 -0.9183 -0.0000
vn 0.9999 0.0114 -0.0000
vn -0.3338 0.9426 -0.0000
vn 0.9928 -0.1196 -0.0000
vn -0.9977 0.0676 -0.0000
vn 1.0000 0.0014 -0.0000
vn 0.9981 0.0624 -0.0000
vn -0.9584 0.2855 -0.0000
vn -0.9981 -0.0624 -0.0000
vn -0.4696 -0.8829 -0.0000
vn 0.0848 0.9964 -0.0000
vn -0.0454 0.9990 -0.0000
vn 0.9977 -0.0676 -0.0000
vn -0.0848 -0.9964 -0.0000
vn -0.0487 0.9988 -0.0000
vn -0.0400 0.9992 -0.0000
vn 0.0454 -0.9990 -0.0000
vt 0.000000 0.000000
vt 1.000000 1.000000
vt 1.000000 0.000000
vt 0.000000 1.000000
s 0
f 25/5/19 28/6/19 26/7/19
f 30/7/19 25/5/19 26/7/19
f 26/7/19 32/7/19 30/7/19
f 34/7/19 30/7/19 32/7/19
f 34/7/19 35/7/19 33/7/19
f 36/7/19 37/7/19 35/7/19
f 39/7/19 38/7/19 36/7/19
f 41/7/19 40/7/19 39/7/19
f 43/7/19 42/7/19 41/7/19
f 45/7/19 43/7/19 41/7/19
f 45/7/19 48/7/19 46/7/19
f 50/7/19 46/7/19 48/7/19
f 52/7/19 49/7/19 50/7/19
f 50/7/19 54/7/19 52/7/19
f 53/7/19 56/7/19 54/7/19
f 55/7/19 58/7/19 56/7/19
f 60/7/19 56/7/19 58/7/19
f 62/7/19 59/7/19 60/7/19
f 63/7/19 62/7/19 60/7/19
f 65/7/19 64/7/19 63/7/19
f 67/7/19 65/7/19 63/7/19
f 69/7/19 68/7/19 67/7/19
f 71/7/19 70/7/19 69/7/19
f 27/8/19 73/6/19 28/6/19
f 71/7/19 73/6/19 72/7/19
f 70/7/19 77/7/19 68/7/19
f 73/6/19 79/7/19 72/7/19
f 75/7/19 66/7/19 65/7/19
f 72/7/19 78/7/19 70/7/19
f 68/7/19 75/7/19 65/7/19
f 83/8/19 82/7/19 81/5/19
f 85/8/19 84/6/19 83/8/19
f 89/8/19 88/8/19 87/8/19
f 91/8/19 90/8/19 89/8/19
f 93/8/19 91/8/19 89/8/19
f 93/8/19 96/8/19 94/8/19
f 93/8/19 98/8/19 95/8/19
f 97/8/19 100/8/19 98/8/19
f 104/8/19 101/8/19 102/8/19
f 106/8/19 103/8/19 104/8/19
f 104/8/19 108/8/19 106/8/19
f 107/8/19 110/8/19 108/8/19
f 107/8/19 112/8/19 109/8/19
f 115/8/19 114/8/19 113/8/19
f 113/8/19 118/8/19 115/8/19
f 117/8/19 120/8/19 118/8/19
f 122/8/19 118/8/19 120/8/19
f 124/5/19 121/8/19 122/8/19
f 126/5/19 141/5/19 125/5/19
f 127/8/19 130/8/19 128/8/19
f 129/8/19 132/8/19 130/8/19
f 84/6/19 131/8/19 129/8/19
f 134/8/19 130/8/19 132/8/19
f 136/8/19 133/8/19 134/8/19
f 135/8/19 137/8/19 133/8/19
f 138/8/19 139/8/19 137/8/19
f 142/5/19 122/8/19 141/5/19
f 126/5/19 139/8/19 142/5/19
f 144/5/19 125/5/19 141/5/19
f 148/5/19 145/5/19 146/5/19
f 149/5/19 148/5/19 146/5/19
f 152/5/20 154/6/20 151/8/20
f 152/5/20 156/7/20 153/7/20
f 153/7/20 157/7/20 158/7/20
f 156/7/20 160/7/20 157/7/20
f 160/7/20 161/7/20 162/7/20
f 162/7/20 163/7/20 164/7/20
f 164/7/20 166/7/20 162/7/20
f 165/7/20 168/7/20 166/7/20
f 167/7/20 170/7/20 168/7/20
f 170/7/20 172/7/20 168/7/20
f 172/7/20 173/7/20 174/7/20
f 171/7/20 176/7/20 173/7/20
f 175/7/20 178/7/20 176/7/20
f 176/7/20 179/7/20 180/7/20
f 180/7/20 181/7/20 182/7/20
f 182/7/20 183/7/20 184/7/20
f 181/7/20 186/7/20 183/7/20
f 185/7/20 188/7/20 186/7/20
f 188/7/20 190/7/20 186/7/20
f 189/7/20 192/7/20 190/7/20
f 192/7/20 194/7/20 190/7/20
f 193/7/20 196/7/20 194/7/20
f 195/7/20 198/7/20 196/7/20
f 151/8/20 199/6/20 200/8/20
f 199/6/20 198/7/20 197/7/20
f 195/7/20 203/7/20 204/7/20
f 199/6/20 205/7/20 206/6/20
f 191/7/20 202/7/20 192/7/20
f 197/7/20 204/7/20 205/7/20
f 193/7/20 202/7/20 203/7/20
f 209/7/20 207/8/20 208/5/20
f 210/6/20 212/8/20 207/8/20
f 213/8/20 216/8/20 214/8/20
f 215/8/20 218/8/20 216/8/20
f 218/8/20 220/8/20 216/8/20
f 220/8/20 221/8/20 222/8/20
f 220/8/20 223/8/20 224/8/20
f 224/8/20 225/8/20 226/8/20
f 227/8/20 230/8/20 228/8/20
f 229/8/20 232/8/20 230/8/20
f 230/8/20 233/8/20 234/8/20
f 234/8/20 235/8/20 236/8/20
f 234/8/20 237/8/20 238/8/20
f 239/8/20 242/8/20 240/8/20
f 240/8/20 243/8/20 244/8/20
f 244/8/20 245/8/20 246/8/20
f 243/8/20 248/8/20 245/8/20
f 247/8/20 250/5/20 248/8/20
f 252/5/20 253/5/20 251/5/20
f 256/8/20 257/8/20 258/8/20
f 258/8/20 259/8/20 260/8/20
f 210/6/20 260/8/20 211/6/20
f 257/8/20 262/8/20 259/8/20
f 261/8/20 264/8/20 262/8/20
f 263/8/20 265/8/20 266/8/20
f 266/8/20 267/8/20 268/8/20
f 251/5/20 248/8/20 250/5/20
f 267/8/20 252/5/20 251/5/20
f 254/5/20 270/5/20 253/5/20
f 81/5/21 207/8/21 83/8/21
f 48/7/22 176/7/22 50/7/22
f 82/7/23 208/5/23 81/5/23
f 49/7/24 171/7/24 46/7/24
f 120/8/25 248/8/25 122/8/25
f 84/6/26 209/7/26 82/7/26
f 52/7/27 177/7/27 51/7/27
f 121/8/28 243/8/28 118/8/28
f 124/5/29 249/5/29 123/5/29
f 85/8/30 211/6/30 86/6/30
f 51/7/31 175/7/31 49/7/31
f 83/8/32 212/8/32 85/8/32
f 123/5/33 247/8/33 121/8/33
f 50/7/34 180/7/34 53/7/34
f 88/8/35 214/8/35 87/8/35
f 54/7/36 178/7/36 52/7/36
f 125/5/37 252/5/37 126/5/37
f 87/8/38 216/8/38 89/8/38
f 53/7/39 182/7/39 55/7/39
f 128/8/33 256/8/33 127/8/33
f 90/8/40 213/8/40 88/8/40
f 56/7/41 179/7/41 54/7/41
f 91/8/32 217/8/32 92/8/32
f 57/7/42 183/7/42 58/7/42
f 127/8/43 258/8/43 129/8/43
f 55/7/44 184/7/44 57/7/44
f 130/8/45 255/8/45 128/8/45
f 92/8/46 215/8/46 90/8/46
f 131/8/47 259/8/47 132/8/47
f 89/8/48 220/8/48 93/8/48
f 58/7/49 186/7/49 60/7/49
f 94/8/50 218/8/50 91/8/50
f 59/7/51 181/7/51 56/7/51
f 129/8/52 210/6/52 84/6/52
f 25/5/53 151/8/53 27/8/53
f 95/8/54 221/8/54 96/8/54
f 62/7/55 187/7/55 61/7/55
f 86/6/56 260/8/56 131/8/56
f 28/6/57 153/7/57 26/7/57
f 96/8/58 219/8/58 94/8/58
f 61/7/59 185/7/59 59/7/59
f 132/8/60 262/8/60 134/8/60
f 133/8/61 257/8/61 130/8/61
f 30/7/33 155/5/33 29/5/33
f 93/8/62 224/8/62 97/8/62
f 60/7/63 190/7/63 63/7/63
f 136/8/64 263/8/64 135/8/64
f 98/8/65 222/8/65 95/8/65
f 64/7/66 188/7/66 62/7/66
f 134/8/67 264/8/67 136/8/67
f 29/5/68 152/5/68 25/5/68
f 99/8/69 225/8/69 100/8/69
f 31/7/57 157/7/57 32/7/57
f 97/8/70 226/8/70 99/8/70
f 26/7/71 158/7/71 31/7/71
f 100/8/72 223/8/72 98/8/72
f 66/7/73 189/7/73 64/7/73
f 135/8/74 266/8/74 138/8/74
f 101/8/75 228/8/75 102/8/75
f 137/8/76 261/8/76 133/8/76
f 63/7/77 194/7/77 67/7/77
f 140/8/78 267/8/78 139/8/78
f 32/7/79 160/7/79 34/7/79
f 102/8/80 230/8/80 104/8/80
f 138/8/81 268/8/81 140/8/81
f 33/7/82 156/7/82 30/7/82
f 103/8/83 227/8/83 101/8/83
f 106/8/72 231/8/72 105/8/72
f 67/7/84 196/7/84 69/7/84
f 34/7/85 162/7/85 36/7/85
f 122/8/86 253/5/86 141/5/86
f 35/7/87 159/7/87 33/7/87
f 105/8/88 229/8/88 103/8/88
f 142/5/89 250/5/89 124/5/89
f 38/7/90 163/7/90 37/7/90
f 69/7/91 198/7/91 71/7/91
f 139/8/92 251/5/92 142/5/92
f 104/8/93 234/8/93 107/8/93
f 126/5/94 265/8/94 137/8/94
f 37/7/95 161/7/95 35/7/95
f 108/8/96 232/8/96 106/8/96
f 144/5/97 269/5/97 143/5/97
f 109/8/98 235/8/98 110/8/98
f 27/8/99 200/8/99 74/8/99
f 141/5/100 270/5/100 144/5/100
f 36/7/101 166/7/101 39/7/101
f 74/8/47 199/6/47 73/6/47
f 143/5/102 254/5/102 125/5/102
f 40/7/103 164/7/103 38/7/103
f 110/8/104 233/8/104 108/8/104
f 111/8/105 237/8/105 112/8/105
f 71/7/106 154/6/106 28/6/106
f 39/7/107 168/7/107 41/7/107
f 107/8/108 238/8/108 111/8/108
f 75/7/109 201/7/109 76/7/109
f 42/7/110 165/7/110 40/7/110
f 112/8/111 236/8/111 109/8/111
f 77/7/112 202/7/112 75/7/112
f 43/7/113 169/7/113 44/7/113
f 114/8/88 240/8/88 113/8/88
f 78/7/114 203/7/114 77/7/114
f 148/5/115 272/5/115 147/5/115
f 115/8/98 241/8/98 116/8/98
f 79/7/116 204/7/116 78/7/116
f 44/7/117 167/7/117 42/7/117
f 80/6/118 205/7/118 79/7/118
f 147/5/119 271/5/119 145/5/119
f 116/8/120 239/8/120 114/8/120
f 149/5/121 274/5/121 150/5/121
f 41/7/58 172/7/58 45/7/58
f 146/5/57 275/5/57 149/5/57
f 46/7/122 170/7/122 43/7/122
f 113/8/123 244/8/123 117/8/123
f 73/6/124 206/6/124 80/6/124
f 150/5/68 273/5/68 148/5/68
f 47/7/125 173/7/125 48/7/125
f 118/8/126 242/8/126 115/8/126
f 45/7/127 174/7/127 47/7/127
f 119/8/47 245/8/47 120/8/47
f 117/8/128 246/8/128 119/8/128
f 76/7/129 191/7/129 66/7/129
f 25/5/19 27/8/19 28/6/19
f 30/7/19 29/5/19 25/5/19
f 26/7/19 31/7/19 32/7/19
f 34/7/19 33/7/19 30/7/19
f 34/7/19 36/7/19 35/7/19
f 36/7/19 38/7/19 37/7/19
f 39/7/19 40/7/19 38/7/19
f 41/7/19 42/7/19 40/7/19
f 43/7/19 44/7/19 42/7/19
f 45/7/19 46/7/19 43/7/19
f 45/7/19 47/7/19 48/7/19
f 50/7/19 49/7/19 46/7/19
f 52/7/19 51/7/19 49/7/19
f 50/7/19 53/7/19 54/7/19
f 53/7/19 55/7/19 56/7/19
f 55/7/19 57/7/19 58/7/19
f 60/7/19 59/7/19 56/7/19
f 62/7/19 61/7/19 59/7/19
f 63/7/19 64/7/19 62/7/19
f 65/7/19 66/7/19 64/7/19
f 67/7/19 68/7/19 65/7/19
f 69/7/19 70/7/19 68/7/19
f 71/7/19 72/7/19 70/7/19
f 27/8/19 74/8/19 73/6/19
f 71/7/19 28/6/19 73/6/19
f 70/7/19 78/7/19 77/7/19
f 73/6/19 80/6/19 79/7/19
f 75/7/19 76/7/19 66/7/19
f 72/7/19 79/7/19 78/7/19
f 68/7/19 77/7/19 75/7/19
f 83/8/19 84/6/19 82/7/19
f 85/8/19 86/6/19 84/6/19
f 89/8/19 90/8/19 88/8/19
f 91/8/19 92/8/19 90/8/19
f 93/8/19 94/8/19 91/8/19
f 93/8/19 95/8/19 96/8/19
f 93/8/19 97/8/19 98/8/19
f 97/8/19 99/8/19 100/8/19
f 104/8/19 103/8/19 101/8/19
f 106/8/19 105/8/19 103/8/19
f 104/8/19 107/8/19 108/8/19
f 107/8/19 109/8/19 110/8/19
f 107/8/19 111/8/19 112/8/19
f 115/8/19 116/8/19 114/8/19
f 113/8/19 117/8/19 118/8/19
f 117/8/19 119/8/19 120/8/19
f 122/8/19 121/8/19 118/8/19
f 124/5/19 123/5/19 121/8/19
f 126/5/19 142/5/19 141/5/19
f 127/8/19 129/8/19 130/8/19
f 129/8/19 131/8/19 132/8/19
f 84/6/19 86/6/19 131/8/19
f 134/8/19 133/8/19 130/8/19
f 136/8/19 135/8/19 133/8/19
f 135/8/19 138/8/19 137/8/19
f 138/8/19 140/8/19 139/8/19
f 142/5/19 124/5/19 122/8/19
f 126/5/19 137/8/19 139/8/19
f 144/5/19 143/5/19 125/5/19
f 148/5/19 147/5/19 145/5/19
f 149/5/19 150/5/19 148/5/19
f 152/5/20 153/7/20 154/6/20
f 152/5/20 155/5/20 156/7/20
f 153/7/20 156/7/20 157/7/20
f 156/7/20 159/7/20 160/7/20
f 160/7/20 159/7/20 161/7/20
f 162/7/20 161/7/20 163/7/20
f 164/7/20 165/7/20 166/7/20
f 165/7/20 167/7/20 168/7/20
f 167/7/20 169/7/20 170/7/20
f 170/7/20 171/7/20 172/7/20
f 172/7/20 171/7/20 173/7/20
f 171/7/20 175/7/20 176/7/20
f 175/7/20 177/7/20 178/7/20
f 176/7/20 178/7/20 179/7/20
f 180/7/20 179/7/20 181/7/20
f 182/7/20 181/7/20 183/7/20
f 181/7/20 185/7/20 186/7/20
f 185/7/20 187/7/20 188/7/20
f 188/7/20 189/7/20 190/7/20
f 189/7/20 191/7/20 192/7/20
f 192/7/20 193/7/20 194/7/20
f 193/7/20 195/7/20 196/7/20
f 195/7/20 197/7/20 198/7/20
f 151/8/20 154/6/20 199/6/20
f 199/6/20 154/6/20 198/7/20
f 195/7/20 193/7/20 203/7/20
f 199/6/20 197/7/20 205/7/20
f 191/7/20 201/7/20 202/7/20
f 197/7/20 195/7/20 204/7/20
f 193/7/20 192/7/20 202/7/20
f 209/7/20 210/6/20 207/8/20
f 210/6/20 211/6/20 212/8/20
f 213/8/20 215/8/20 216/8/20
f 215/8/20 217/8/20 218/8/20
f 218/8/20 219/8/20 220/8/20
f 220/8/20 219/8/20 221/8/20
f 220/8/20 222/8/20 223/8/20
f 224/8/20 223/8/20 225/8/20
f 227/8/20 229/8/20 230/8/20
f 229/8/20 231/8/20 232/8/20
f 230/8/20 232/8/20 233/8/20
f 234/8/20 233/8/20 235/8/20
f 234/8/20 236/8/20 237/8/20
f 239/8/20 241/8/20 242/8/20
f 240/8/20 242/8/20 243/8/20
f 244/8/20 243/8/20 245/8/20
f 243/8/20 247/8/20 248/8/20
f 247/8/20 249/5/20 250/5/20
f 252/5/20 254/5/20 253/5/20
f 256/8/20 255/8/20 257/8/20
f 258/8/20 257/8/20 259/8/20
f 210/6/20 258/8/20 260/8/20
f 257/8/20 261/8/20 262/8/20
f 261/8/20 263/8/20 264/8/20
f 263/8/20 261/8/20 265/8/20
f 266/8/20 265/8/20 267/8/20
f 251/5/20 253/5/20 248/8/20
f 267/8/20 265/8/20 252/5/20
f 254/5/20 269/5/20 270/5/20
f 271/5/20 272/5/20 273/5/20
f 273/5/20 274/5/20 275/5/20
f 81/5/21 208/5/21 207/8/21
f 48/7/22 173/7/22 176/7/22
f 82/7/23 209/7/23 208/5/23
f 49/7/24 175/7/24 171/7/24
f 120/8/25 245/8/25 248/8/25
f 84/6/26 210/6/26 209/7/26
f 52/7/27 178/7/27 177/7/27
f 121/8/28 247/8/28 243/8/28
f 124/5/29 250/5/29 249/5/29
f 85/8/30 212/8/30 211/6/30
f 51/7/31 177/7/31 175/7/31
f 83/8/32 207/8/32 212/8/32
f 123/5/33 249/5/33 247/8/33
f 50/7/34 176/7/34 180/7/34
f 88/8/35 213/8/35 214/8/35
f 54/7/36 179/7/36 178/7/36
f 125/5/37 254/5/37 252/5/37
f 87/8/38 214/8/38 216/8/38
f 53/7/39 180/7/39 182/7/39
f 128/8/33 255/8/33 256/8/33
f 90/8/40 215/8/40 213/8/40
f 56/7/41 181/7/41 179/7/41
f 91/8/32 218/8/32 217/8/32
f 57/7/42 184/7/42 183/7/42
f 127/8/43 256/8/43 258/8/43
f 55/7/44 182/7/44 184/7/44
f 130/8/45 257/8/45 255/8/45
f 92/8/46 217/8/46 215/8/46
f 131/8/47 260/8/47 259/8/47
f 89/8/48 216/8/48 220/8/48
f 58/7/49 183/7/49 186/7/49
f 94/8/50 219/8/50 218/8/50
f 59/7/51 185/7/51 181/7/51
f 129/8/52 258/8/52 210/6/52
f 25/5/53 152/5/53 151/8/53
f 95/8/54 222/8/54 221/8/54
f 62/7/55 188/7/55 187/7/55
f 86/6/56 211/6/56 260/8/56
f 28/6/57 154/6/57 153/7/57
f 96/8/58 221/8/58 219/8/58
f 61/7/59 187/7/59 185/7/59
f 132/8/60 259/8/60 262/8/60
f 133/8/61 261/8/61 257/8/61
f 30/7/33 156/7/33 155/5/33
f 93/8/62 220/8/62 224/8/62
f 60/7/63 186/7/63 190/7/63
f 136/8/64 264/8/64 263/8/64
f 98/8/65 223/8/65 222/8/65
f 64/7/66 189/7/66 188/7/66
f 134/8/67 262/8/67 264/8/67
f 29/5/68 155/5/68 152/5/68
f 99/8/69 226/8/69 225/8/69
f 31/7/57 158/7/57 157/7/57
f 97/8/70 224/8/70 226/8/70
f 26/7/71 153/7/71 158/7/71
f 100/8/72 225/8/72 223/8/72
f 66/7/73 191/7/73 189/7/73
f 135/8/74 263/8/74 266/8/74
f 101/8/75 227/8/75 228/8/75
f 137/8/76 265/8/76 261/8/76
f 63/7/77 190/7/77 194/7/77
f 140/8/78 268/8/78 267/8/78
f 32/7/79 157/7/79 160/7/79
f 102/8/80 228/8/80 230/8/80
f 138/8/81 266/8/81 268/8/81
f 33/7/82 159/7/82 156/7/82
f 103/8/83 229/8/83 227/8/83
f 106/8/72 232/8/72 231/8/72
f 67/7/84 194/7/84 196/7/84
f 34/7/85 160/7/85 162/7/85
f 122/8/86 248/8/86 253/5/86
f 35/7/87 161/7/87 159/7/87
f 105/8/88 231/8/88 229/8/88
f 142/5/89 251/5/89 250/5/89
f 38/7/90 164/7/90 163/7/90
f 69/7/91 196/7/91 198/7/91
f 139/8/92 267/8/92 251/5/92
f 104/8/93 230/8/93 234/8/93
f 126/5/94 252/5/94 265/8/94
f 37/7/95 163/7/95 161/7/95
f 108/8/96 233/8/96 232/8/96
f 144/5/97 270/5/97 269/5/97
f 109/8/98 236/8/98 235/8/98
f 27/8/99 151/8/99 200/8/99
f 141/5/100 253/5/100 270/5/100
f 36/7/101 162/7/101 166/7/101
f 74/8/47 200/8/47 199/6/47
f 143/5/102 269/5/102 254/5/102
f 40/7/103 165/7/103 164/7/103
f 110/8/104 235/8/104 233/8/104
f 111/8/105 238/8/105 237/8/105
f 71/7/106 198/7/106 154/6/106
f 39/7/107 166/7/107 168/7/107
f 107/8/108 234/8/108 238/8/108
f 75/7/109 202/7/109 201/7/109
f 42/7/110 167/7/110 165/7/110
f 112/8/111 237/8/111 236/8/111
f 77/7/112 203/7/112 202/7/112
f 43/7/113 170/7/113 169/7/113
f 114/8/88 239/8/88 240/8/88
f 78/7/114 204/7/114 203/7/114
f 148/5/115 273/5/115 272/5/115
f 115/8/98 242/8/98 241/8/98
f 79/7/116 205/7/116 204/7/116
f 44/7/117 169/7/117 167/7/117
f 80/6/118 206/6/118 205/7/118
f 147/5/119 272/5/119 271/5/119
f 116/8/120 241/8/120 239/8/120
f 149/5/121 275/5/121 274/5/121
f 41/7/58 168/7/58 172/7/58
f 46/7/122 171/7/122 170/7/122
f 113/8/123 240/8/123 244/8/123
f 73/6/124 199/6/124 206/6/124
f 150/5/68 274/5/68 273/5/68
f 47/7/125 174/7/125 173/7/125
f 118/8/126 243/8/126 242/8/126
f 45/7/127 172/7/127 174/7/127
f 119/8/47 246/8/47 245/8/47
f 117/8/128 244/8/128 246/8/128
f 76/7/129 201/7/129 191/7/129
o trash_door
v 0.411472 -3.461870 0.900000
v 0.033986 -2.838196 0.900000
v 2.003482 -3.429045 0.900000
v 1.625995 -2.805371 0.900000
v 0.411472 -3.461870 -1.700000
v 0.033986 -2.838196 -1.700000
v 2.003482 -3.429045 -1.700000
v 1.625995 -2.805371 -1.700000
vn -0.0000 -0.0000 -1.0000
vn -0.0000 -0.0000 1.0000
vn 0.8555 0.5178 -0.0000
vn -0.0206 0.9998 -0.0000
vn -0.8555 -0.5178 -0.0000
vn 0.0206 -0.9998 -0.0000
vt 0.000000 1.000000
s 0
f 279/9/130 276/9/130 277/9/130
f 280/9/131 283/9/131 281/9/131
f 276/9/132 281/9/132 277/9/132
f 278/9/133 280/9/133 276/9/133
f 279/9/134 282/9/134 278/9/134
f 277/9/135 283/9/135 279/9/135
f 279/9/130 278/9/130 276/9/130
f 280/9/131 282/9/131 283/9/131
f 276/9/132 280/9/132 281/9/132
f 278/9/133 282/9/133 280/9/133
f 279/9/134 283/9/134 282/9/134
f 277/9/135 281/9/135 283/9/135
