# Blender 4.1.1
# www.blender.org
mtllib gaskin_transitions.mtl
o back_outside
v 0.000000 -4.492023 -2.186548
v 0.000000 -4.492023 -0.186548
v 0.000000 -6.492023 -2.186548
v 0.000000 -6.492023 -0.186548
vn 1.0000 -0.0000 -0.0000
vt 0.000000 0.000000
vt 1.000000 0.000000
vt 1.000000 1.000000
vt 0.000000 1.000000
s 0
f 1/1/1 2/2/1 4/3/1 3/4/1
o back_inside
v 0.000000 -4.203680 -0.474710
v 0.000000 -4.203680 -2.186548
v 0.000000 -2.593546 -0.474710
v 0.000000 -2.593546 -2.186548
vn 1.0000 -0.0000 -0.0000
vt 0.000000 0.000000
vt 1.000000 0.000000
vt 1.000000 1.000000
vt 0.000000 1.000000
s 0
f 8/5/2 7/6/2 5/7/2 6/8/2
o bedroom_inside
v 0.000000 -0.440809 1.610406
v 0.000000 -0.440809 3.610406
v 0.000000 -2.440809 1.610406
v 0.000000 -2.440809 3.610406
vn 1.0000 -0.0000 -0.0000
vt 0.000000 0.000000
vt 1.000000 0.000000
vt 1.000000 1.000000
vt 0.000000 1.000000
s 0
f 9/9/3 10/10/3 12/11/3 11/12/3
o bedroom_outside
v 0.000000 -0.678118 4.085207
v 0.000000 -0.678118 6.085207
v 0.000000 -2.678118 4.085207
v 0.000000 -2.678118 6.085207
vn 1.0000 -0.0000 -0.0000
vt 0.000000 0.000000
vt 1.000000 0.000000
vt 1.000000 1.000000
vt 0.000000 1.000000
s 0
f 13/13/4 14/14/4 16/15/4 15/16/4
o main_inside
v 0.000000 2.949511 2.339104
v 0.000000 2.949511 0.339104
v 0.000000 4.949511 2.339104
v 0.000000 4.949511 0.339104
vn 1.0000 -0.0000 -0.0000
vt 0.000000 0.000000
vt 1.000000 0.000000
vt 1.000000 1.000000
vt 0.000000 1.000000
s 0
f 20/17/5 19/18/5 17/19/5 18/20/5
o main_outside
v 0.000000 7.356508 0.186548
v 0.000000 7.356508 2.186548
v 0.000000 5.356508 0.186548
v 0.000000 5.356508 2.186548
vn 1.0000 -0.0000 -0.0000
vt 0.000000 0.000000
vt 1.000000 0.000000
vt 1.000000 1.000000
vt 0.000000 1.000000
s 0
f 21/21/6 22/22/6 24/23/6 23/24/6
o trash_inside
v 0.000000 1.220359 -2.762872
v 0.000000 1.186458 -1.627357
v 0.000000 -0.389775 -2.813724
v 0.000000 -0.423677 -1.678209
vn 1.0000 -0.0000 -0.0000
vt 0.000000 0.000000
vt 1.000000 0.000000
vt 1.000000 1.000000
vt 0.000000 1.000000
s 0
f 25/25/7 26/26/7 28/27/7 27/28/7
o trash_outside
v 0.000000 1.559373 -5.034264
v 0.000000 1.559373 -3.034264
v 0.000000 -0.440627 -5.034264
v 0.000000 -0.440627 -3.034264
vn 1.0000 -0.0000 -0.0000
vt 0.000000 0.000000
vt 1.000000 0.000000
vt 1.000000 1.000000
vt 0.000000 1.000000
s 0
f 29/29/8 30/30/8 32/31/8 31/32/8
