# Blender 4.1.1
# www.blender.org
mtllib olson_trans.mtl
o indoor
v 6.024184 -2.037382 0.000000
v 6.125888 0.593183 0.000000
v 4.024184 -2.037382 0.000000
v 4.125888 0.593183 0.000000
vn -0.0000 -0.0000 1.0000
vt 0.000000 0.000000
vt 1.000000 0.000000
vt 1.000000 1.000000
vt 0.000000 1.000000
s 0
f 1/1/1 2/2/1 4/3/1 3/4/1
o outdoor
v 8.261675 -1.691588 0.000000
v 8.159971 2.057723 0.000000
v 6.261675 -1.691588 0.000000
v 6.159971 2.057723 0.000000
vn -0.0000 -0.0000 1.0000
vt 0.000000 0.000000
vt 1.000000 0.000000
vt 1.000000 1.000000
vt 0.000000 1.000000
s 0
f 5/5/2 6/6/2 8/7/2 7/8/2
o bedroom
v -3.979434 1.001537 0.000000
v -3.979434 2.171632 0.000000
v -5.979434 1.001537 0.000000
v -5.979434 2.171632 0.000000
vn -0.0000 -0.0000 1.0000
vt 0.000000 0.000000
vt 1.000000 0.000000
vt 1.000000 1.000000
vt 0.000000 1.000000
s 0
f 9/9/3 10/10/3 12/11/3 11/12/3
o corridor
v -3.832980 -0.243321 0.000000
v -4.052661 0.780319 0.000000
v -5.832980 -0.243321 0.000000
v -6.052661 0.780319 0.000000
vn -0.0000 -0.0000 1.0000
vt 0.000000 0.000000
vt 1.000000 0.000000
vt 1.000000 1.000000
vt 0.000000 1.000000
s 0
f 13/13/4 14/14/4 16/15/4 15/16/4
