# Blender 4.1.1
# www.blender.org
mtllib olson_cam_sep.mtl
o corr_cam
v -4.804784 -0.444448 -0.000000
v -4.479399 -1.776978 -0.000000
v -5.920391 -1.838956 -0.000000
v -5.904896 1.292145 -0.000000
v -3.921596 -0.382470 -0.000000
v -3.952585 0.655664 -0.000000
v -5.006213 0.702148 -0.000000
v -4.339948 1.709292 -0.000000
vn -0.0000 -0.0000 -1.0000
vt 0.000000 0.000000
s 0
f 1/1/1 4/1/1 7/1/1
f 1/1/1 2/1/1 3/1/1
f 4/1/1 8/1/1 7/1/1
f 7/1/1 6/1/1 1/1/1
f 6/1/1 5/1/1 1/1/1
f 1/1/1 3/1/1 4/1/1
o door_cam
v 4.625721 -1.960661 0.000000
v 5.075062 0.504175 0.000000
v 3.338470 -1.929672 0.000000
v 4.718688 0.643626 0.000000
v 4.734183 1.449342 0.000000
v -1.990445 2.626926 0.000000
v -2.424292 -2.176379 0.000000
vn -0.0000 -0.0000 1.0000
vt 0.000000 0.000000
s 0
f 12/2/2 14/2/2 11/2/2
f 11/2/2 9/2/2 12/2/2
f 9/2/2 10/2/2 12/2/2
f 12/2/2 13/2/2 14/2/2
f 14/2/2 15/2/2 11/2/2
o living_cam
v -0.069123 -1.542309 0.000000
v 0.643626 2.626926 0.000000
v -3.541104 -1.666265 0.000000
v -3.618576 2.549453 0.000000
vn -0.0000 -0.0000 1.0000
vt 0.000000 0.000000
vt 1.000000 1.000000
vt 0.000000 1.000000
vt 1.000000 0.000000
s 0
f 16/3/3 19/4/3 18/5/3
f 16/3/3 17/6/3 19/4/3
o kitchen_cam
v 5.322975 -1.852199 0.000000
v 4.625721 1.712749 0.000000
v -3.370664 -2.100112 0.000000
v -0.116812 2.363519 0.000000
v -2.859344 0.967806 0.000000
v 4.811655 0.426702 0.000000
v 5.322975 0.318241 0.000000
vn -0.0000 -0.0000 -1.0000
vt 0.000000 0.000000
s 0
f 23/7/4 25/7/4 20/7/4
f 20/7/4 22/7/4 23/7/4
f 22/7/4 24/7/4 23/7/4
f 23/7/4 21/7/4 25/7/4
f 25/7/4 26/7/4 20/7/4
