# Blender 4.2.1 LTS
# www.blender.org
mtllib person.mtl
o outside
v 2.691128 0.997950 1.383813
v 2.081584 0.930223 1.383813
v 2.081584 -0.390456 1.383813
v 1.438177 -1.812725 1.383813
v 2.826582 -1.812725 1.383813
v 2.826582 -3.776811 1.383813
v 2.691127 6.043619 1.383813
v 5.027712 6.009756 1.383813
v 5.230893 -6.519758 1.383813
v 2.894309 -6.384304 1.383813
v 2.657264 3.402262 1.383813
v 2.691128 0.997950 -1.383813
v 2.081584 0.930223 -1.383813
v 2.081584 -0.390456 -1.383813
v 1.438177 -1.812725 -1.383813
v 2.826582 -1.812725 -1.383813
v 2.826582 -3.776811 -1.383813
v 2.894309 -6.384304 -1.383813
v 2.691127 6.043619 -1.383813
v 2.657264 3.402262 -1.383813
v 5.027712 6.009756 -1.383813
v 5.230893 -6.519758 -1.383813
vn -0.0000 -0.0000 1.0000
vn -0.0000 -0.0000 -1.0000
vn -0.1104 0.9939 -0.0000
vn 0.0145 0.9999 -0.0000
vn -1.0000 -0.0000 -0.0000
vn 0.9999 0.0162 -0.0000
vn -0.9997 -0.0260 -0.0000
vn -0.9111 0.4122 -0.0000
vn -0.0579 -0.9983 -0.0000
vn -0.9999 0.0128 -0.0000
vn -0.0000 -1.0000 -0.0000
vn -0.9999 -0.0141 -0.0000
vt 0.000000 0.000000
s 0
f 1/1/1 5/1/1 8/1/1
f 12/1/2 16/1/2 14/1/2
f 1/1/3 13/1/3 2/1/3
f 8/1/4 19/1/4 7/1/4
f 5/1/5 17/1/5 6/1/5
f 2/1/5 14/1/5 3/1/5
f 9/1/6 21/1/6 8/1/6
f 6/1/7 18/1/7 10/1/7
f 3/1/8 15/1/8 4/1/8
f 10/1/9 22/1/9 9/1/9
f 7/1/10 20/1/10 11/1/10
f 4/1/11 16/1/11 5/1/11
f 11/1/12 12/1/12 1/1/12
f 1/1/1 2/1/1 3/1/1
f 3/1/1 4/1/1 5/1/1
f 5/1/1 6/1/1 9/1/1
f 6/1/1 10/1/1 9/1/1
f 9/1/1 8/1/1 5/1/1
f 8/1/1 7/1/1 11/1/1
f 1/1/1 3/1/1 5/1/1
f 8/1/1 11/1/1 1/1/1
f 12/1/2 20/1/2 21/1/2
f 20/1/2 19/1/2 21/1/2
f 21/1/2 22/1/2 16/1/2
f 12/1/2 21/1/2 16/1/2
f 22/1/2 18/1/2 17/1/2
f 16/1/2 15/1/2 14/1/2
f 22/1/2 17/1/2 16/1/2
f 14/1/2 13/1/2 12/1/2
f 1/1/3 12/1/3 13/1/3
f 8/1/4 21/1/4 19/1/4
f 5/1/5 16/1/5 17/1/5
f 2/1/5 13/1/5 14/1/5
f 9/1/6 22/1/6 21/1/6
f 6/1/7 17/1/7 18/1/7
f 3/1/8 14/1/8 15/1/8
f 10/1/9 18/1/9 22/1/9
f 7/1/10 19/1/10 20/1/10
f 4/1/11 15/1/11 16/1/11
f 11/1/12 20/1/12 12/1/12
o living_room
v -7.772710 1.946129 1.383813
v -6.587486 -0.627501 1.383813
v -7.704983 0.727041 1.383813
v -6.452031 3.436125 1.383813
v -3.167266 3.368398 1.383813
v 2.691128 0.997950 1.383813
v 2.081584 0.930223 1.383813
v 2.081584 -0.390456 1.383813
v -3.099539 -0.864544 1.383813
v -3.099539 -0.221136 1.383813
v -4.047719 -0.322727 1.383813
v -6.147259 -0.830681 1.383813
v 0.219088 3.402262 1.383813
v 1.641358 3.402262 1.383813
v 2.657264 3.402262 1.383813
v -1.914315 -0.492046 1.383813
v 0.354543 -0.017957 1.383813
v -7.704983 0.727041 -1.383813
v -7.772710 1.946129 -1.383813
v -6.587486 -0.627501 -1.383813
v -6.452031 3.436125 -1.383813
v -3.167266 3.368398 -1.383813
v 0.219088 3.402262 -1.383813
v 2.691128 0.997950 -1.383813
v 2.081584 0.930223 -1.383813
v 2.081584 -0.390456 -1.383813
v -3.099539 -0.864544 -1.383813
v -3.099539 -0.221136 -1.383813
v -4.047719 -0.322727 -1.383813
v -6.147259 -0.830681 -1.383813
v 0.354543 -0.017957 -1.383813
v 1.641358 3.402262 -1.383813
v 2.657264 3.402262 -1.383813
v -1.914315 -0.492046 -1.383813
vn -0.0000 -0.0000 1.0000
vn -0.0000 -0.0000 -1.0000
vn -0.4191 -0.9080 -0.0000
vn -0.0100 1.0000 -0.0000
vn -0.2108 -0.9775 -0.0000
vn 0.0206 0.9998 -0.0000
vn -0.0000 1.0000 -0.0000
vn 0.1104 -0.9939 -0.0000
vn 1.0000 -0.0000 -0.0000
vn 0.9999 0.0141 -0.0000
vn -1.0000 -0.0000 -0.0000
vn -0.9985 -0.0555 -0.0000
vn 0.2998 -0.9540 -0.0000
vn 0.1065 -0.9943 -0.0000
vn -0.7714 -0.6364 -0.0000
vn 0.2045 -0.9789 -0.0000
vn 0.2352 -0.9720 -0.0000
vn -0.7483 0.6633 -0.0000
vt 0.000000 0.000000
s 0
f 35/2/13 39/2/13 29/2/13
f 50/2/14 51/2/14 44/2/14
f 24/2/15 52/2/15 34/2/15
f 35/2/16 44/2/16 27/2/16
f 39/2/17 48/2/17 30/2/17
f 27/2/18 43/2/18 26/2/18
f 36/2/19 45/2/19 35/2/19
f 29/2/20 46/2/20 28/2/20
f 37/2/19 54/2/19 36/2/19
f 30/2/21 47/2/21 29/2/21
f 28/2/22 55/2/22 37/2/22
f 32/2/23 49/2/23 31/2/23
f 23/2/24 40/2/24 25/2/24
f 31/2/25 56/2/25 38/2/25
f 33/2/26 50/2/26 32/2/26
f 25/2/27 42/2/27 24/2/27
f 38/2/28 53/2/28 39/2/28
f 34/2/29 51/2/29 33/2/29
f 26/2/30 41/2/30 23/2/30
f 23/2/13 25/2/13 26/2/13
f 25/2/13 24/2/13 26/2/13
f 24/2/13 34/2/13 33/2/13
f 32/2/13 31/2/13 38/2/13
f 24/2/13 33/2/13 26/2/13
f 32/2/13 38/2/13 27/2/13
f 38/2/13 39/2/13 35/2/13
f 27/2/13 38/2/13 35/2/13
f 33/2/13 32/2/13 27/2/13
f 27/2/13 26/2/13 33/2/13
f 36/2/13 35/2/13 29/2/13
f 28/2/13 37/2/13 29/2/13
f 37/2/13 36/2/13 29/2/13
f 39/2/13 30/2/13 29/2/13
f 42/2/14 40/2/14 43/2/14
f 40/2/14 41/2/14 43/2/14
f 43/2/14 44/2/14 51/2/14
f 44/2/14 45/2/14 56/2/14
f 45/2/14 54/2/14 47/2/14
f 56/2/14 45/2/14 53/2/14
f 54/2/14 55/2/14 47/2/14
f 55/2/14 46/2/14 47/2/14
f 47/2/14 48/2/14 53/2/14
f 43/2/14 51/2/14 42/2/14
f 52/2/14 42/2/14 51/2/14
f 44/2/14 56/2/14 50/2/14
f 45/2/14 47/2/14 53/2/14
f 56/2/14 49/2/14 50/2/14
f 24/2/15 42/2/15 52/2/15
f 35/2/16 45/2/16 44/2/16
f 39/2/17 53/2/17 48/2/17
f 27/2/18 44/2/18 43/2/18
f 36/2/19 54/2/19 45/2/19
f 29/2/20 47/2/20 46/2/20
f 37/2/19 55/2/19 54/2/19
f 30/2/21 48/2/21 47/2/21
f 28/2/22 46/2/22 55/2/22
f 32/2/23 50/2/23 49/2/23
f 23/2/24 41/2/24 40/2/24
f 31/2/25 49/2/25 56/2/25
f 33/2/26 51/2/26 50/2/26
f 25/2/27 40/2/27 42/2/27
f 38/2/28 56/2/28 53/2/28
f 34/2/29 52/2/29 51/2/29
f 26/2/30 43/2/30 41/2/30
o bedroom
v 2.081584 -0.390456 1.383813
v 1.438177 -1.812725 1.383813
v 2.826582 -1.812725 1.383813
v 2.826582 -3.776811 1.383813
v 0.523861 -3.776811 1.383813
v 0.456133 -2.828631 1.383813
v 0.456133 -1.914315 1.383813
v -1.846588 -1.914315 1.383813
v -1.880452 -2.997949 1.383813
v -1.914315 -4.555672 1.383813
v -5.605442 -4.724989 1.383813
v -5.537715 -0.898408 1.383813
v -3.099539 -0.864544 1.383813
v -1.914315 -0.492046 1.383813
v 0.354543 -0.017957 1.383813
v 2.081584 -0.390456 -1.383813
v 1.438177 -1.812725 -1.383813
v 2.826582 -1.812725 -1.383813
v 2.826582 -3.776811 -1.383813
v 0.523861 -3.776811 -1.383813
v 0.456133 -2.828631 -1.383813
v 0.456133 -1.914315 -1.383813
v -1.846588 -1.914315 -1.383813
v -1.880452 -2.997949 -1.383813
v -1.914315 -4.555672 -1.383813
v -5.605442 -4.724989 -1.383813
v -5.537715 -0.898408 -1.383813
v -3.099539 -0.864544 -1.383813
v 0.354543 -0.017957 -1.383813
v -1.914315 -0.492046 -1.383813
vn -0.0000 -0.0000 1.0000
vn -0.0000 -0.0000 -1.0000
vn -0.0000 1.0000 -0.0000
vn -0.0139 0.9999 -0.0000
vn 1.0000 -0.0000 -0.0000
vn 0.2108 0.9775 -0.0000
vn -0.0000 -1.0000 -0.0000
vn -0.2998 0.9540 -0.0000
vn -0.9975 -0.0712 -0.0000
vn 0.9998 -0.0217 -0.0000
vn -0.2045 0.9789 -0.0000
vn 0.0458 -0.9989 -0.0000
vn 0.9111 -0.4122 -0.0000
vn 0.0723 -0.9974 -0.0000
vn -0.9998 0.0177 -0.0000
vt 0.000000 0.000000
s 0
f 63/3/31 70/3/31 64/3/31
f 64/3/31 65/3/31 62/3/31
f 86/3/32 78/3/32 79/3/32
f 79/3/32 77/3/32 80/3/32
f 59/3/33 73/3/33 58/3/33
f 69/3/34 83/3/34 68/3/34
f 60/3/35 74/3/35 59/3/35
f 57/3/36 85/3/36 71/3/36
f 61/3/37 75/3/37 60/3/37
f 70/3/38 84/3/38 69/3/38
f 62/3/39 76/3/39 61/3/39
f 66/3/40 80/3/40 65/3/40
f 71/3/41 86/3/41 70/3/41
f 67/3/42 81/3/42 66/3/42
f 58/3/43 72/3/43 57/3/43
f 65/3/44 77/3/44 62/3/44
f 68/3/45 82/3/45 67/3/45
f 63/3/31 71/3/31 70/3/31
f 57/3/31 71/3/31 58/3/31
f 71/3/31 63/3/31 58/3/31
f 64/3/31 70/3/31 69/3/31
f 64/3/31 69/3/31 65/3/31
f 69/3/31 68/3/31 67/3/31
f 59/3/31 58/3/31 60/3/31
f 58/3/31 63/3/31 62/3/31
f 60/3/31 58/3/31 62/3/31
f 69/3/31 67/3/31 65/3/31
f 63/3/31 64/3/31 62/3/31
f 67/3/31 66/3/31 65/3/31
f 62/3/31 61/3/31 60/3/31
f 86/3/32 85/3/32 78/3/32
f 78/3/32 85/3/32 73/3/32
f 85/3/32 72/3/32 73/3/32
f 73/3/32 74/3/32 75/3/32
f 84/3/32 86/3/32 79/3/32
f 78/3/32 73/3/32 77/3/32
f 73/3/32 75/3/32 77/3/32
f 77/3/32 75/3/32 76/3/32
f 83/3/32 84/3/32 82/3/32
f 84/3/32 79/3/32 80/3/32
f 82/3/32 84/3/32 80/3/32
f 79/3/32 78/3/32 77/3/32
f 80/3/32 81/3/32 82/3/32
f 59/3/33 74/3/33 73/3/33
f 69/3/34 84/3/34 83/3/34
f 60/3/35 75/3/35 74/3/35
f 57/3/36 72/3/36 85/3/36
f 61/3/37 76/3/37 75/3/37
f 70/3/38 86/3/38 84/3/38
f 62/3/39 77/3/39 76/3/39
f 66/3/40 81/3/40 80/3/40
f 71/3/41 85/3/41 86/3/41
f 67/3/42 82/3/42 81/3/42
f 58/3/43 73/3/43 72/3/43
f 65/3/44 80/3/44 77/3/44
f 68/3/45 83/3/45 82/3/45
