# Blender 4.1.1
# www.blender.org
mtllib sajay_obstacles.mtl
o obstacles
v -0.898477 -3.118836 1.500000
v -0.881526 -2.474891 1.500000
v -4.118926 -3.237491 1.500000
v -4.101975 -2.593546 1.500000
v -0.067893 -3.118836 1.500000
v -0.050943 -2.474891 1.500000
v -0.983230 -0.559463 1.500000
v -0.152647 -0.559463 1.500000
v -4.780003 -3.237491 1.500000
v -4.763052 -2.593546 1.500000
v -4.356236 7.102249 1.500000
v -5.017313 7.102249 1.500000
v -4.288433 8.153191 1.500000
v -4.949510 8.153191 1.500000
v -0.169417 8.356600 1.500000
v -0.237219 7.305657 1.500000
v 2.593546 7.509065 1.500000
v 2.661348 8.560007 1.500000
v 3.593636 7.678572 1.500000
v 3.661439 8.729515 1.500000
v 2.763053 -2.288433 1.500000
v 3.763143 -2.118926 1.500000
v 2.763053 -3.152918 1.500000
v 3.763143 -2.983411 1.500000
v 2.746102 -6.831217 1.500000
v 3.746193 -6.661710 1.500000
v 2.644398 -8.390680 1.500000
v 3.644489 -8.221172 1.500000
v -3.695158 -7.153280 1.500000
v -3.796862 -8.712743 1.500000
v -4.746101 -7.000723 1.500000
v -4.847805 -8.560186 1.500000
v 0.533343 -2.416224 1.496537
v 0.627266 -3.102066 1.500000
v 0.559463 8.424402 1.500000
v 0.491660 7.373459 1.500000
v -0.288071 4.813906 1.500000
v 0.440808 4.881709 1.500000
v -0.355874 4.169780 1.500000
v 0.373005 4.237583 1.500000
v 2.780003 4.220631 1.500000
v 3.780094 4.390138 1.500000
v 2.763053 4.932560 1.500000
v 3.763143 5.102067 1.500000
v 2.763053 4.932560 1.500000
v 3.763143 5.102067 1.500000
v 2.118927 4.288434 1.500000
v 2.101976 5.000363 1.500000
v -4.118818 -3.237775 -1.500000
v -0.898368 -3.119121 -1.500000
v -0.881418 -2.475176 -1.500000
v -4.101867 -2.593830 -1.500000
v -0.067785 -3.119121 -1.500000
v -0.050834 -2.475176 -1.500000
v -0.152538 -0.559748 -1.500000
v -0.983122 -0.559748 -1.500000
v -4.762944 -2.593830 -1.500000
v -4.779895 -3.237775 -1.500000
v -4.356128 7.101964 -1.500000
v -5.017204 7.101964 -1.500000
v -4.288325 8.152906 -1.500000
v -4.949401 8.152906 -1.500000
v 0.559571 8.424116 -1.500000
v -0.169308 8.356314 -1.500000
v 0.491769 7.373174 -1.500000
v 2.593654 7.508780 -1.500000
v 2.661456 8.559723 -1.500000
v -0.237111 7.305372 -1.500000
v 3.593745 7.678287 -1.500000
v 3.661547 8.729229 -1.500000
v 2.763161 -2.288717 -1.500000
v 3.763252 -2.119210 -1.500000
v 2.780112 4.220346 -1.500000
v 3.780202 4.389853 -1.500000
v 2.763161 -3.153202 -1.500000
v 3.763252 -2.983695 -1.500000
v 2.746210 -6.831501 -1.500000
v 3.746301 -6.661994 -1.500000
v 2.644506 -8.390965 -1.500000
v 3.644597 -8.221457 -1.500000
v -3.695050 -7.153564 -1.500000
v -3.796754 -8.713028 -1.500000
v -4.745992 -7.001008 -1.500000
v -4.847696 -8.560472 -1.500000
v 0.533452 -2.416508 -1.503463
v 0.627375 -3.102350 -1.500000
v -0.287963 4.813622 -1.500000
v 0.440917 4.881424 -1.500000
v -0.355766 4.169496 -1.500000
v 0.373114 4.237298 -1.500000
v 2.763161 4.932275 -1.500000
v 3.763252 5.101782 -1.500000
v 2.763161 4.932275 -1.500000
v 3.763252 5.101782 -1.500000
v 2.102084 5.000078 -1.500000
v 2.119035 4.288149 -1.500000
vn -0.0000 -0.0000 -1.0000
vn -0.0000 -0.0000 1.0000
vn 0.0644 -0.9979 0.0001
vn -0.0926 0.9957 -0.0001
vn -0.9997 -0.0262 -0.0000
vn 0.0499 -0.9988 0.0001
vn 0.9997 0.0238 -0.0000
vn 0.0368 -0.9993 0.0001
vn 1.0000 -0.0026 -0.0000
vn -0.9945 0.1047 -0.0000
vn -0.0000 -1.0000 0.0001
vn 0.9979 -0.0651 -0.0000
vn 0.1020 0.9948 -0.0001
vn 0.9945 -0.1047 -0.0000
vn 0.9979 -0.0644 -0.0000
vn 0.1437 0.9896 -0.0001
vn -0.1020 -0.9948 0.0001
vn -0.9997 0.0263 -0.0000
vn -1.0000 0.0026 -0.0000
vn -1.0000 -0.0000 -0.0000
vn 0.0926 -0.9957 0.0001
vn 1.0000 0.0090 -0.0000
vn -0.0000 1.0000 -0.0001
vn 0.0493 -0.9988 0.0001
vn -0.9942 -0.1076 -0.0000
vn -0.9997 -0.0238 -0.0000
vn 0.9908 0.1357 -0.0000
vn 0.9986 0.0530 -0.0000
vn -1.0000 0.0046 -0.0000
vn 0.0238 0.9997 -0.0001
vn -0.9986 -0.0530 -0.0000
vn 1.0000 -0.0046 -0.0000
vn 0.0572 -0.9984 0.0001
vn 0.9997 -0.0263 -0.0000
vn -0.1671 0.9859 -0.0001
vn -0.0493 0.9988 -0.0001
vn -0.9979 0.0651 -0.0000
vn 0.9978 0.0656 -0.0000
vn -0.9979 0.0644 -0.0000
vn -0.9978 -0.0656 -0.0000
vn 0.1671 -0.9859 0.0001
vn -0.9998 0.0204 -0.0000
vn -0.0644 0.9979 -0.0001
vn -0.0368 0.9993 -0.0001
vn 0.9998 -0.0204 -0.0000
vn 0.9997 0.0262 -0.0000
vn -0.0499 0.9988 -0.0001
vn 0.0018 -0.0048 -1.0000
vn -0.0018 0.0048 1.0000
vt 0.000000 0.000000
vt 1.000000 1.000000
vt 1.000000 0.000000
vt 0.000000 1.000000
s 0
f 1/1/1 4/2/1 2/3/1
f 2/3/1 5/1/1 1/1/1
f 2/3/1 8/3/1 6/3/1
f 3/4/1 10/2/1 4/2/1
f 10/2/1 11/2/1 4/2/1
f 14/2/1 11/2/1 12/2/1
f 13/2/1 16/2/1 11/2/1
f 15/2/1 36/2/1 16/2/1
f 18/2/1 19/2/1 17/2/1
f 41/2/1 22/2/1 21/2/1
f 24/2/1 21/2/1 22/2/1
f 26/2/1 23/2/1 24/2/1
f 28/2/1 25/2/1 26/2/1
f 27/2/1 29/2/1 25/2/1
f 32/2/1 29/2/1 30/2/1
f 3/4/1 31/2/1 9/4/1
f 34/2/1 21/2/1 23/2/1
f 38/2/1 16/2/1 36/2/1
f 40/2/1 37/2/1 38/2/1
f 43/2/1 42/2/1 41/2/1
f 45/2/2 44/2/2 43/2/2
f 46/2/1 17/2/1 19/2/1
f 35/2/1 17/2/1 36/2/1
f 47/2/1 43/2/1 41/2/1
f 50/1/2 52/2/2 49/4/2
f 51/3/2 53/1/2 54/3/2
f 51/3/2 55/3/2 56/3/2
f 49/4/2 57/2/2 58/4/2
f 57/2/2 59/2/2 60/2/2
f 59/2/2 62/2/2 60/2/2
f 61/2/2 68/2/2 64/2/2
f 64/2/2 65/2/2 63/2/2
f 67/2/2 69/2/2 70/2/2
f 72/2/2 73/2/2 71/2/2
f 71/2/2 76/2/2 72/2/2
f 75/2/2 78/2/2 76/2/2
f 77/2/2 80/2/2 78/2/2
f 79/2/2 81/2/2 82/2/2
f 81/2/2 84/2/2 82/2/2
f 83/2/2 49/4/2 58/4/2
f 71/2/2 86/2/2 75/2/2
f 68/2/2 88/2/2 65/2/2
f 87/2/2 90/2/2 88/2/2
f 74/2/2 91/2/2 73/2/2
f 92/2/2 93/2/2 91/2/2
f 66/2/2 94/2/2 69/2/2
f 63/2/2 66/2/2 67/2/2
f 91/2/2 96/2/2 73/2/2
f 18/2/3 63/2/3 67/2/3
f 40/2/4 89/2/4 39/2/4
f 4/2/5 59/2/5 52/2/5
f 25/2/6 81/2/6 77/2/6
f 47/2/7 95/2/7 48/2/7
f 2/3/8 52/2/8 51/3/8
f 21/2/9 73/2/9 41/2/9
f 40/2/10 88/2/10 90/2/10
f 13/2/11 62/2/11 61/2/11
f 32/2/12 83/2/12 31/2/12
f 41/2/13 96/2/13 47/2/13
f 39/2/14 87/2/14 37/2/14
f 12/2/15 62/2/15 14/2/15
f 30/2/16 84/2/16 32/2/16
f 43/2/17 95/2/17 91/2/17
f 5/1/18 54/3/18 53/1/18
f 22/2/19 74/2/19 72/2/19
f 24/2/20 72/2/20 76/2/20
f 35/2/21 64/2/21 63/2/21
f 31/2/22 58/4/22 9/4/22
f 5/1/23 50/1/23 1/1/23
f 15/2/24 61/2/24 64/2/24
f 29/2/25 49/4/25 81/2/25
f 8/3/11 56/3/11 55/3/11
f 42/2/26 92/2/26 74/2/26
f 33/2/27 86/2/27 85/2/27
f 2/3/28 56/3/28 7/3/28
f 26/2/29 76/2/29 78/2/29
f 23/2/30 86/2/30 34/2/30
f 6/3/31 55/3/31 54/3/31
f 25/2/32 75/2/32 23/2/32
f 43/2/2 93/2/2 45/2/2
f 33/2/33 71/2/33 21/2/33
f 9/4/34 57/2/34 10/2/34
f 28/2/35 79/2/35 27/2/35
f 46/2/2 92/2/2 44/2/2
f 16/2/36 59/2/36 11/2/36
f 28/2/37 78/2/37 80/2/37
f 45/2/38 66/2/38 17/2/38
f 19/2/39 70/2/39 69/2/39
f 46/2/40 69/2/40 94/2/40
f 20/2/41 67/2/41 70/2/41
f 38/2/42 65/2/42 88/2/42
f 17/2/43 65/2/43 36/2/43
f 1/1/44 49/4/44 3/4/44
f 37/2/45 68/2/45 16/2/45
f 10/2/46 60/2/46 12/2/46
f 27/2/47 82/2/47 30/2/47
f 1/1/1 3/4/1 4/2/1
f 2/3/1 6/3/1 5/1/1
f 2/3/1 7/3/1 8/3/1
f 3/4/1 9/4/1 10/2/1
f 10/2/1 12/2/1 11/2/1
f 14/2/1 13/2/1 11/2/1
f 13/2/1 15/2/1 16/2/1
f 15/2/1 35/2/1 36/2/1
f 18/2/1 20/2/1 19/2/1
f 41/2/1 42/2/1 22/2/1
f 24/2/1 23/2/1 21/2/1
f 26/2/1 25/2/1 23/2/1
f 28/2/1 27/2/1 25/2/1
f 27/2/1 30/2/1 29/2/1
f 32/2/1 31/2/1 29/2/1
f 3/4/1 29/2/1 31/2/1
f 34/2/48 33/2/48 21/2/48
f 38/2/1 37/2/1 16/2/1
f 40/2/1 39/2/1 37/2/1
f 43/2/1 44/2/1 42/2/1
f 45/2/2 46/2/2 44/2/2
f 46/2/1 45/2/1 17/2/1
f 35/2/1 18/2/1 17/2/1
f 47/2/1 48/2/1 43/2/1
f 50/1/2 51/3/2 52/2/2
f 51/3/2 50/1/2 53/1/2
f 51/3/2 54/3/2 55/3/2
f 49/4/2 52/2/2 57/2/2
f 57/2/2 52/2/2 59/2/2
f 59/2/2 61/2/2 62/2/2
f 61/2/2 59/2/2 68/2/2
f 64/2/2 68/2/2 65/2/2
f 67/2/2 66/2/2 69/2/2
f 72/2/2 74/2/2 73/2/2
f 71/2/2 75/2/2 76/2/2
f 75/2/2 77/2/2 78/2/2
f 77/2/2 79/2/2 80/2/2
f 79/2/2 77/2/2 81/2/2
f 81/2/2 83/2/2 84/2/2
f 83/2/2 81/2/2 49/4/2
f 71/2/49 85/2/49 86/2/49
f 68/2/2 87/2/2 88/2/2
f 87/2/2 89/2/2 90/2/2
f 74/2/2 92/2/2 91/2/2
f 92/2/2 94/2/2 93/2/2
f 66/2/2 93/2/2 94/2/2
f 63/2/2 65/2/2 66/2/2
f 91/2/2 95/2/2 96/2/2
f 18/2/3 35/2/3 63/2/3
f 40/2/4 90/2/4 89/2/4
f 4/2/5 11/2/5 59/2/5
f 25/2/6 29/2/6 81/2/6
f 47/2/7 96/2/7 95/2/7
f 2/3/8 4/2/8 52/2/8
f 21/2/9 71/2/9 73/2/9
f 40/2/10 38/2/10 88/2/10
f 13/2/11 14/2/11 62/2/11
f 32/2/12 84/2/12 83/2/12
f 41/2/13 73/2/13 96/2/13
f 39/2/14 89/2/14 87/2/14
f 12/2/15 60/2/15 62/2/15
f 30/2/16 82/2/16 84/2/16
f 43/2/17 48/2/17 95/2/17
f 5/1/18 6/3/18 54/3/18
f 22/2/19 42/2/19 74/2/19
f 24/2/20 22/2/20 72/2/20
f 35/2/21 15/2/21 64/2/21
f 31/2/22 83/2/22 58/4/22
f 5/1/23 53/1/23 50/1/23
f 15/2/24 13/2/24 61/2/24
f 29/2/25 3/4/25 49/4/25
f 8/3/11 7/3/11 56/3/11
f 42/2/26 44/2/26 92/2/26
f 33/2/27 34/2/27 86/2/27
f 2/3/28 51/3/28 56/3/28
f 26/2/29 24/2/29 76/2/29
f 23/2/30 75/2/30 86/2/30
f 6/3/31 8/3/31 55/3/31
f 25/2/32 77/2/32 75/2/32
f 43/2/2 91/2/2 93/2/2
f 33/2/33 85/2/33 71/2/33
f 9/4/34 58/4/34 57/2/34
f 28/2/35 80/2/35 79/2/35
f 46/2/2 94/2/2 92/2/2
f 16/2/36 68/2/36 59/2/36
f 28/2/37 26/2/37 78/2/37
f 45/2/38 93/2/38 66/2/38
f 19/2/39 20/2/39 70/2/39
f 46/2/40 19/2/40 69/2/40
f 20/2/41 18/2/41 67/2/41
f 38/2/42 36/2/42 65/2/42
f 17/2/43 66/2/43 65/2/43
f 1/1/44 50/1/44 49/4/44
f 37/2/45 87/2/45 68/2/45
f 10/2/46 57/2/46 60/2/46
f 27/2/47 79/2/47 82/2/47
o bathroom_door
v 0.440808 4.881709 1.500000
v 0.373005 4.237583 1.500000
v 2.118927 4.288434 1.500000
v 2.101976 5.000363 1.500000
v 0.373114 4.237298 -1.500000
v 0.440917 4.881424 -1.500000
v 2.102084 5.000078 -1.500000
v 2.119035 4.288149 -1.500000
vn -0.0000 -0.0000 -1.0000
vn -0.0000 -0.0000 1.0000
vn -0.0291 0.9996 -0.0001
vn 0.9945 -0.1047 -0.0000
vn 0.0712 -0.9975 0.0001
vn -0.9997 -0.0238 -0.0000
vt 1.000000 1.000000
s 0
f 97/5/50 99/5/50 98/5/50
f 104/5/51 102/5/51 101/5/51
f 99/5/52 101/5/52 98/5/52
f 98/5/53 102/5/53 97/5/53
f 100/5/54 102/5/54 103/5/54
f 99/5/55 103/5/55 104/5/55
f 97/5/50 100/5/50 99/5/50
f 104/5/51 103/5/51 102/5/51
f 99/5/52 104/5/52 101/5/52
f 98/5/53 101/5/53 102/5/53
f 100/5/54 97/5/54 102/5/54
f 99/5/55 100/5/55 103/5/55
