# Blender 4.1.1
# www.blender.org
mtllib transition_2.mtl
o bathroom
v -5.814715 -1.927395 0.000000
v -3.815221 -1.882384 0.000000
v -5.888283 -0.584699 0.000000
v -3.888789 -0.539687 0.000000
vn -0.0000 -0.0000 1.0000
vt 0.000000 0.000000
vt 1.000000 0.000000
vt 1.000000 1.000000
vt 0.000000 1.000000
s 0
f 1/1/1 2/2/1 4/3/1 3/4/1
o bedroom
v -3.980088 1.904793 0.000000
v -5.980076 1.897948 0.000000
v -3.973243 0.875722 0.000000
v -5.973231 0.868877 0.000000
vn -0.0000 -0.0000 1.0000
vt 0.000000 0.000000
vt 1.000000 0.000000
vt 1.000000 1.000000
vt 0.000000 1.000000
s 0
f 5/5/2 6/6/2 8/7/2 7/8/2
o corridor
v -5.950891 -0.435664 0.000000
v -3.951397 -0.390652 0.000000
v -5.967346 0.592912 0.000000
v -3.967853 0.637924 0.000000
vn -0.0000 -0.0000 1.0000
vt 0.000000 0.000000
vt 1.000000 0.000000
vt 1.000000 1.000000
vt 0.000000 1.000000
s 0
f 9/9/3 10/10/3 12/11/3 11/12/3
o indoor
v 5.313860 -1.589918 0.000000
v 5.313860 0.410082 0.000000
v 4.313334 -1.589918 0.000000
v 4.313334 0.410082 0.000000
vn -0.0000 -0.0000 1.0000
vt 0.000000 0.000000
vt 1.000000 0.000000
vt 1.000000 1.000000
vt 0.000000 1.000000
s 0
f 13/13/4 14/14/4 16/15/4 15/16/4
o outdoor
v 6.572300 -1.618506 0.000000
v 6.572300 0.381494 0.000000
v 5.472300 -1.618506 0.000000
v 5.472300 0.381494 0.000000
vn -0.0000 -0.0000 1.0000
vt 0.000000 0.000000
vt 1.000000 0.000000
vt 1.000000 1.000000
vt 0.000000 1.000000
s 0
f 17/17/5 18/18/5 20/19/5 19/20/5
